%TF.GenerationSoftware,KiCad,Pcbnew,8.0.2*%
%TF.CreationDate,2024-06-07T13:42:10-07:00*%
%TF.ProjectId,STM_RF_PCB,53544d5f-5246-45f5-9043-422e6b696361,rev?*%
%TF.SameCoordinates,Original*%
%TF.FileFunction,Soldermask,Top*%
%TF.FilePolarity,Negative*%
%FSLAX46Y46*%
G04 Gerber Fmt 4.6, Leading zero omitted, Abs format (unit mm)*
G04 Created by KiCad (PCBNEW 8.0.2) date 2024-06-07 13:42:10*
%MOMM*%
%LPD*%
G01*
G04 APERTURE LIST*
G04 Aperture macros list*
%AMRoundRect*
0 Rectangle with rounded corners*
0 $1 Rounding radius*
0 $2 $3 $4 $5 $6 $7 $8 $9 X,Y pos of 4 corners*
0 Add a 4 corners polygon primitive as box body*
4,1,4,$2,$3,$4,$5,$6,$7,$8,$9,$2,$3,0*
0 Add four circle primitives for the rounded corners*
1,1,$1+$1,$2,$3*
1,1,$1+$1,$4,$5*
1,1,$1+$1,$6,$7*
1,1,$1+$1,$8,$9*
0 Add four rect primitives between the rounded corners*
20,1,$1+$1,$2,$3,$4,$5,0*
20,1,$1+$1,$4,$5,$6,$7,0*
20,1,$1+$1,$6,$7,$8,$9,0*
20,1,$1+$1,$8,$9,$2,$3,0*%
G04 Aperture macros list end*
%ADD10C,3.000000*%
%ADD11O,3.200000X1.900000*%
%ADD12RoundRect,0.150000X-0.150000X0.512500X-0.150000X-0.512500X0.150000X-0.512500X0.150000X0.512500X0*%
%ADD13RoundRect,0.200000X0.275000X-0.200000X0.275000X0.200000X-0.275000X0.200000X-0.275000X-0.200000X0*%
%ADD14RoundRect,0.200000X0.200000X0.275000X-0.200000X0.275000X-0.200000X-0.275000X0.200000X-0.275000X0*%
%ADD15RoundRect,0.140000X-0.170000X0.140000X-0.170000X-0.140000X0.170000X-0.140000X0.170000X0.140000X0*%
%ADD16RoundRect,0.140000X-0.140000X-0.170000X0.140000X-0.170000X0.140000X0.170000X-0.140000X0.170000X0*%
%ADD17RoundRect,0.147500X-0.172500X0.147500X-0.172500X-0.147500X0.172500X-0.147500X0.172500X0.147500X0*%
%ADD18RoundRect,0.135000X0.185000X-0.135000X0.185000X0.135000X-0.185000X0.135000X-0.185000X-0.135000X0*%
%ADD19RoundRect,0.062500X-0.350000X-0.062500X0.350000X-0.062500X0.350000X0.062500X-0.350000X0.062500X0*%
%ADD20RoundRect,0.062500X-0.062500X-0.350000X0.062500X-0.350000X0.062500X0.350000X-0.062500X0.350000X0*%
%ADD21R,2.500000X2.500000*%
%ADD22R,1.700000X1.700000*%
%ADD23O,1.700000X1.700000*%
%ADD24RoundRect,0.150000X-0.512500X-0.150000X0.512500X-0.150000X0.512500X0.150000X-0.512500X0.150000X0*%
%ADD25RoundRect,0.225000X-0.250000X0.225000X-0.250000X-0.225000X0.250000X-0.225000X0.250000X0.225000X0*%
%ADD26RoundRect,0.218750X0.218750X0.381250X-0.218750X0.381250X-0.218750X-0.381250X0.218750X-0.381250X0*%
%ADD27O,0.750000X2.150000*%
%ADD28C,0.550000*%
%ADD29R,0.400000X1.350000*%
%ADD30R,1.500000X1.200000*%
%ADD31RoundRect,0.250000X-0.375000X-0.625000X0.375000X-0.625000X0.375000X0.625000X-0.375000X0.625000X0*%
%ADD32RoundRect,0.218750X-0.218750X-0.256250X0.218750X-0.256250X0.218750X0.256250X-0.218750X0.256250X0*%
%ADD33R,1.400000X1.200000*%
%ADD34RoundRect,0.147500X-0.147500X-0.172500X0.147500X-0.172500X0.147500X0.172500X-0.147500X0.172500X0*%
%ADD35RoundRect,0.140000X0.140000X0.170000X-0.140000X0.170000X-0.140000X-0.170000X0.140000X-0.170000X0*%
%ADD36RoundRect,0.225000X0.250000X-0.225000X0.250000X0.225000X-0.250000X0.225000X-0.250000X-0.225000X0*%
%ADD37RoundRect,0.062500X-0.375000X-0.062500X0.375000X-0.062500X0.375000X0.062500X-0.375000X0.062500X0*%
%ADD38RoundRect,0.062500X-0.062500X-0.375000X0.062500X-0.375000X0.062500X0.375000X-0.062500X0.375000X0*%
%ADD39R,3.500000X3.500000*%
%ADD40C,2.100000*%
%ADD41C,2.200000*%
%ADD42RoundRect,0.135000X0.135000X0.185000X-0.135000X0.185000X-0.135000X-0.185000X0.135000X-0.185000X0*%
%ADD43RoundRect,0.140000X0.170000X-0.140000X0.170000X0.140000X-0.170000X0.140000X-0.170000X-0.140000X0*%
%ADD44RoundRect,0.200000X-0.200000X-0.275000X0.200000X-0.275000X0.200000X0.275000X-0.200000X0.275000X0*%
G04 APERTURE END LIST*
D10*
%TO.C,GND*%
X78000000Y-137000000D03*
%TD*%
%TO.C,3v3*%
X73250000Y-137000000D03*
%TD*%
D11*
%TO.C,SW5*%
X189250000Y-109000000D03*
X201750000Y-109000000D03*
X189250000Y-114000000D03*
X201750000Y-114000000D03*
%TD*%
D12*
%TO.C,U2*%
X149450000Y-67862500D03*
X148500000Y-67862500D03*
X147550000Y-67862500D03*
X147550000Y-70137500D03*
X148500000Y-70137500D03*
X149450000Y-70137500D03*
%TD*%
D13*
%TO.C,R6*%
X148500000Y-93325000D03*
X148500000Y-91675000D03*
%TD*%
D14*
%TO.C,R5*%
X126825000Y-100500000D03*
X125175000Y-100500000D03*
%TD*%
D15*
%TO.C,C6*%
X191750000Y-87770000D03*
X191750000Y-88730000D03*
%TD*%
D16*
%TO.C,C8*%
X201770000Y-79750000D03*
X202730000Y-79750000D03*
%TD*%
D17*
%TO.C,L2*%
X198000000Y-75500000D03*
X198000000Y-76470000D03*
%TD*%
D15*
%TO.C,C3*%
X188000000Y-80520000D03*
X188000000Y-81480000D03*
%TD*%
D18*
%TO.C,R1*%
X196187500Y-70510000D03*
X196187500Y-69490000D03*
%TD*%
D16*
%TO.C,C7*%
X201770000Y-78000000D03*
X202730000Y-78000000D03*
%TD*%
D19*
%TO.C,U1*%
X190812500Y-74500000D03*
X190812500Y-75000000D03*
X190812500Y-75500000D03*
X190812500Y-76000000D03*
X190812500Y-76500000D03*
D20*
X191750000Y-77437500D03*
X192250000Y-77437500D03*
X192750000Y-77437500D03*
X193250000Y-77437500D03*
X193750000Y-77437500D03*
D19*
X194687500Y-76500000D03*
X194687500Y-76000000D03*
X194687500Y-75500000D03*
X194687500Y-75000000D03*
X194687500Y-74500000D03*
D20*
X193750000Y-73562500D03*
X193250000Y-73562500D03*
X192750000Y-73562500D03*
X192250000Y-73562500D03*
X191750000Y-73562500D03*
D21*
X192750000Y-75500000D03*
%TD*%
D22*
%TO.C,J3*%
X184425000Y-144275000D03*
D23*
X184425000Y-141735000D03*
X186965000Y-144275000D03*
X186965000Y-141735000D03*
X189505000Y-144275000D03*
X189505000Y-141735000D03*
X192045000Y-144275000D03*
X192045000Y-141735000D03*
X194585000Y-144275000D03*
X194585000Y-141735000D03*
%TD*%
D17*
%TO.C,L1*%
X199750000Y-77015000D03*
X199750000Y-77985000D03*
%TD*%
D24*
%TO.C,U3*%
X127612500Y-72800000D03*
X127612500Y-74700000D03*
X129887500Y-73750000D03*
%TD*%
D25*
%TO.C,C11*%
X133250000Y-73475000D03*
X133250000Y-75025000D03*
%TD*%
D11*
%TO.C,SW3*%
X90250000Y-115500000D03*
X102750000Y-115500000D03*
X90250000Y-120500000D03*
X102750000Y-120500000D03*
%TD*%
D26*
%TO.C,FB1*%
X137812500Y-73250000D03*
X135687500Y-73250000D03*
%TD*%
D27*
%TO.C,J2*%
X151325000Y-61825000D03*
D28*
X150500000Y-63975000D03*
X146500000Y-63975000D03*
D27*
X145675000Y-61825000D03*
D29*
X149800000Y-64500000D03*
X149150000Y-64500000D03*
X148500000Y-64500000D03*
X147850000Y-64500000D03*
X147200000Y-64500000D03*
D30*
X151800000Y-64575000D03*
X145200000Y-64575000D03*
%TD*%
D11*
%TO.C,SW8*%
X154250000Y-132500000D03*
X166750000Y-132500000D03*
X154250000Y-137500000D03*
X166750000Y-137500000D03*
%TD*%
%TO.C,SW1*%
X90250000Y-89500000D03*
X102750000Y-89500000D03*
X90250000Y-94500000D03*
X102750000Y-94500000D03*
%TD*%
D31*
%TO.C,F1*%
X140350000Y-73250000D03*
X143150000Y-73250000D03*
%TD*%
D32*
%TO.C,D2*%
X130212500Y-104000000D03*
X131787500Y-104000000D03*
%TD*%
D33*
%TO.C,Y1*%
X194100000Y-82650000D03*
X191900000Y-82650000D03*
X191900000Y-84350000D03*
X194100000Y-84350000D03*
%TD*%
D34*
%TO.C,L3*%
X199765000Y-75500000D03*
X200735000Y-75500000D03*
%TD*%
D35*
%TO.C,C16*%
X139980000Y-103500000D03*
X139020000Y-103500000D03*
%TD*%
D11*
%TO.C,SW6*%
X207250000Y-96000000D03*
X219750000Y-96000000D03*
X207250000Y-101000000D03*
X219750000Y-101000000D03*
%TD*%
D15*
%TO.C,C10*%
X204750000Y-75270000D03*
X204750000Y-76230000D03*
%TD*%
D36*
%TO.C,C4*%
X192250000Y-66525000D03*
X192250000Y-64975000D03*
%TD*%
D16*
%TO.C,C9*%
X202270000Y-75500000D03*
X203230000Y-75500000D03*
%TD*%
D32*
%TO.C,D1*%
X130212500Y-100500000D03*
X131787500Y-100500000D03*
%TD*%
D37*
%TO.C,U4*%
X146062500Y-103250000D03*
X146062500Y-103750000D03*
X146062500Y-104250000D03*
X146062500Y-104750000D03*
X146062500Y-105250000D03*
X146062500Y-105750000D03*
X146062500Y-106250000D03*
X146062500Y-106750000D03*
D38*
X146750000Y-107437500D03*
X147250000Y-107437500D03*
X147750000Y-107437500D03*
X148250000Y-107437500D03*
X148750000Y-107437500D03*
X149250000Y-107437500D03*
X149750000Y-107437500D03*
X150250000Y-107437500D03*
D37*
X150937500Y-106750000D03*
X150937500Y-106250000D03*
X150937500Y-105750000D03*
X150937500Y-105250000D03*
X150937500Y-104750000D03*
X150937500Y-104250000D03*
X150937500Y-103750000D03*
X150937500Y-103250000D03*
D38*
X150250000Y-102562500D03*
X149750000Y-102562500D03*
X149250000Y-102562500D03*
X148750000Y-102562500D03*
X148250000Y-102562500D03*
X147750000Y-102562500D03*
X147250000Y-102562500D03*
X146750000Y-102562500D03*
D39*
X148500000Y-105000000D03*
%TD*%
D16*
%TO.C,C15*%
X154520000Y-107000000D03*
X155480000Y-107000000D03*
%TD*%
D11*
%TO.C,SW4*%
X103250000Y-102500000D03*
X115750000Y-102500000D03*
X103250000Y-107500000D03*
X115750000Y-107500000D03*
%TD*%
D25*
%TO.C,C12*%
X124750000Y-74975000D03*
X124750000Y-76525000D03*
%TD*%
D18*
%TO.C,R3*%
X147000000Y-98510000D03*
X147000000Y-97490000D03*
%TD*%
D11*
%TO.C,SW2*%
X77250000Y-102500000D03*
X89750000Y-102500000D03*
X77250000Y-107500000D03*
X89750000Y-107500000D03*
%TD*%
D40*
%TO.C,J1*%
X204500000Y-68000000D03*
D41*
X201960000Y-65460000D03*
X201960000Y-70540000D03*
X207040000Y-65460000D03*
X207040000Y-70540000D03*
%TD*%
D22*
%TO.C,J4*%
X144700000Y-86975000D03*
D23*
X147240000Y-86975000D03*
X149780000Y-86975000D03*
X152320000Y-86975000D03*
%TD*%
D15*
%TO.C,C14*%
X152500000Y-107020000D03*
X152500000Y-107980000D03*
%TD*%
D16*
%TO.C,C5*%
X196770000Y-82750000D03*
X197730000Y-82750000D03*
%TD*%
D42*
%TO.C,R2*%
X193240000Y-80500000D03*
X194260000Y-80500000D03*
%TD*%
D13*
%TO.C,R7*%
X153500000Y-93325000D03*
X153500000Y-91675000D03*
%TD*%
D35*
%TO.C,C1*%
X189230000Y-70250000D03*
X188270000Y-70250000D03*
%TD*%
D36*
%TO.C,C17*%
X141500000Y-101500000D03*
X141500000Y-99950000D03*
%TD*%
D43*
%TO.C,C13*%
X194500000Y-138480000D03*
X194500000Y-137520000D03*
%TD*%
D14*
%TO.C,R4*%
X126825000Y-104000000D03*
X125175000Y-104000000D03*
%TD*%
D44*
%TO.C,C2*%
X197675000Y-72000000D03*
X199325000Y-72000000D03*
%TD*%
D11*
%TO.C,SW7*%
X130250000Y-132500000D03*
X142750000Y-132500000D03*
X130250000Y-137500000D03*
X142750000Y-137500000D03*
%TD*%
M02*
