M48
; DRILL file {KiCad 8.0.2} date 2024-06-07T13:41:09-0700
; FORMAT={-:-/ absolute / metric / decimal}
; #@! TF.CreationDate,2024-06-07T13:41:09-07:00
; #@! TF.GenerationSoftware,Kicad,Pcbnew,8.0.2
; #@! TF.FileFunction,Plated,1,4,PTH
FMAT,2
METRIC
; #@! TA.AperFunction,Plated,PTH,ViaDrill
T1C0.400
; #@! TA.AperFunction,Plated,PTH,ComponentDrill
T2C1.000
; #@! TA.AperFunction,Plated,PTH,ComponentDrill
T3C1.300
; #@! TA.AperFunction,Plated,PTH,ComponentDrill
T4C1.400
; #@! TA.AperFunction,Plated,PTH,ComponentDrill
T5C1.500
; #@! TA.AperFunction,Plated,PTH,ComponentDrill
T6C2.000
%
G90
G05
T1
X122.975Y-74.975
X122.975Y-76.0
X123.0Y-73.0
X123.0Y-74.0
X127.0Y-70.0
X138.5Y-92.5
X141.5Y-119.5
X143.0Y-66.5
X143.5Y-103.25
X144.5Y-104.5
X144.675Y-108.825
X145.25Y-73.25
X147.25Y-111.5
X147.5Y-104.0
X147.5Y-106.0
X148.25Y-111.5
X148.5Y-105.0
X149.5Y-104.0
X149.5Y-106.0
X152.25Y-68.75
X152.488Y-100.913
X152.5Y-102.0
X153.237Y-95.987
X153.25Y-97.0
X153.25Y-98.0
X153.25Y-99.0
X153.25Y-100.0
X153.255Y-94.987
X153.5Y-105.75
X153.75Y-104.75
X154.25Y-66.5
X156.388Y-103.362
X159.0Y-119.5
X175.25Y-75.0
X175.25Y-79.25
X175.256Y-77.019
X175.263Y-76.013
X175.317Y-78.208
X184.0Y-70.0
X185.75Y-80.75
X188.737Y-79.237
X192.188Y-68.75
X196.0Y-72.75
X198.25Y-73.5
X202.0Y-85.0
X204.75Y-78.0
T2
X144.7Y-86.975
X147.24Y-86.975
X149.78Y-86.975
X152.32Y-86.975
X184.425Y-141.735
X184.425Y-144.275
X186.965Y-141.735
X186.965Y-144.275
X189.505Y-141.735
X189.505Y-144.275
X192.045Y-141.735
X192.045Y-144.275
X194.585Y-141.735
X194.585Y-144.275
T3
X77.25Y-102.5
X77.25Y-107.5
X89.75Y-102.5
X89.75Y-107.5
X90.25Y-89.5
X90.25Y-94.5
X90.25Y-115.5
X90.25Y-120.5
X102.75Y-89.5
X102.75Y-94.5
X102.75Y-115.5
X102.75Y-120.5
X103.25Y-102.5
X103.25Y-107.5
X115.75Y-102.5
X115.75Y-107.5
X130.25Y-132.5
X130.25Y-137.5
X142.75Y-132.5
X142.75Y-137.5
X154.25Y-132.5
X154.25Y-137.5
X166.75Y-132.5
X166.75Y-137.5
X189.25Y-109.0
X189.25Y-114.0
X201.75Y-109.0
X201.75Y-114.0
X207.25Y-96.0
X207.25Y-101.0
X219.75Y-96.0
X219.75Y-101.0
T4
X204.5Y-68.0
T5
X201.96Y-65.46
X201.96Y-70.54
X207.04Y-65.46
X207.04Y-70.54
T6
X73.25Y-137.0
X78.0Y-137.0
M30
