%TF.GenerationSoftware,KiCad,Pcbnew,8.0.2*%
%TF.CreationDate,2024-06-08T21:37:47-07:00*%
%TF.ProjectId,STM_RF_PCB,53544d5f-5246-45f5-9043-422e6b696361,rev?*%
%TF.SameCoordinates,Original*%
%TF.FileFunction,Copper,L3,Inr*%
%TF.FilePolarity,Positive*%
%FSLAX46Y46*%
G04 Gerber Fmt 4.6, Leading zero omitted, Abs format (unit mm)*
G04 Created by KiCad (PCBNEW 8.0.2) date 2024-06-08 21:37:47*
%MOMM*%
%LPD*%
G01*
G04 APERTURE LIST*
%TA.AperFunction,ComponentPad*%
%ADD10O,3.200000X1.900000*%
%TD*%
%TA.AperFunction,ComponentPad*%
%ADD11C,3.000000*%
%TD*%
%TA.AperFunction,ComponentPad*%
%ADD12R,1.700000X1.700000*%
%TD*%
%TA.AperFunction,ComponentPad*%
%ADD13O,1.700000X1.700000*%
%TD*%
%TA.AperFunction,ComponentPad*%
%ADD14C,2.100000*%
%TD*%
%TA.AperFunction,ComponentPad*%
%ADD15C,2.200000*%
%TD*%
%TA.AperFunction,ViaPad*%
%ADD16C,0.800000*%
%TD*%
%TA.AperFunction,Conductor*%
%ADD17C,0.250000*%
%TD*%
G04 APERTURE END LIST*
D10*
%TO.N,+3V3*%
%TO.C,SW5*%
X189250000Y-109000000D03*
X201750000Y-109000000D03*
%TO.N,Button_A*%
X189250000Y-114000000D03*
X201750000Y-114000000D03*
%TD*%
D11*
%TO.N,+3V3*%
%TO.C,3v3*%
X73250000Y-137000000D03*
%TD*%
D12*
%TO.N,+3V3*%
%TO.C,J3*%
X184425000Y-144275000D03*
D13*
%TO.N,SWDIO*%
X184425000Y-141735000D03*
%TO.N,GND*%
X186965000Y-144275000D03*
%TO.N,SWCLK*%
X186965000Y-141735000D03*
%TO.N,GND*%
X189505000Y-144275000D03*
%TO.N,unconnected-(J3-Pin_6-Pad6)*%
X189505000Y-141735000D03*
%TO.N,unconnected-(J3-Pin_7-Pad7)*%
X192045000Y-144275000D03*
%TO.N,unconnected-(J3-Pin_8-Pad8)*%
X192045000Y-141735000D03*
%TO.N,GND*%
X194585000Y-144275000D03*
%TO.N,NRST*%
X194585000Y-141735000D03*
%TD*%
D10*
%TO.N,+3V3*%
%TO.C,SW3*%
X90250000Y-115500000D03*
X102750000Y-115500000D03*
%TO.N,Button_DN*%
X90250000Y-120500000D03*
X102750000Y-120500000D03*
%TD*%
%TO.N,+3V3*%
%TO.C,SW8*%
X154250000Y-132500000D03*
X166750000Y-132500000D03*
%TO.N,Button_START*%
X154250000Y-137500000D03*
X166750000Y-137500000D03*
%TD*%
%TO.N,+3V3*%
%TO.C,SW1*%
X90250000Y-89500000D03*
X102750000Y-89500000D03*
%TO.N,Button_UP*%
X90250000Y-94500000D03*
X102750000Y-94500000D03*
%TD*%
%TO.N,+3V3*%
%TO.C,SW6*%
X207250000Y-96000000D03*
X219750000Y-96000000D03*
%TO.N,Button_B*%
X207250000Y-101000000D03*
X219750000Y-101000000D03*
%TD*%
D11*
%TO.N,GND*%
%TO.C,GND*%
X78000000Y-137000000D03*
%TD*%
D10*
%TO.N,+3V3*%
%TO.C,SW4*%
X103250000Y-102500000D03*
X115750000Y-102500000D03*
%TO.N,Button_RT*%
X103250000Y-107500000D03*
X115750000Y-107500000D03*
%TD*%
%TO.N,+3V3*%
%TO.C,SW2*%
X77250000Y-102500000D03*
X89750000Y-102500000D03*
%TO.N,Button_LF*%
X77250000Y-107500000D03*
X89750000Y-107500000D03*
%TD*%
D14*
%TO.N,Net-(J1-In)*%
%TO.C,J1*%
X204500000Y-68000000D03*
D15*
%TO.N,GND*%
X201960000Y-65460000D03*
X201960000Y-70540000D03*
X207040000Y-65460000D03*
X207040000Y-70540000D03*
%TD*%
D12*
%TO.N,GND*%
%TO.C,J4*%
X144700000Y-86975000D03*
D13*
%TO.N,+3V3*%
X147240000Y-86975000D03*
%TO.N,I2C1_SCL*%
X149780000Y-86975000D03*
%TO.N,I2C1_SDA*%
X152320000Y-86975000D03*
%TD*%
D10*
%TO.N,+3V3*%
%TO.C,SW7*%
X130250000Y-132500000D03*
X142750000Y-132500000D03*
%TO.N,Button_SELECT*%
X130250000Y-137500000D03*
X142750000Y-137500000D03*
%TD*%
D16*
%TO.N,GND*%
X205750000Y-78500000D03*
X147500000Y-106000000D03*
X147500000Y-104000000D03*
X149500000Y-104000000D03*
X154250000Y-66500000D03*
X127000000Y-70000000D03*
X138500000Y-92500000D03*
X198250000Y-73500000D03*
X184000000Y-70000000D03*
X148500000Y-105000000D03*
X202000000Y-85000000D03*
X143000000Y-66500000D03*
X149500000Y-106000000D03*
X159000000Y-119500000D03*
X141500000Y-119500000D03*
%TO.N,+3V3*%
X122975000Y-74975000D03*
X188737347Y-79237347D03*
X192187500Y-68750000D03*
X122975000Y-76000000D03*
X123000000Y-73000000D03*
X123000000Y-74000000D03*
X196000000Y-72750000D03*
X156387653Y-103362347D03*
X143500000Y-103250000D03*
%TO.N,NRST*%
X144500000Y-104500000D03*
%TO.N,+5V*%
X152250000Y-68750000D03*
X145250000Y-73250000D03*
%TO.N,SWDIO*%
X152500000Y-102000000D03*
%TO.N,SWCLK*%
X152487730Y-100912577D03*
%TO.N,I2C1_SCL*%
X153500000Y-105750000D03*
%TO.N,I2C1_SDA*%
X153750000Y-104750000D03*
%TO.N,Button_DN*%
X144675000Y-108825000D03*
%TO.N,Button_A*%
X147250000Y-111500000D03*
%TO.N,Button_B*%
X148250000Y-111500000D03*
%TO.N,SPI_MISO*%
X175250000Y-79250000D03*
X153250000Y-97999997D03*
%TO.N,NRF_CE*%
X153254505Y-94987491D03*
X175250000Y-75000000D03*
%TO.N,SPI_CS*%
X175262653Y-76012653D03*
X153237347Y-95987347D03*
%TO.N,SPI_SCK*%
X153250000Y-99000000D03*
X175256286Y-77019020D03*
%TO.N,SPI_MOSI*%
X153250000Y-97000000D03*
X175317270Y-78208036D03*
%TO.N,NRF_IRQ*%
X185750000Y-80750000D03*
X153250000Y-100000000D03*
%TD*%
D17*
%TO.N,NRST*%
X144500000Y-104500000D02*
X148500000Y-108500000D01*
X161350000Y-108500000D02*
X194585000Y-141735000D01*
X148500000Y-108500000D02*
X161350000Y-108500000D01*
%TO.N,SPI_MISO*%
X175250000Y-79500000D02*
X156750003Y-97999997D01*
X175250000Y-79250000D02*
X175250000Y-79500000D01*
X156750003Y-97999997D02*
X153250000Y-97999997D01*
%TO.N,NRF_CE*%
X175250000Y-75000000D02*
X155262509Y-94987491D01*
X155262509Y-94987491D02*
X153254505Y-94987491D01*
%TO.N,SPI_CS*%
X175237347Y-76012653D02*
X155262653Y-95987347D01*
X175262653Y-76012653D02*
X175237347Y-76012653D01*
X155262653Y-95987347D02*
X153237347Y-95987347D01*
%TO.N,SPI_MOSI*%
X175317270Y-78208036D02*
X175041964Y-78208036D01*
X156250000Y-97000000D02*
X153250000Y-97000000D01*
X175041964Y-78208036D02*
X156250000Y-97000000D01*
%TO.N,NRF_IRQ*%
X153250000Y-100000000D02*
X166500000Y-100000000D01*
X166500000Y-100000000D02*
X185750000Y-80750000D01*
%TD*%
%TA.AperFunction,Conductor*%
%TO.N,+3V3*%
G36*
X199943039Y-60420185D02*
G01*
X199988794Y-60472989D01*
X200000000Y-60524500D01*
X200000000Y-74126000D01*
X199980315Y-74193039D01*
X199927511Y-74238794D01*
X199876000Y-74250000D01*
X199064948Y-74250000D01*
X198997909Y-74230315D01*
X198952154Y-74177511D01*
X198942210Y-74108353D01*
X198971235Y-74044797D01*
X198972797Y-74043029D01*
X198973293Y-74042477D01*
X198982533Y-74032216D01*
X199077179Y-73868284D01*
X199135674Y-73688256D01*
X199155460Y-73500000D01*
X199135674Y-73311744D01*
X199077179Y-73131716D01*
X198982533Y-72967784D01*
X198855871Y-72827112D01*
X198855870Y-72827111D01*
X198702734Y-72715851D01*
X198702729Y-72715848D01*
X198529807Y-72638857D01*
X198529802Y-72638855D01*
X198384001Y-72607865D01*
X198344646Y-72599500D01*
X198155354Y-72599500D01*
X198122897Y-72606398D01*
X197970197Y-72638855D01*
X197970192Y-72638857D01*
X197797270Y-72715848D01*
X197797265Y-72715851D01*
X197644129Y-72827111D01*
X197517466Y-72967785D01*
X197422821Y-73131715D01*
X197422818Y-73131722D01*
X197364327Y-73311740D01*
X197364326Y-73311744D01*
X197344540Y-73500000D01*
X197364326Y-73688256D01*
X197364327Y-73688259D01*
X197422818Y-73868277D01*
X197422821Y-73868284D01*
X197517467Y-74032216D01*
X197533639Y-74050177D01*
X197563868Y-74113165D01*
X197555244Y-74182501D01*
X197529171Y-74220829D01*
X197500000Y-74250000D01*
X197500000Y-74626000D01*
X197480315Y-74693039D01*
X197427511Y-74738794D01*
X197376000Y-74750000D01*
X193750000Y-74750000D01*
X193750000Y-76876000D01*
X193730315Y-76943039D01*
X193677511Y-76988794D01*
X193626000Y-77000000D01*
X193000000Y-77000000D01*
X193000000Y-79376000D01*
X192980315Y-79443039D01*
X192927511Y-79488794D01*
X192876000Y-79500000D01*
X190500000Y-79500000D01*
X190500000Y-89500000D01*
X199000000Y-89500000D01*
X199000000Y-85000000D01*
X201094540Y-85000000D01*
X201114326Y-85188256D01*
X201114327Y-85188259D01*
X201172818Y-85368277D01*
X201172821Y-85368284D01*
X201267467Y-85532216D01*
X201345915Y-85619341D01*
X201394129Y-85672888D01*
X201547265Y-85784148D01*
X201547270Y-85784151D01*
X201720192Y-85861142D01*
X201720197Y-85861144D01*
X201905354Y-85900500D01*
X201905355Y-85900500D01*
X202094644Y-85900500D01*
X202094646Y-85900500D01*
X202279803Y-85861144D01*
X202452730Y-85784151D01*
X202605871Y-85672888D01*
X202732533Y-85532216D01*
X202827179Y-85368284D01*
X202885674Y-85188256D01*
X202905460Y-85000000D01*
X202885674Y-84811744D01*
X202827179Y-84631716D01*
X202732533Y-84467784D01*
X202605871Y-84327112D01*
X202605870Y-84327111D01*
X202452734Y-84215851D01*
X202452729Y-84215848D01*
X202279807Y-84138857D01*
X202279802Y-84138855D01*
X202134001Y-84107865D01*
X202094646Y-84099500D01*
X201905354Y-84099500D01*
X201872897Y-84106398D01*
X201720197Y-84138855D01*
X201720192Y-84138857D01*
X201547270Y-84215848D01*
X201547265Y-84215851D01*
X201394129Y-84327111D01*
X201267466Y-84467785D01*
X201172821Y-84631715D01*
X201172818Y-84631722D01*
X201114327Y-84811740D01*
X201114326Y-84811744D01*
X201094540Y-85000000D01*
X199000000Y-85000000D01*
X199000000Y-82000000D01*
X196124000Y-82000000D01*
X196056961Y-81980315D01*
X196011206Y-81927511D01*
X196000000Y-81876000D01*
X196000000Y-81124000D01*
X196019685Y-81056961D01*
X196072489Y-81011206D01*
X196124000Y-81000000D01*
X209250000Y-81000000D01*
X209250000Y-60524500D01*
X209269685Y-60457461D01*
X209322489Y-60411706D01*
X209374000Y-60400500D01*
X225942417Y-60400500D01*
X225995948Y-60400500D01*
X226004028Y-60400764D01*
X226265949Y-60417931D01*
X226282005Y-60420046D01*
X226535426Y-60470454D01*
X226551077Y-60474648D01*
X226795752Y-60557704D01*
X226810729Y-60563907D01*
X226956327Y-60635708D01*
X227042460Y-60678185D01*
X227056506Y-60686295D01*
X227271336Y-60829839D01*
X227284202Y-60839710D01*
X227322728Y-60873497D01*
X227478460Y-61010070D01*
X227489929Y-61021539D01*
X227596307Y-61142840D01*
X227658698Y-61213984D01*
X227660286Y-61215794D01*
X227670160Y-61228663D01*
X227813704Y-61443493D01*
X227821814Y-61457539D01*
X227936091Y-61689269D01*
X227942298Y-61704254D01*
X228025348Y-61948911D01*
X228029546Y-61964579D01*
X228079952Y-62217989D01*
X228082069Y-62234070D01*
X228099234Y-62495941D01*
X228099500Y-62504051D01*
X228099500Y-147495948D01*
X228099234Y-147504058D01*
X228082069Y-147765929D01*
X228079952Y-147782010D01*
X228029546Y-148035420D01*
X228025348Y-148051088D01*
X227942298Y-148295745D01*
X227936091Y-148310730D01*
X227821814Y-148542460D01*
X227813704Y-148556506D01*
X227670160Y-148771336D01*
X227660286Y-148784205D01*
X227489929Y-148978460D01*
X227478460Y-148989929D01*
X227284205Y-149160286D01*
X227271336Y-149170160D01*
X227056506Y-149313704D01*
X227042460Y-149321814D01*
X226810730Y-149436091D01*
X226795745Y-149442298D01*
X226551088Y-149525348D01*
X226535420Y-149529546D01*
X226282010Y-149579952D01*
X226265929Y-149582069D01*
X226004058Y-149599234D01*
X225995948Y-149599500D01*
X71004052Y-149599500D01*
X70995942Y-149599234D01*
X70734070Y-149582069D01*
X70717989Y-149579952D01*
X70464579Y-149529546D01*
X70448911Y-149525348D01*
X70204254Y-149442298D01*
X70189269Y-149436091D01*
X69957539Y-149321814D01*
X69943493Y-149313704D01*
X69728663Y-149170160D01*
X69715794Y-149160286D01*
X69521539Y-148989929D01*
X69510070Y-148978460D01*
X69339713Y-148784205D01*
X69329839Y-148771336D01*
X69186295Y-148556506D01*
X69178185Y-148542460D01*
X69063908Y-148310730D01*
X69057704Y-148295752D01*
X68974648Y-148051077D01*
X68970453Y-148035420D01*
X68920047Y-147782010D01*
X68917931Y-147765949D01*
X68900764Y-147504028D01*
X68900500Y-147495948D01*
X68900500Y-136999998D01*
X71244891Y-136999998D01*
X71244891Y-137000001D01*
X71265300Y-137285362D01*
X71326109Y-137564895D01*
X71426091Y-137832958D01*
X71563191Y-138084038D01*
X71563196Y-138084046D01*
X71669882Y-138226561D01*
X71669883Y-138226562D01*
X72387425Y-137509019D01*
X72473249Y-137637463D01*
X72612537Y-137776751D01*
X72740978Y-137862573D01*
X72023436Y-138580115D01*
X72165960Y-138686807D01*
X72165961Y-138686808D01*
X72417042Y-138823908D01*
X72417041Y-138823908D01*
X72685104Y-138923890D01*
X72964637Y-138984699D01*
X73249999Y-139005109D01*
X73250001Y-139005109D01*
X73535362Y-138984699D01*
X73814895Y-138923890D01*
X74082958Y-138823908D01*
X74334047Y-138686803D01*
X74476561Y-138580116D01*
X74476562Y-138580115D01*
X73759021Y-137862573D01*
X73887463Y-137776751D01*
X74026751Y-137637463D01*
X74112573Y-137509020D01*
X74830115Y-138226562D01*
X74830116Y-138226561D01*
X74936803Y-138084047D01*
X75073908Y-137832958D01*
X75173890Y-137564895D01*
X75234699Y-137285362D01*
X75255109Y-137000001D01*
X75255109Y-136999998D01*
X75994390Y-136999998D01*
X75994390Y-137000001D01*
X76014804Y-137285433D01*
X76075628Y-137565037D01*
X76075630Y-137565043D01*
X76075631Y-137565046D01*
X76154593Y-137776751D01*
X76175635Y-137833166D01*
X76312770Y-138084309D01*
X76312775Y-138084317D01*
X76484254Y-138313387D01*
X76484270Y-138313405D01*
X76686594Y-138515729D01*
X76686612Y-138515745D01*
X76915682Y-138687224D01*
X76915690Y-138687229D01*
X77166833Y-138824364D01*
X77166832Y-138824364D01*
X77166836Y-138824365D01*
X77166839Y-138824367D01*
X77434954Y-138924369D01*
X77434960Y-138924370D01*
X77434962Y-138924371D01*
X77714566Y-138985195D01*
X77714568Y-138985195D01*
X77714572Y-138985196D01*
X77968220Y-139003337D01*
X77999999Y-139005610D01*
X78000000Y-139005610D01*
X78000001Y-139005610D01*
X78028595Y-139003564D01*
X78285428Y-138985196D01*
X78444924Y-138950500D01*
X78565037Y-138924371D01*
X78565037Y-138924370D01*
X78565046Y-138924369D01*
X78833161Y-138824367D01*
X79084315Y-138687226D01*
X79313395Y-138515739D01*
X79515739Y-138313395D01*
X79687226Y-138084315D01*
X79824367Y-137833161D01*
X79924369Y-137565046D01*
X79963353Y-137385837D01*
X128149500Y-137385837D01*
X128149500Y-137614162D01*
X128185215Y-137839660D01*
X128255770Y-138056803D01*
X128342267Y-138226561D01*
X128359421Y-138260228D01*
X128493621Y-138444937D01*
X128655063Y-138606379D01*
X128839772Y-138740579D01*
X128935884Y-138789550D01*
X129043196Y-138844229D01*
X129043198Y-138844229D01*
X129043201Y-138844231D01*
X129159592Y-138882049D01*
X129260339Y-138914784D01*
X129485838Y-138950500D01*
X129485843Y-138950500D01*
X131014162Y-138950500D01*
X131239660Y-138914784D01*
X131456799Y-138844231D01*
X131660228Y-138740579D01*
X131844937Y-138606379D01*
X132006379Y-138444937D01*
X132140579Y-138260228D01*
X132244231Y-138056799D01*
X132314784Y-137839660D01*
X132315813Y-137833161D01*
X132350500Y-137614162D01*
X132350500Y-137385837D01*
X140649500Y-137385837D01*
X140649500Y-137614162D01*
X140685215Y-137839660D01*
X140755770Y-138056803D01*
X140842267Y-138226561D01*
X140859421Y-138260228D01*
X140993621Y-138444937D01*
X141155063Y-138606379D01*
X141339772Y-138740579D01*
X141435884Y-138789550D01*
X141543196Y-138844229D01*
X141543198Y-138844229D01*
X141543201Y-138844231D01*
X141659592Y-138882049D01*
X141760339Y-138914784D01*
X141985838Y-138950500D01*
X141985843Y-138950500D01*
X143514162Y-138950500D01*
X143739660Y-138914784D01*
X143956799Y-138844231D01*
X144160228Y-138740579D01*
X144344937Y-138606379D01*
X144506379Y-138444937D01*
X144640579Y-138260228D01*
X144744231Y-138056799D01*
X144814784Y-137839660D01*
X144815813Y-137833161D01*
X144850500Y-137614162D01*
X144850500Y-137385837D01*
X152149500Y-137385837D01*
X152149500Y-137614162D01*
X152185215Y-137839660D01*
X152255770Y-138056803D01*
X152342267Y-138226561D01*
X152359421Y-138260228D01*
X152493621Y-138444937D01*
X152655063Y-138606379D01*
X152839772Y-138740579D01*
X152935884Y-138789550D01*
X153043196Y-138844229D01*
X153043198Y-138844229D01*
X153043201Y-138844231D01*
X153159592Y-138882049D01*
X153260339Y-138914784D01*
X153485838Y-138950500D01*
X153485843Y-138950500D01*
X155014162Y-138950500D01*
X155239660Y-138914784D01*
X155456799Y-138844231D01*
X155660228Y-138740579D01*
X155844937Y-138606379D01*
X156006379Y-138444937D01*
X156140579Y-138260228D01*
X156244231Y-138056799D01*
X156314784Y-137839660D01*
X156315813Y-137833161D01*
X156350500Y-137614162D01*
X156350500Y-137385837D01*
X164649500Y-137385837D01*
X164649500Y-137614162D01*
X164685215Y-137839660D01*
X164755770Y-138056803D01*
X164842267Y-138226561D01*
X164859421Y-138260228D01*
X164993621Y-138444937D01*
X165155063Y-138606379D01*
X165339772Y-138740579D01*
X165435884Y-138789550D01*
X165543196Y-138844229D01*
X165543198Y-138844229D01*
X165543201Y-138844231D01*
X165659592Y-138882049D01*
X165760339Y-138914784D01*
X165985838Y-138950500D01*
X165985843Y-138950500D01*
X167514162Y-138950500D01*
X167739660Y-138914784D01*
X167956799Y-138844231D01*
X168160228Y-138740579D01*
X168344937Y-138606379D01*
X168506379Y-138444937D01*
X168640579Y-138260228D01*
X168744231Y-138056799D01*
X168814784Y-137839660D01*
X168815813Y-137833161D01*
X168850500Y-137614162D01*
X168850500Y-137385837D01*
X168814784Y-137160339D01*
X168782049Y-137059592D01*
X168744231Y-136943201D01*
X168744229Y-136943198D01*
X168744229Y-136943196D01*
X168640578Y-136739771D01*
X168622270Y-136714572D01*
X168506379Y-136555063D01*
X168344937Y-136393621D01*
X168160228Y-136259421D01*
X167956803Y-136155770D01*
X167739660Y-136085215D01*
X167514162Y-136049500D01*
X167514157Y-136049500D01*
X165985843Y-136049500D01*
X165985838Y-136049500D01*
X165760339Y-136085215D01*
X165543196Y-136155770D01*
X165339771Y-136259421D01*
X165155061Y-136393622D01*
X164993622Y-136555061D01*
X164859421Y-136739771D01*
X164755770Y-136943196D01*
X164685215Y-137160339D01*
X164649500Y-137385837D01*
X156350500Y-137385837D01*
X156314784Y-137160339D01*
X156282049Y-137059592D01*
X156244231Y-136943201D01*
X156244229Y-136943198D01*
X156244229Y-136943196D01*
X156140578Y-136739771D01*
X156122270Y-136714572D01*
X156006379Y-136555063D01*
X155844937Y-136393621D01*
X155660228Y-136259421D01*
X155456803Y-136155770D01*
X155239660Y-136085215D01*
X155014162Y-136049500D01*
X155014157Y-136049500D01*
X153485843Y-136049500D01*
X153485838Y-136049500D01*
X153260339Y-136085215D01*
X153043196Y-136155770D01*
X152839771Y-136259421D01*
X152655061Y-136393622D01*
X152493622Y-136555061D01*
X152359421Y-136739771D01*
X152255770Y-136943196D01*
X152185215Y-137160339D01*
X152149500Y-137385837D01*
X144850500Y-137385837D01*
X144814784Y-137160339D01*
X144782049Y-137059592D01*
X144744231Y-136943201D01*
X144744229Y-136943198D01*
X144744229Y-136943196D01*
X144640578Y-136739771D01*
X144622270Y-136714572D01*
X144506379Y-136555063D01*
X144344937Y-136393621D01*
X144160228Y-136259421D01*
X143956803Y-136155770D01*
X143739660Y-136085215D01*
X143514162Y-136049500D01*
X143514157Y-136049500D01*
X141985843Y-136049500D01*
X141985838Y-136049500D01*
X141760339Y-136085215D01*
X141543196Y-136155770D01*
X141339771Y-136259421D01*
X141155061Y-136393622D01*
X140993622Y-136555061D01*
X140859421Y-136739771D01*
X140755770Y-136943196D01*
X140685215Y-137160339D01*
X140649500Y-137385837D01*
X132350500Y-137385837D01*
X132314784Y-137160339D01*
X132282049Y-137059592D01*
X132244231Y-136943201D01*
X132244229Y-136943198D01*
X132244229Y-136943196D01*
X132140578Y-136739771D01*
X132122270Y-136714572D01*
X132006379Y-136555063D01*
X131844937Y-136393621D01*
X131660228Y-136259421D01*
X131456803Y-136155770D01*
X131239660Y-136085215D01*
X131014162Y-136049500D01*
X131014157Y-136049500D01*
X129485843Y-136049500D01*
X129485838Y-136049500D01*
X129260339Y-136085215D01*
X129043196Y-136155770D01*
X128839771Y-136259421D01*
X128655061Y-136393622D01*
X128493622Y-136555061D01*
X128359421Y-136739771D01*
X128255770Y-136943196D01*
X128185215Y-137160339D01*
X128149500Y-137385837D01*
X79963353Y-137385837D01*
X79985196Y-137285428D01*
X80005610Y-137000000D01*
X79985196Y-136714572D01*
X79924369Y-136434954D01*
X79824367Y-136166839D01*
X79818322Y-136155769D01*
X79687229Y-135915690D01*
X79687224Y-135915682D01*
X79515745Y-135686612D01*
X79515729Y-135686594D01*
X79313405Y-135484270D01*
X79313387Y-135484254D01*
X79084317Y-135312775D01*
X79084309Y-135312770D01*
X78833166Y-135175635D01*
X78833167Y-135175635D01*
X78725915Y-135135632D01*
X78565046Y-135075631D01*
X78565043Y-135075630D01*
X78565037Y-135075628D01*
X78285433Y-135014804D01*
X78000001Y-134994390D01*
X77999999Y-134994390D01*
X77714566Y-135014804D01*
X77434962Y-135075628D01*
X77166833Y-135175635D01*
X76915690Y-135312770D01*
X76915682Y-135312775D01*
X76686612Y-135484254D01*
X76686594Y-135484270D01*
X76484270Y-135686594D01*
X76484254Y-135686612D01*
X76312775Y-135915682D01*
X76312770Y-135915690D01*
X76175635Y-136166833D01*
X76075628Y-136434962D01*
X76014804Y-136714566D01*
X75994390Y-136999998D01*
X75255109Y-136999998D01*
X75234699Y-136714637D01*
X75173890Y-136435104D01*
X75073908Y-136167041D01*
X74936808Y-135915961D01*
X74936807Y-135915960D01*
X74830115Y-135773436D01*
X74112573Y-136490978D01*
X74026751Y-136362537D01*
X73887463Y-136223249D01*
X73759020Y-136137425D01*
X74476562Y-135419883D01*
X74476561Y-135419882D01*
X74334046Y-135313196D01*
X74334038Y-135313191D01*
X74082957Y-135176091D01*
X74082958Y-135176091D01*
X73814895Y-135076109D01*
X73535362Y-135015300D01*
X73250001Y-134994891D01*
X73249999Y-134994891D01*
X72964637Y-135015300D01*
X72685104Y-135076109D01*
X72417041Y-135176091D01*
X72165961Y-135313191D01*
X72165953Y-135313196D01*
X72023437Y-135419882D01*
X72023436Y-135419883D01*
X72740979Y-136137426D01*
X72612537Y-136223249D01*
X72473249Y-136362537D01*
X72387426Y-136490979D01*
X71669883Y-135773436D01*
X71669882Y-135773437D01*
X71563196Y-135915953D01*
X71563191Y-135915961D01*
X71426091Y-136167041D01*
X71326109Y-136435104D01*
X71265300Y-136714637D01*
X71244891Y-136999998D01*
X68900500Y-136999998D01*
X68900500Y-132250000D01*
X128171522Y-132250000D01*
X129649999Y-132250000D01*
X129624979Y-132310402D01*
X129600000Y-132435981D01*
X129600000Y-132564019D01*
X129624979Y-132689598D01*
X129649999Y-132750000D01*
X128171522Y-132750000D01*
X128185704Y-132839544D01*
X128256230Y-133056604D01*
X128359849Y-133259966D01*
X128494004Y-133444614D01*
X128655385Y-133605995D01*
X128840033Y-133740150D01*
X129043395Y-133843769D01*
X129260455Y-133914295D01*
X129485884Y-133950000D01*
X130000000Y-133950000D01*
X130000000Y-133100001D01*
X130060402Y-133125021D01*
X130185981Y-133150000D01*
X130314019Y-133150000D01*
X130439598Y-133125021D01*
X130500000Y-133100001D01*
X130500000Y-133950000D01*
X131014116Y-133950000D01*
X131239544Y-133914295D01*
X131456604Y-133843769D01*
X131659966Y-133740150D01*
X131844614Y-133605995D01*
X132005995Y-133444614D01*
X132140150Y-133259966D01*
X132243769Y-133056604D01*
X132314295Y-132839544D01*
X132328478Y-132750000D01*
X130850001Y-132750000D01*
X130875021Y-132689598D01*
X130900000Y-132564019D01*
X130900000Y-132435981D01*
X130875021Y-132310402D01*
X130850001Y-132250000D01*
X132328478Y-132250000D01*
X140671522Y-132250000D01*
X142149999Y-132250000D01*
X142124979Y-132310402D01*
X142100000Y-132435981D01*
X142100000Y-132564019D01*
X142124979Y-132689598D01*
X142149999Y-132750000D01*
X140671522Y-132750000D01*
X140685704Y-132839544D01*
X140756230Y-133056604D01*
X140859849Y-133259966D01*
X140994004Y-133444614D01*
X141155385Y-133605995D01*
X141340033Y-133740150D01*
X141543395Y-133843769D01*
X141760455Y-133914295D01*
X141985884Y-133950000D01*
X142500000Y-133950000D01*
X142500000Y-133100001D01*
X142560402Y-133125021D01*
X142685981Y-133150000D01*
X142814019Y-133150000D01*
X142939598Y-133125021D01*
X143000000Y-133100001D01*
X143000000Y-133950000D01*
X143514116Y-133950000D01*
X143739544Y-133914295D01*
X143956604Y-133843769D01*
X144159966Y-133740150D01*
X144344614Y-133605995D01*
X144505995Y-133444614D01*
X144640150Y-133259966D01*
X144743769Y-133056604D01*
X144814295Y-132839544D01*
X144828478Y-132750000D01*
X143350001Y-132750000D01*
X143375021Y-132689598D01*
X143400000Y-132564019D01*
X143400000Y-132435981D01*
X143375021Y-132310402D01*
X143350001Y-132250000D01*
X144828478Y-132250000D01*
X152171522Y-132250000D01*
X153649999Y-132250000D01*
X153624979Y-132310402D01*
X153600000Y-132435981D01*
X153600000Y-132564019D01*
X153624979Y-132689598D01*
X153649999Y-132750000D01*
X152171522Y-132750000D01*
X152185704Y-132839544D01*
X152256230Y-133056604D01*
X152359849Y-133259966D01*
X152494004Y-133444614D01*
X152655385Y-133605995D01*
X152840033Y-133740150D01*
X153043395Y-133843769D01*
X153260455Y-133914295D01*
X153485884Y-133950000D01*
X154000000Y-133950000D01*
X154000000Y-133100001D01*
X154060402Y-133125021D01*
X154185981Y-133150000D01*
X154314019Y-133150000D01*
X154439598Y-133125021D01*
X154500000Y-133100001D01*
X154500000Y-133950000D01*
X155014116Y-133950000D01*
X155239544Y-133914295D01*
X155456604Y-133843769D01*
X155659966Y-133740150D01*
X155844614Y-133605995D01*
X156005995Y-133444614D01*
X156140150Y-133259966D01*
X156243769Y-133056604D01*
X156314295Y-132839544D01*
X156328478Y-132750000D01*
X154850001Y-132750000D01*
X154875021Y-132689598D01*
X154900000Y-132564019D01*
X154900000Y-132435981D01*
X154875021Y-132310402D01*
X154850001Y-132250000D01*
X156328478Y-132250000D01*
X164671522Y-132250000D01*
X166149999Y-132250000D01*
X166124979Y-132310402D01*
X166100000Y-132435981D01*
X166100000Y-132564019D01*
X166124979Y-132689598D01*
X166149999Y-132750000D01*
X164671522Y-132750000D01*
X164685704Y-132839544D01*
X164756230Y-133056604D01*
X164859849Y-133259966D01*
X164994004Y-133444614D01*
X165155385Y-133605995D01*
X165340033Y-133740150D01*
X165543395Y-133843769D01*
X165760455Y-133914295D01*
X165985884Y-133950000D01*
X166500000Y-133950000D01*
X166500000Y-133100001D01*
X166560402Y-133125021D01*
X166685981Y-133150000D01*
X166814019Y-133150000D01*
X166939598Y-133125021D01*
X167000000Y-133100001D01*
X167000000Y-133950000D01*
X167514116Y-133950000D01*
X167739544Y-133914295D01*
X167956604Y-133843769D01*
X168159966Y-133740150D01*
X168344614Y-133605995D01*
X168505995Y-133444614D01*
X168640150Y-133259966D01*
X168743769Y-133056604D01*
X168814295Y-132839544D01*
X168828478Y-132750000D01*
X167350001Y-132750000D01*
X167375021Y-132689598D01*
X167400000Y-132564019D01*
X167400000Y-132435981D01*
X167375021Y-132310402D01*
X167350001Y-132250000D01*
X168828478Y-132250000D01*
X168814295Y-132160455D01*
X168743769Y-131943395D01*
X168640150Y-131740033D01*
X168505995Y-131555385D01*
X168344614Y-131394004D01*
X168159966Y-131259849D01*
X167956604Y-131156230D01*
X167739544Y-131085704D01*
X167514116Y-131050000D01*
X167000000Y-131050000D01*
X167000000Y-131899998D01*
X166939598Y-131874979D01*
X166814019Y-131850000D01*
X166685981Y-131850000D01*
X166560402Y-131874979D01*
X166500000Y-131899998D01*
X166500000Y-131050000D01*
X165985884Y-131050000D01*
X165760455Y-131085704D01*
X165543395Y-131156230D01*
X165340033Y-131259849D01*
X165155385Y-131394004D01*
X164994004Y-131555385D01*
X164859849Y-131740033D01*
X164756230Y-131943395D01*
X164685704Y-132160455D01*
X164671522Y-132250000D01*
X156328478Y-132250000D01*
X156314295Y-132160455D01*
X156243769Y-131943395D01*
X156140150Y-131740033D01*
X156005995Y-131555385D01*
X155844614Y-131394004D01*
X155659966Y-131259849D01*
X155456604Y-131156230D01*
X155239544Y-131085704D01*
X155014116Y-131050000D01*
X154500000Y-131050000D01*
X154500000Y-131899998D01*
X154439598Y-131874979D01*
X154314019Y-131850000D01*
X154185981Y-131850000D01*
X154060402Y-131874979D01*
X154000000Y-131899998D01*
X154000000Y-131050000D01*
X153485884Y-131050000D01*
X153260455Y-131085704D01*
X153043395Y-131156230D01*
X152840033Y-131259849D01*
X152655385Y-131394004D01*
X152494004Y-131555385D01*
X152359849Y-131740033D01*
X152256230Y-131943395D01*
X152185704Y-132160455D01*
X152171522Y-132250000D01*
X144828478Y-132250000D01*
X144814295Y-132160455D01*
X144743769Y-131943395D01*
X144640150Y-131740033D01*
X144505995Y-131555385D01*
X144344614Y-131394004D01*
X144159966Y-131259849D01*
X143956604Y-131156230D01*
X143739544Y-131085704D01*
X143514116Y-131050000D01*
X143000000Y-131050000D01*
X143000000Y-131899998D01*
X142939598Y-131874979D01*
X142814019Y-131850000D01*
X142685981Y-131850000D01*
X142560402Y-131874979D01*
X142500000Y-131899998D01*
X142500000Y-131050000D01*
X141985884Y-131050000D01*
X141760455Y-131085704D01*
X141543395Y-131156230D01*
X141340033Y-131259849D01*
X141155385Y-131394004D01*
X140994004Y-131555385D01*
X140859849Y-131740033D01*
X140756230Y-131943395D01*
X140685704Y-132160455D01*
X140671522Y-132250000D01*
X132328478Y-132250000D01*
X132314295Y-132160455D01*
X132243769Y-131943395D01*
X132140150Y-131740033D01*
X132005995Y-131555385D01*
X131844614Y-131394004D01*
X131659966Y-131259849D01*
X131456604Y-131156230D01*
X131239544Y-131085704D01*
X131014116Y-131050000D01*
X130500000Y-131050000D01*
X130500000Y-131899998D01*
X130439598Y-131874979D01*
X130314019Y-131850000D01*
X130185981Y-131850000D01*
X130060402Y-131874979D01*
X130000000Y-131899998D01*
X130000000Y-131050000D01*
X129485884Y-131050000D01*
X129260455Y-131085704D01*
X129043395Y-131156230D01*
X128840033Y-131259849D01*
X128655385Y-131394004D01*
X128494004Y-131555385D01*
X128359849Y-131740033D01*
X128256230Y-131943395D01*
X128185704Y-132160455D01*
X128171522Y-132250000D01*
X68900500Y-132250000D01*
X68900500Y-120385837D01*
X88149500Y-120385837D01*
X88149500Y-120614162D01*
X88185215Y-120839660D01*
X88255770Y-121056803D01*
X88359421Y-121260228D01*
X88493621Y-121444937D01*
X88655063Y-121606379D01*
X88839772Y-121740579D01*
X88935884Y-121789550D01*
X89043196Y-121844229D01*
X89043198Y-121844229D01*
X89043201Y-121844231D01*
X89159592Y-121882049D01*
X89260339Y-121914784D01*
X89485838Y-121950500D01*
X89485843Y-121950500D01*
X91014162Y-121950500D01*
X91239660Y-121914784D01*
X91456799Y-121844231D01*
X91660228Y-121740579D01*
X91844937Y-121606379D01*
X92006379Y-121444937D01*
X92140579Y-121260228D01*
X92244231Y-121056799D01*
X92314784Y-120839660D01*
X92350500Y-120614162D01*
X92350500Y-120385837D01*
X100649500Y-120385837D01*
X100649500Y-120614162D01*
X100685215Y-120839660D01*
X100755770Y-121056803D01*
X100859421Y-121260228D01*
X100993621Y-121444937D01*
X101155063Y-121606379D01*
X101339772Y-121740579D01*
X101435884Y-121789550D01*
X101543196Y-121844229D01*
X101543198Y-121844229D01*
X101543201Y-121844231D01*
X101659592Y-121882049D01*
X101760339Y-121914784D01*
X101985838Y-121950500D01*
X101985843Y-121950500D01*
X103514162Y-121950500D01*
X103739660Y-121914784D01*
X103956799Y-121844231D01*
X104160228Y-121740579D01*
X104344937Y-121606379D01*
X104506379Y-121444937D01*
X104640579Y-121260228D01*
X104744231Y-121056799D01*
X104814784Y-120839660D01*
X104850500Y-120614162D01*
X104850500Y-120385837D01*
X104814784Y-120160339D01*
X104744229Y-119943196D01*
X104640578Y-119739771D01*
X104603150Y-119688256D01*
X104506379Y-119555063D01*
X104451316Y-119500000D01*
X140594540Y-119500000D01*
X140614326Y-119688256D01*
X140614327Y-119688259D01*
X140672818Y-119868277D01*
X140672821Y-119868284D01*
X140767467Y-120032216D01*
X140882830Y-120160339D01*
X140894129Y-120172888D01*
X141047265Y-120284148D01*
X141047270Y-120284151D01*
X141220192Y-120361142D01*
X141220197Y-120361144D01*
X141405354Y-120400500D01*
X141405355Y-120400500D01*
X141594644Y-120400500D01*
X141594646Y-120400500D01*
X141779803Y-120361144D01*
X141952730Y-120284151D01*
X142105871Y-120172888D01*
X142232533Y-120032216D01*
X142327179Y-119868284D01*
X142385674Y-119688256D01*
X142405460Y-119500000D01*
X158094540Y-119500000D01*
X158114326Y-119688256D01*
X158114327Y-119688259D01*
X158172818Y-119868277D01*
X158172821Y-119868284D01*
X158267467Y-120032216D01*
X158382830Y-120160339D01*
X158394129Y-120172888D01*
X158547265Y-120284148D01*
X158547270Y-120284151D01*
X158720192Y-120361142D01*
X158720197Y-120361144D01*
X158905354Y-120400500D01*
X158905355Y-120400500D01*
X159094644Y-120400500D01*
X159094646Y-120400500D01*
X159279803Y-120361144D01*
X159452730Y-120284151D01*
X159605871Y-120172888D01*
X159732533Y-120032216D01*
X159827179Y-119868284D01*
X159885674Y-119688256D01*
X159905460Y-119500000D01*
X159885674Y-119311744D01*
X159827179Y-119131716D01*
X159732533Y-118967784D01*
X159605871Y-118827112D01*
X159605870Y-118827111D01*
X159452734Y-118715851D01*
X159452729Y-118715848D01*
X159279807Y-118638857D01*
X159279802Y-118638855D01*
X159134001Y-118607865D01*
X159094646Y-118599500D01*
X158905354Y-118599500D01*
X158872897Y-118606398D01*
X158720197Y-118638855D01*
X158720192Y-118638857D01*
X158547270Y-118715848D01*
X158547265Y-118715851D01*
X158394129Y-118827111D01*
X158267466Y-118967785D01*
X158172821Y-119131715D01*
X158172818Y-119131722D01*
X158114327Y-119311740D01*
X158114326Y-119311744D01*
X158094540Y-119500000D01*
X142405460Y-119500000D01*
X142385674Y-119311744D01*
X142327179Y-119131716D01*
X142232533Y-118967784D01*
X142105871Y-118827112D01*
X142105870Y-118827111D01*
X141952734Y-118715851D01*
X141952729Y-118715848D01*
X141779807Y-118638857D01*
X141779802Y-118638855D01*
X141634001Y-118607865D01*
X141594646Y-118599500D01*
X141405354Y-118599500D01*
X141372897Y-118606398D01*
X141220197Y-118638855D01*
X141220192Y-118638857D01*
X141047270Y-118715848D01*
X141047265Y-118715851D01*
X140894129Y-118827111D01*
X140767466Y-118967785D01*
X140672821Y-119131715D01*
X140672818Y-119131722D01*
X140614327Y-119311740D01*
X140614326Y-119311744D01*
X140594540Y-119500000D01*
X104451316Y-119500000D01*
X104344937Y-119393621D01*
X104160228Y-119259421D01*
X103956803Y-119155770D01*
X103739660Y-119085215D01*
X103514162Y-119049500D01*
X103514157Y-119049500D01*
X101985843Y-119049500D01*
X101985838Y-119049500D01*
X101760339Y-119085215D01*
X101543196Y-119155770D01*
X101339771Y-119259421D01*
X101155061Y-119393622D01*
X100993622Y-119555061D01*
X100859421Y-119739771D01*
X100755770Y-119943196D01*
X100685215Y-120160339D01*
X100649500Y-120385837D01*
X92350500Y-120385837D01*
X92314784Y-120160339D01*
X92244229Y-119943196D01*
X92140578Y-119739771D01*
X92103150Y-119688256D01*
X92006379Y-119555063D01*
X91844937Y-119393621D01*
X91660228Y-119259421D01*
X91456803Y-119155770D01*
X91239660Y-119085215D01*
X91014162Y-119049500D01*
X91014157Y-119049500D01*
X89485843Y-119049500D01*
X89485838Y-119049500D01*
X89260339Y-119085215D01*
X89043196Y-119155770D01*
X88839771Y-119259421D01*
X88655061Y-119393622D01*
X88493622Y-119555061D01*
X88359421Y-119739771D01*
X88255770Y-119943196D01*
X88185215Y-120160339D01*
X88149500Y-120385837D01*
X68900500Y-120385837D01*
X68900500Y-115250000D01*
X88171522Y-115250000D01*
X89649999Y-115250000D01*
X89624979Y-115310402D01*
X89600000Y-115435981D01*
X89600000Y-115564019D01*
X89624979Y-115689598D01*
X89649999Y-115750000D01*
X88171522Y-115750000D01*
X88185704Y-115839544D01*
X88256230Y-116056604D01*
X88359849Y-116259966D01*
X88494004Y-116444614D01*
X88655385Y-116605995D01*
X88840033Y-116740150D01*
X89043395Y-116843769D01*
X89260455Y-116914295D01*
X89485884Y-116950000D01*
X90000000Y-116950000D01*
X90000000Y-116100001D01*
X90060402Y-116125021D01*
X90185981Y-116150000D01*
X90314019Y-116150000D01*
X90439598Y-116125021D01*
X90500000Y-116100001D01*
X90500000Y-116950000D01*
X91014116Y-116950000D01*
X91239544Y-116914295D01*
X91456604Y-116843769D01*
X91659966Y-116740150D01*
X91844614Y-116605995D01*
X92005995Y-116444614D01*
X92140150Y-116259966D01*
X92243769Y-116056604D01*
X92314295Y-115839544D01*
X92328478Y-115750000D01*
X90850001Y-115750000D01*
X90875021Y-115689598D01*
X90900000Y-115564019D01*
X90900000Y-115435981D01*
X90875021Y-115310402D01*
X90850001Y-115250000D01*
X92328478Y-115250000D01*
X100671522Y-115250000D01*
X102149999Y-115250000D01*
X102124979Y-115310402D01*
X102100000Y-115435981D01*
X102100000Y-115564019D01*
X102124979Y-115689598D01*
X102149999Y-115750000D01*
X100671522Y-115750000D01*
X100685704Y-115839544D01*
X100756230Y-116056604D01*
X100859849Y-116259966D01*
X100994004Y-116444614D01*
X101155385Y-116605995D01*
X101340033Y-116740150D01*
X101543395Y-116843769D01*
X101760455Y-116914295D01*
X101985884Y-116950000D01*
X102500000Y-116950000D01*
X102500000Y-116100001D01*
X102560402Y-116125021D01*
X102685981Y-116150000D01*
X102814019Y-116150000D01*
X102939598Y-116125021D01*
X103000000Y-116100001D01*
X103000000Y-116950000D01*
X103514116Y-116950000D01*
X103739544Y-116914295D01*
X103956604Y-116843769D01*
X104159966Y-116740150D01*
X104344614Y-116605995D01*
X104505995Y-116444614D01*
X104640150Y-116259966D01*
X104743769Y-116056604D01*
X104814295Y-115839544D01*
X104828478Y-115750000D01*
X103350001Y-115750000D01*
X103375021Y-115689598D01*
X103400000Y-115564019D01*
X103400000Y-115435981D01*
X103375021Y-115310402D01*
X103350001Y-115250000D01*
X104828478Y-115250000D01*
X104814295Y-115160455D01*
X104743769Y-114943395D01*
X104640150Y-114740033D01*
X104505995Y-114555385D01*
X104344614Y-114394004D01*
X104159966Y-114259849D01*
X103956604Y-114156230D01*
X103739544Y-114085704D01*
X103514116Y-114050000D01*
X103000000Y-114050000D01*
X103000000Y-114899998D01*
X102939598Y-114874979D01*
X102814019Y-114850000D01*
X102685981Y-114850000D01*
X102560402Y-114874979D01*
X102500000Y-114899998D01*
X102500000Y-114050000D01*
X101985884Y-114050000D01*
X101760455Y-114085704D01*
X101543395Y-114156230D01*
X101340033Y-114259849D01*
X101155385Y-114394004D01*
X100994004Y-114555385D01*
X100859849Y-114740033D01*
X100756230Y-114943395D01*
X100685704Y-115160455D01*
X100671522Y-115250000D01*
X92328478Y-115250000D01*
X92314295Y-115160455D01*
X92243769Y-114943395D01*
X92140150Y-114740033D01*
X92005995Y-114555385D01*
X91844614Y-114394004D01*
X91659966Y-114259849D01*
X91456604Y-114156230D01*
X91239544Y-114085704D01*
X91014116Y-114050000D01*
X90500000Y-114050000D01*
X90500000Y-114899998D01*
X90439598Y-114874979D01*
X90314019Y-114850000D01*
X90185981Y-114850000D01*
X90060402Y-114874979D01*
X90000000Y-114899998D01*
X90000000Y-114050000D01*
X89485884Y-114050000D01*
X89260455Y-114085704D01*
X89043395Y-114156230D01*
X88840033Y-114259849D01*
X88655385Y-114394004D01*
X88494004Y-114555385D01*
X88359849Y-114740033D01*
X88256230Y-114943395D01*
X88185704Y-115160455D01*
X88171522Y-115250000D01*
X68900500Y-115250000D01*
X68900500Y-111500000D01*
X146344540Y-111500000D01*
X146364326Y-111688256D01*
X146364327Y-111688259D01*
X146422818Y-111868277D01*
X146422821Y-111868284D01*
X146517467Y-112032216D01*
X146644129Y-112172888D01*
X146797265Y-112284148D01*
X146797270Y-112284151D01*
X146970192Y-112361142D01*
X146970197Y-112361144D01*
X147155354Y-112400500D01*
X147155355Y-112400500D01*
X147344644Y-112400500D01*
X147344646Y-112400500D01*
X147529803Y-112361144D01*
X147699566Y-112285559D01*
X147768813Y-112276275D01*
X147800430Y-112285557D01*
X147970197Y-112361144D01*
X148155354Y-112400500D01*
X148155355Y-112400500D01*
X148344644Y-112400500D01*
X148344646Y-112400500D01*
X148529803Y-112361144D01*
X148702730Y-112284151D01*
X148855871Y-112172888D01*
X148982533Y-112032216D01*
X149077179Y-111868284D01*
X149135674Y-111688256D01*
X149155460Y-111500000D01*
X149135674Y-111311744D01*
X149077179Y-111131716D01*
X148982533Y-110967784D01*
X148855871Y-110827112D01*
X148855870Y-110827111D01*
X148702734Y-110715851D01*
X148702729Y-110715848D01*
X148529807Y-110638857D01*
X148529802Y-110638855D01*
X148384001Y-110607865D01*
X148344646Y-110599500D01*
X148155354Y-110599500D01*
X148122897Y-110606398D01*
X147970197Y-110638855D01*
X147970192Y-110638857D01*
X147800436Y-110714439D01*
X147731186Y-110723724D01*
X147699564Y-110714439D01*
X147529807Y-110638857D01*
X147529802Y-110638855D01*
X147384001Y-110607865D01*
X147344646Y-110599500D01*
X147155354Y-110599500D01*
X147122897Y-110606398D01*
X146970197Y-110638855D01*
X146970192Y-110638857D01*
X146797270Y-110715848D01*
X146797265Y-110715851D01*
X146644129Y-110827111D01*
X146517466Y-110967785D01*
X146422821Y-111131715D01*
X146422818Y-111131722D01*
X146364327Y-111311740D01*
X146364326Y-111311744D01*
X146344540Y-111500000D01*
X68900500Y-111500000D01*
X68900500Y-107385837D01*
X75149500Y-107385837D01*
X75149500Y-107614162D01*
X75185215Y-107839660D01*
X75255770Y-108056803D01*
X75304333Y-108152112D01*
X75359421Y-108260228D01*
X75493621Y-108444937D01*
X75655063Y-108606379D01*
X75839772Y-108740579D01*
X75935884Y-108789550D01*
X76043196Y-108844229D01*
X76043198Y-108844229D01*
X76043201Y-108844231D01*
X76159592Y-108882049D01*
X76260339Y-108914784D01*
X76485838Y-108950500D01*
X76485843Y-108950500D01*
X78014162Y-108950500D01*
X78239660Y-108914784D01*
X78456799Y-108844231D01*
X78660228Y-108740579D01*
X78844937Y-108606379D01*
X79006379Y-108444937D01*
X79140579Y-108260228D01*
X79244231Y-108056799D01*
X79314784Y-107839660D01*
X79327425Y-107759849D01*
X79350500Y-107614162D01*
X79350500Y-107385837D01*
X87649500Y-107385837D01*
X87649500Y-107614162D01*
X87685215Y-107839660D01*
X87755770Y-108056803D01*
X87804333Y-108152112D01*
X87859421Y-108260228D01*
X87993621Y-108444937D01*
X88155063Y-108606379D01*
X88339772Y-108740579D01*
X88435884Y-108789550D01*
X88543196Y-108844229D01*
X88543198Y-108844229D01*
X88543201Y-108844231D01*
X88659592Y-108882049D01*
X88760339Y-108914784D01*
X88985838Y-108950500D01*
X88985843Y-108950500D01*
X90514162Y-108950500D01*
X90739660Y-108914784D01*
X90956799Y-108844231D01*
X91160228Y-108740579D01*
X91344937Y-108606379D01*
X91506379Y-108444937D01*
X91640579Y-108260228D01*
X91744231Y-108056799D01*
X91814784Y-107839660D01*
X91827425Y-107759849D01*
X91850500Y-107614162D01*
X91850500Y-107385837D01*
X101149500Y-107385837D01*
X101149500Y-107614162D01*
X101185215Y-107839660D01*
X101255770Y-108056803D01*
X101304333Y-108152112D01*
X101359421Y-108260228D01*
X101493621Y-108444937D01*
X101655063Y-108606379D01*
X101839772Y-108740579D01*
X101935884Y-108789550D01*
X102043196Y-108844229D01*
X102043198Y-108844229D01*
X102043201Y-108844231D01*
X102159592Y-108882049D01*
X102260339Y-108914784D01*
X102485838Y-108950500D01*
X102485843Y-108950500D01*
X104014162Y-108950500D01*
X104239660Y-108914784D01*
X104456799Y-108844231D01*
X104660228Y-108740579D01*
X104844937Y-108606379D01*
X105006379Y-108444937D01*
X105140579Y-108260228D01*
X105244231Y-108056799D01*
X105314784Y-107839660D01*
X105327425Y-107759849D01*
X105350500Y-107614162D01*
X105350500Y-107385837D01*
X113649500Y-107385837D01*
X113649500Y-107614162D01*
X113685215Y-107839660D01*
X113755770Y-108056803D01*
X113804333Y-108152112D01*
X113859421Y-108260228D01*
X113993621Y-108444937D01*
X114155063Y-108606379D01*
X114339772Y-108740579D01*
X114435884Y-108789550D01*
X114543196Y-108844229D01*
X114543198Y-108844229D01*
X114543201Y-108844231D01*
X114659592Y-108882049D01*
X114760339Y-108914784D01*
X114985838Y-108950500D01*
X114985843Y-108950500D01*
X116514162Y-108950500D01*
X116739660Y-108914784D01*
X116956799Y-108844231D01*
X116994542Y-108825000D01*
X143769540Y-108825000D01*
X143789326Y-109013256D01*
X143789327Y-109013259D01*
X143847818Y-109193277D01*
X143847821Y-109193284D01*
X143942467Y-109357216D01*
X143993912Y-109414351D01*
X144069129Y-109497888D01*
X144222265Y-109609148D01*
X144222270Y-109609151D01*
X144395192Y-109686142D01*
X144395197Y-109686144D01*
X144580354Y-109725500D01*
X144580355Y-109725500D01*
X144769644Y-109725500D01*
X144769646Y-109725500D01*
X144954803Y-109686144D01*
X145127730Y-109609151D01*
X145280871Y-109497888D01*
X145407533Y-109357216D01*
X145502179Y-109193284D01*
X145560674Y-109013256D01*
X145580460Y-108825000D01*
X145560674Y-108636744D01*
X145502179Y-108456716D01*
X145407533Y-108292784D01*
X145280871Y-108152112D01*
X145280870Y-108152111D01*
X145127734Y-108040851D01*
X145127729Y-108040848D01*
X144954807Y-107963857D01*
X144954802Y-107963855D01*
X144809001Y-107932865D01*
X144769646Y-107924500D01*
X144580354Y-107924500D01*
X144547897Y-107931398D01*
X144395197Y-107963855D01*
X144395192Y-107963857D01*
X144222270Y-108040848D01*
X144222265Y-108040851D01*
X144069129Y-108152111D01*
X143942466Y-108292785D01*
X143847821Y-108456715D01*
X143847818Y-108456722D01*
X143799192Y-108606379D01*
X143789326Y-108636744D01*
X143769540Y-108825000D01*
X116994542Y-108825000D01*
X117160228Y-108740579D01*
X117344937Y-108606379D01*
X117506379Y-108444937D01*
X117640579Y-108260228D01*
X117744231Y-108056799D01*
X117814784Y-107839660D01*
X117827425Y-107759849D01*
X117850500Y-107614162D01*
X117850500Y-107385837D01*
X117814784Y-107160339D01*
X117744229Y-106943196D01*
X117663190Y-106784149D01*
X117640579Y-106739772D01*
X117506379Y-106555063D01*
X117344937Y-106393621D01*
X117160228Y-106259421D01*
X116956803Y-106155770D01*
X116739660Y-106085215D01*
X116514162Y-106049500D01*
X116514157Y-106049500D01*
X114985843Y-106049500D01*
X114985838Y-106049500D01*
X114760339Y-106085215D01*
X114543196Y-106155770D01*
X114339771Y-106259421D01*
X114155061Y-106393622D01*
X113993622Y-106555061D01*
X113859421Y-106739771D01*
X113755770Y-106943196D01*
X113685215Y-107160339D01*
X113649500Y-107385837D01*
X105350500Y-107385837D01*
X105314784Y-107160339D01*
X105244229Y-106943196D01*
X105163190Y-106784149D01*
X105140579Y-106739772D01*
X105006379Y-106555063D01*
X104844937Y-106393621D01*
X104660228Y-106259421D01*
X104456803Y-106155770D01*
X104239660Y-106085215D01*
X104014162Y-106049500D01*
X104014157Y-106049500D01*
X102485843Y-106049500D01*
X102485838Y-106049500D01*
X102260339Y-106085215D01*
X102043196Y-106155770D01*
X101839771Y-106259421D01*
X101655061Y-106393622D01*
X101493622Y-106555061D01*
X101359421Y-106739771D01*
X101255770Y-106943196D01*
X101185215Y-107160339D01*
X101149500Y-107385837D01*
X91850500Y-107385837D01*
X91814784Y-107160339D01*
X91744229Y-106943196D01*
X91663190Y-106784149D01*
X91640579Y-106739772D01*
X91506379Y-106555063D01*
X91344937Y-106393621D01*
X91160228Y-106259421D01*
X90956803Y-106155770D01*
X90739660Y-106085215D01*
X90514162Y-106049500D01*
X90514157Y-106049500D01*
X88985843Y-106049500D01*
X88985838Y-106049500D01*
X88760339Y-106085215D01*
X88543196Y-106155770D01*
X88339771Y-106259421D01*
X88155061Y-106393622D01*
X87993622Y-106555061D01*
X87859421Y-106739771D01*
X87755770Y-106943196D01*
X87685215Y-107160339D01*
X87649500Y-107385837D01*
X79350500Y-107385837D01*
X79314784Y-107160339D01*
X79244229Y-106943196D01*
X79163190Y-106784149D01*
X79140579Y-106739772D01*
X79006379Y-106555063D01*
X78844937Y-106393621D01*
X78660228Y-106259421D01*
X78456803Y-106155770D01*
X78239660Y-106085215D01*
X78014162Y-106049500D01*
X78014157Y-106049500D01*
X76485843Y-106049500D01*
X76485838Y-106049500D01*
X76260339Y-106085215D01*
X76043196Y-106155770D01*
X75839771Y-106259421D01*
X75655061Y-106393622D01*
X75493622Y-106555061D01*
X75359421Y-106739771D01*
X75255770Y-106943196D01*
X75185215Y-107160339D01*
X75149500Y-107385837D01*
X68900500Y-107385837D01*
X68900500Y-104500000D01*
X143594540Y-104500000D01*
X143614326Y-104688256D01*
X143614327Y-104688259D01*
X143672818Y-104868277D01*
X143672821Y-104868284D01*
X143767467Y-105032216D01*
X143863487Y-105138857D01*
X143894129Y-105172888D01*
X144047265Y-105284148D01*
X144047270Y-105284151D01*
X144220192Y-105361142D01*
X144220197Y-105361144D01*
X144405354Y-105400500D01*
X144464548Y-105400500D01*
X144531587Y-105420185D01*
X144552229Y-105436819D01*
X148011016Y-108895606D01*
X148011045Y-108895637D01*
X148101263Y-108985855D01*
X148101267Y-108985858D01*
X148203707Y-109054307D01*
X148203713Y-109054310D01*
X148203714Y-109054311D01*
X148317548Y-109101463D01*
X148377971Y-109113481D01*
X148438393Y-109125500D01*
X148438394Y-109125500D01*
X161039548Y-109125500D01*
X161106587Y-109145185D01*
X161127229Y-109161819D01*
X192133070Y-140167660D01*
X192166555Y-140228983D01*
X192161571Y-140298675D01*
X192119699Y-140354608D01*
X192054235Y-140379025D01*
X192045389Y-140379341D01*
X192044999Y-140379341D01*
X191809596Y-140399936D01*
X191809586Y-140399938D01*
X191581344Y-140461094D01*
X191581335Y-140461098D01*
X191367171Y-140560964D01*
X191367169Y-140560965D01*
X191173597Y-140696505D01*
X191006505Y-140863597D01*
X190876575Y-141049158D01*
X190821998Y-141092783D01*
X190752500Y-141099977D01*
X190690145Y-141068454D01*
X190673425Y-141049158D01*
X190543494Y-140863597D01*
X190376402Y-140696506D01*
X190376395Y-140696501D01*
X190182834Y-140560967D01*
X190182830Y-140560965D01*
X190182828Y-140560964D01*
X189968663Y-140461097D01*
X189968659Y-140461096D01*
X189968655Y-140461094D01*
X189740413Y-140399938D01*
X189740403Y-140399936D01*
X189505001Y-140379341D01*
X189504999Y-140379341D01*
X189269596Y-140399936D01*
X189269586Y-140399938D01*
X189041344Y-140461094D01*
X189041335Y-140461098D01*
X188827171Y-140560964D01*
X188827169Y-140560965D01*
X188633597Y-140696505D01*
X188466505Y-140863597D01*
X188336575Y-141049158D01*
X188281998Y-141092783D01*
X188212500Y-141099977D01*
X188150145Y-141068454D01*
X188133425Y-141049158D01*
X188003494Y-140863597D01*
X187836402Y-140696506D01*
X187836395Y-140696501D01*
X187642834Y-140560967D01*
X187642830Y-140560965D01*
X187642828Y-140560964D01*
X187428663Y-140461097D01*
X187428659Y-140461096D01*
X187428655Y-140461094D01*
X187200413Y-140399938D01*
X187200403Y-140399936D01*
X186965001Y-140379341D01*
X186964999Y-140379341D01*
X186729596Y-140399936D01*
X186729586Y-140399938D01*
X186501344Y-140461094D01*
X186501335Y-140461098D01*
X186287171Y-140560964D01*
X186287169Y-140560965D01*
X186093597Y-140696505D01*
X185926505Y-140863597D01*
X185796575Y-141049158D01*
X185741998Y-141092783D01*
X185672500Y-141099977D01*
X185610145Y-141068454D01*
X185593425Y-141049158D01*
X185463494Y-140863597D01*
X185296402Y-140696506D01*
X185296395Y-140696501D01*
X185102834Y-140560967D01*
X185102830Y-140560965D01*
X185102828Y-140560964D01*
X184888663Y-140461097D01*
X184888659Y-140461096D01*
X184888655Y-140461094D01*
X184660413Y-140399938D01*
X184660403Y-140399936D01*
X184425001Y-140379341D01*
X184424999Y-140379341D01*
X184189596Y-140399936D01*
X184189586Y-140399938D01*
X183961344Y-140461094D01*
X183961335Y-140461098D01*
X183747171Y-140560964D01*
X183747169Y-140560965D01*
X183553597Y-140696505D01*
X183386505Y-140863597D01*
X183250965Y-141057169D01*
X183250964Y-141057171D01*
X183151098Y-141271335D01*
X183151094Y-141271344D01*
X183089938Y-141499586D01*
X183089936Y-141499596D01*
X183069341Y-141734999D01*
X183069341Y-141735000D01*
X183089936Y-141970403D01*
X183089938Y-141970413D01*
X183151094Y-142198655D01*
X183151096Y-142198659D01*
X183151097Y-142198663D01*
X183155000Y-142207032D01*
X183250965Y-142412830D01*
X183250967Y-142412834D01*
X183359281Y-142567521D01*
X183386501Y-142606396D01*
X183386506Y-142606402D01*
X183508818Y-142728714D01*
X183542303Y-142790037D01*
X183537319Y-142859729D01*
X183495447Y-142915662D01*
X183464471Y-142932577D01*
X183332912Y-142981646D01*
X183332906Y-142981649D01*
X183217812Y-143067809D01*
X183217809Y-143067812D01*
X183131649Y-143182906D01*
X183131645Y-143182913D01*
X183081403Y-143317620D01*
X183081401Y-143317627D01*
X183075000Y-143377155D01*
X183075000Y-144025000D01*
X183991988Y-144025000D01*
X183959075Y-144082007D01*
X183925000Y-144209174D01*
X183925000Y-144340826D01*
X183959075Y-144467993D01*
X183991988Y-144525000D01*
X183075000Y-144525000D01*
X183075000Y-145172844D01*
X183081401Y-145232372D01*
X183081403Y-145232379D01*
X183131645Y-145367086D01*
X183131649Y-145367093D01*
X183217809Y-145482187D01*
X183217812Y-145482190D01*
X183332906Y-145568350D01*
X183332913Y-145568354D01*
X183467620Y-145618596D01*
X183467627Y-145618598D01*
X183527155Y-145624999D01*
X183527172Y-145625000D01*
X184175000Y-145625000D01*
X184175000Y-144708012D01*
X184232007Y-144740925D01*
X184359174Y-144775000D01*
X184490826Y-144775000D01*
X184617993Y-144740925D01*
X184675000Y-144708012D01*
X184675000Y-145625000D01*
X185322828Y-145625000D01*
X185322844Y-145624999D01*
X185382372Y-145618598D01*
X185382379Y-145618596D01*
X185517086Y-145568354D01*
X185517093Y-145568350D01*
X185632187Y-145482190D01*
X185632190Y-145482187D01*
X185718350Y-145367093D01*
X185718354Y-145367086D01*
X185767422Y-145235529D01*
X185809293Y-145179595D01*
X185874757Y-145155178D01*
X185943030Y-145170030D01*
X185971285Y-145191181D01*
X186093599Y-145313495D01*
X186170135Y-145367086D01*
X186287165Y-145449032D01*
X186287167Y-145449033D01*
X186287170Y-145449035D01*
X186501337Y-145548903D01*
X186729592Y-145610063D01*
X186900319Y-145625000D01*
X186964999Y-145630659D01*
X186965000Y-145630659D01*
X186965001Y-145630659D01*
X187029681Y-145625000D01*
X187200408Y-145610063D01*
X187428663Y-145548903D01*
X187642830Y-145449035D01*
X187836401Y-145313495D01*
X188003495Y-145146401D01*
X188133425Y-144960842D01*
X188188002Y-144917217D01*
X188257500Y-144910023D01*
X188319855Y-144941546D01*
X188336575Y-144960842D01*
X188466500Y-145146395D01*
X188466505Y-145146401D01*
X188633599Y-145313495D01*
X188710135Y-145367086D01*
X188827165Y-145449032D01*
X188827167Y-145449033D01*
X188827170Y-145449035D01*
X189041337Y-145548903D01*
X189269592Y-145610063D01*
X189440319Y-145625000D01*
X189504999Y-145630659D01*
X189505000Y-145630659D01*
X189505001Y-145630659D01*
X189569681Y-145625000D01*
X189740408Y-145610063D01*
X189968663Y-145548903D01*
X190182830Y-145449035D01*
X190376401Y-145313495D01*
X190543495Y-145146401D01*
X190673425Y-144960842D01*
X190728002Y-144917217D01*
X190797500Y-144910023D01*
X190859855Y-144941546D01*
X190876575Y-144960842D01*
X191006500Y-145146395D01*
X191006505Y-145146401D01*
X191173599Y-145313495D01*
X191250135Y-145367086D01*
X191367165Y-145449032D01*
X191367167Y-145449033D01*
X191367170Y-145449035D01*
X191581337Y-145548903D01*
X191809592Y-145610063D01*
X191980319Y-145625000D01*
X192044999Y-145630659D01*
X192045000Y-145630659D01*
X192045001Y-145630659D01*
X192109681Y-145625000D01*
X192280408Y-145610063D01*
X192508663Y-145548903D01*
X192722830Y-145449035D01*
X192916401Y-145313495D01*
X193083495Y-145146401D01*
X193213425Y-144960842D01*
X193268002Y-144917217D01*
X193337500Y-144910023D01*
X193399855Y-144941546D01*
X193416575Y-144960842D01*
X193546500Y-145146395D01*
X193546505Y-145146401D01*
X193713599Y-145313495D01*
X193790135Y-145367086D01*
X193907165Y-145449032D01*
X193907167Y-145449033D01*
X193907170Y-145449035D01*
X194121337Y-145548903D01*
X194349592Y-145610063D01*
X194520319Y-145625000D01*
X194584999Y-145630659D01*
X194585000Y-145630659D01*
X194585001Y-145630659D01*
X194649681Y-145625000D01*
X194820408Y-145610063D01*
X195048663Y-145548903D01*
X195262830Y-145449035D01*
X195456401Y-145313495D01*
X195623495Y-145146401D01*
X195759035Y-144952830D01*
X195858903Y-144738663D01*
X195920063Y-144510408D01*
X195940659Y-144275000D01*
X195920063Y-144039592D01*
X195858903Y-143811337D01*
X195759035Y-143597171D01*
X195753425Y-143589158D01*
X195623494Y-143403597D01*
X195456402Y-143236506D01*
X195456396Y-143236501D01*
X195270842Y-143106575D01*
X195227217Y-143051998D01*
X195220023Y-142982500D01*
X195251546Y-142920145D01*
X195270842Y-142903425D01*
X195382500Y-142825241D01*
X195456401Y-142773495D01*
X195623495Y-142606401D01*
X195759035Y-142412830D01*
X195858903Y-142198663D01*
X195920063Y-141970408D01*
X195940659Y-141735000D01*
X195920063Y-141499592D01*
X195858903Y-141271337D01*
X195759035Y-141057171D01*
X195753425Y-141049158D01*
X195623494Y-140863597D01*
X195456402Y-140696506D01*
X195456395Y-140696501D01*
X195262834Y-140560967D01*
X195262830Y-140560965D01*
X195262828Y-140560964D01*
X195048663Y-140461097D01*
X195048659Y-140461096D01*
X195048655Y-140461094D01*
X194820413Y-140399938D01*
X194820403Y-140399936D01*
X194585001Y-140379341D01*
X194584999Y-140379341D01*
X194349596Y-140399936D01*
X194349586Y-140399938D01*
X194249126Y-140426856D01*
X194179276Y-140425193D01*
X194129352Y-140394762D01*
X167620427Y-113885837D01*
X187149500Y-113885837D01*
X187149500Y-114114162D01*
X187185215Y-114339660D01*
X187255770Y-114556803D01*
X187349131Y-114740033D01*
X187359421Y-114760228D01*
X187493621Y-114944937D01*
X187655063Y-115106379D01*
X187839772Y-115240579D01*
X187935884Y-115289550D01*
X188043196Y-115344229D01*
X188043198Y-115344229D01*
X188043201Y-115344231D01*
X188159592Y-115382049D01*
X188260339Y-115414784D01*
X188485838Y-115450500D01*
X188485843Y-115450500D01*
X190014162Y-115450500D01*
X190239660Y-115414784D01*
X190456799Y-115344231D01*
X190660228Y-115240579D01*
X190844937Y-115106379D01*
X191006379Y-114944937D01*
X191140579Y-114760228D01*
X191244231Y-114556799D01*
X191314784Y-114339660D01*
X191327425Y-114259849D01*
X191350500Y-114114162D01*
X191350500Y-113885837D01*
X199649500Y-113885837D01*
X199649500Y-114114162D01*
X199685215Y-114339660D01*
X199755770Y-114556803D01*
X199849131Y-114740033D01*
X199859421Y-114760228D01*
X199993621Y-114944937D01*
X200155063Y-115106379D01*
X200339772Y-115240579D01*
X200435884Y-115289550D01*
X200543196Y-115344229D01*
X200543198Y-115344229D01*
X200543201Y-115344231D01*
X200659592Y-115382049D01*
X200760339Y-115414784D01*
X200985838Y-115450500D01*
X200985843Y-115450500D01*
X202514162Y-115450500D01*
X202739660Y-115414784D01*
X202956799Y-115344231D01*
X203160228Y-115240579D01*
X203344937Y-115106379D01*
X203506379Y-114944937D01*
X203640579Y-114760228D01*
X203744231Y-114556799D01*
X203814784Y-114339660D01*
X203827425Y-114259849D01*
X203850500Y-114114162D01*
X203850500Y-113885837D01*
X203814784Y-113660339D01*
X203744229Y-113443196D01*
X203640578Y-113239771D01*
X203506379Y-113055063D01*
X203344937Y-112893621D01*
X203160228Y-112759421D01*
X202956803Y-112655770D01*
X202739660Y-112585215D01*
X202514162Y-112549500D01*
X202514157Y-112549500D01*
X200985843Y-112549500D01*
X200985838Y-112549500D01*
X200760339Y-112585215D01*
X200543196Y-112655770D01*
X200339771Y-112759421D01*
X200155061Y-112893622D01*
X199993622Y-113055061D01*
X199859421Y-113239771D01*
X199755770Y-113443196D01*
X199685215Y-113660339D01*
X199649500Y-113885837D01*
X191350500Y-113885837D01*
X191314784Y-113660339D01*
X191244229Y-113443196D01*
X191140578Y-113239771D01*
X191006379Y-113055063D01*
X190844937Y-112893621D01*
X190660228Y-112759421D01*
X190456803Y-112655770D01*
X190239660Y-112585215D01*
X190014162Y-112549500D01*
X190014157Y-112549500D01*
X188485843Y-112549500D01*
X188485838Y-112549500D01*
X188260339Y-112585215D01*
X188043196Y-112655770D01*
X187839771Y-112759421D01*
X187655061Y-112893622D01*
X187493622Y-113055061D01*
X187359421Y-113239771D01*
X187255770Y-113443196D01*
X187185215Y-113660339D01*
X187149500Y-113885837D01*
X167620427Y-113885837D01*
X162484590Y-108750000D01*
X187171522Y-108750000D01*
X188649999Y-108750000D01*
X188624979Y-108810402D01*
X188600000Y-108935981D01*
X188600000Y-109064019D01*
X188624979Y-109189598D01*
X188649999Y-109250000D01*
X187171522Y-109250000D01*
X187185704Y-109339544D01*
X187256230Y-109556604D01*
X187359849Y-109759966D01*
X187494004Y-109944614D01*
X187655385Y-110105995D01*
X187840033Y-110240150D01*
X188043395Y-110343769D01*
X188260455Y-110414295D01*
X188485884Y-110450000D01*
X189000000Y-110450000D01*
X189000000Y-109600001D01*
X189060402Y-109625021D01*
X189185981Y-109650000D01*
X189314019Y-109650000D01*
X189439598Y-109625021D01*
X189500000Y-109600001D01*
X189500000Y-110450000D01*
X190014116Y-110450000D01*
X190239544Y-110414295D01*
X190456604Y-110343769D01*
X190659966Y-110240150D01*
X190844614Y-110105995D01*
X191005995Y-109944614D01*
X191140150Y-109759966D01*
X191243769Y-109556604D01*
X191314295Y-109339544D01*
X191328478Y-109250000D01*
X189850001Y-109250000D01*
X189875021Y-109189598D01*
X189900000Y-109064019D01*
X189900000Y-108935981D01*
X189875021Y-108810402D01*
X189850001Y-108750000D01*
X191328478Y-108750000D01*
X199671522Y-108750000D01*
X201149999Y-108750000D01*
X201124979Y-108810402D01*
X201100000Y-108935981D01*
X201100000Y-109064019D01*
X201124979Y-109189598D01*
X201149999Y-109250000D01*
X199671522Y-109250000D01*
X199685704Y-109339544D01*
X199756230Y-109556604D01*
X199859849Y-109759966D01*
X199994004Y-109944614D01*
X200155385Y-110105995D01*
X200340033Y-110240150D01*
X200543395Y-110343769D01*
X200760455Y-110414295D01*
X200985884Y-110450000D01*
X201500000Y-110450000D01*
X201500000Y-109600001D01*
X201560402Y-109625021D01*
X201685981Y-109650000D01*
X201814019Y-109650000D01*
X201939598Y-109625021D01*
X202000000Y-109600001D01*
X202000000Y-110450000D01*
X202514116Y-110450000D01*
X202739544Y-110414295D01*
X202956604Y-110343769D01*
X203159966Y-110240150D01*
X203344614Y-110105995D01*
X203505995Y-109944614D01*
X203640150Y-109759966D01*
X203743769Y-109556604D01*
X203814295Y-109339544D01*
X203828478Y-109250000D01*
X202350001Y-109250000D01*
X202375021Y-109189598D01*
X202400000Y-109064019D01*
X202400000Y-108935981D01*
X202375021Y-108810402D01*
X202350001Y-108750000D01*
X203828478Y-108750000D01*
X203814295Y-108660455D01*
X203743769Y-108443395D01*
X203640150Y-108240033D01*
X203505995Y-108055385D01*
X203344614Y-107894004D01*
X203159966Y-107759849D01*
X202956604Y-107656230D01*
X202739544Y-107585704D01*
X202514116Y-107550000D01*
X202000000Y-107550000D01*
X202000000Y-108399998D01*
X201939598Y-108374979D01*
X201814019Y-108350000D01*
X201685981Y-108350000D01*
X201560402Y-108374979D01*
X201500000Y-108399998D01*
X201500000Y-107550000D01*
X200985884Y-107550000D01*
X200760455Y-107585704D01*
X200543395Y-107656230D01*
X200340033Y-107759849D01*
X200155385Y-107894004D01*
X199994004Y-108055385D01*
X199859849Y-108240033D01*
X199756230Y-108443395D01*
X199685704Y-108660455D01*
X199671522Y-108750000D01*
X191328478Y-108750000D01*
X191314295Y-108660455D01*
X191243769Y-108443395D01*
X191140150Y-108240033D01*
X191005995Y-108055385D01*
X190844614Y-107894004D01*
X190659966Y-107759849D01*
X190456604Y-107656230D01*
X190239544Y-107585704D01*
X190014116Y-107550000D01*
X189500000Y-107550000D01*
X189500000Y-108399998D01*
X189439598Y-108374979D01*
X189314019Y-108350000D01*
X189185981Y-108350000D01*
X189060402Y-108374979D01*
X189000000Y-108399998D01*
X189000000Y-107550000D01*
X188485884Y-107550000D01*
X188260455Y-107585704D01*
X188043395Y-107656230D01*
X187840033Y-107759849D01*
X187655385Y-107894004D01*
X187494004Y-108055385D01*
X187359849Y-108240033D01*
X187256230Y-108443395D01*
X187185704Y-108660455D01*
X187171522Y-108750000D01*
X162484590Y-108750000D01*
X161840198Y-108105608D01*
X161840178Y-108105586D01*
X161748736Y-108014144D01*
X161748728Y-108014138D01*
X161673477Y-107963857D01*
X161673475Y-107963855D01*
X161673475Y-107963856D01*
X161646285Y-107945687D01*
X161606039Y-107929017D01*
X161565792Y-107912347D01*
X161532453Y-107898537D01*
X161522427Y-107896543D01*
X161472029Y-107886518D01*
X161411610Y-107874500D01*
X161411607Y-107874500D01*
X161411606Y-107874500D01*
X148810452Y-107874500D01*
X148743413Y-107854815D01*
X148722771Y-107838181D01*
X147883805Y-106999215D01*
X147850320Y-106937892D01*
X147855304Y-106868200D01*
X147897176Y-106812267D01*
X147921044Y-106798258D01*
X147952730Y-106784151D01*
X148105871Y-106672888D01*
X148232533Y-106532216D01*
X148327179Y-106368284D01*
X148382069Y-106199351D01*
X148421506Y-106141675D01*
X148485865Y-106114477D01*
X148554711Y-106126392D01*
X148606187Y-106173636D01*
X148617931Y-106199351D01*
X148672818Y-106368277D01*
X148672821Y-106368284D01*
X148767467Y-106532216D01*
X148873971Y-106650500D01*
X148894129Y-106672888D01*
X149047265Y-106784148D01*
X149047270Y-106784151D01*
X149220192Y-106861142D01*
X149220197Y-106861144D01*
X149405354Y-106900500D01*
X149405355Y-106900500D01*
X149594644Y-106900500D01*
X149594646Y-106900500D01*
X149779803Y-106861144D01*
X149952730Y-106784151D01*
X150105871Y-106672888D01*
X150232533Y-106532216D01*
X150327179Y-106368284D01*
X150385674Y-106188256D01*
X150405460Y-106000000D01*
X150385674Y-105811744D01*
X150365612Y-105750000D01*
X152594540Y-105750000D01*
X152614326Y-105938256D01*
X152614327Y-105938259D01*
X152672818Y-106118277D01*
X152672821Y-106118284D01*
X152767467Y-106282216D01*
X152867777Y-106393621D01*
X152894129Y-106422888D01*
X153047265Y-106534148D01*
X153047270Y-106534151D01*
X153220192Y-106611142D01*
X153220197Y-106611144D01*
X153405354Y-106650500D01*
X153405355Y-106650500D01*
X153594644Y-106650500D01*
X153594646Y-106650500D01*
X153779803Y-106611144D01*
X153952730Y-106534151D01*
X154105871Y-106422888D01*
X154232533Y-106282216D01*
X154327179Y-106118284D01*
X154385674Y-105938256D01*
X154405460Y-105750000D01*
X154385674Y-105561744D01*
X154366739Y-105503471D01*
X154364745Y-105433633D01*
X154392520Y-105382184D01*
X154482533Y-105282216D01*
X154577179Y-105118284D01*
X154635674Y-104938256D01*
X154655460Y-104750000D01*
X154635674Y-104561744D01*
X154577179Y-104381716D01*
X154482533Y-104217784D01*
X154355871Y-104077112D01*
X154355870Y-104077111D01*
X154202734Y-103965851D01*
X154202729Y-103965848D01*
X154029807Y-103888857D01*
X154029802Y-103888855D01*
X153884001Y-103857865D01*
X153844646Y-103849500D01*
X153655354Y-103849500D01*
X153622897Y-103856398D01*
X153470197Y-103888855D01*
X153470192Y-103888857D01*
X153297270Y-103965848D01*
X153297265Y-103965851D01*
X153144129Y-104077111D01*
X153017466Y-104217785D01*
X152922821Y-104381715D01*
X152922818Y-104381722D01*
X152873921Y-104532214D01*
X152864326Y-104561744D01*
X152851029Y-104688259D01*
X152844540Y-104750000D01*
X152864326Y-104938256D01*
X152864328Y-104938262D01*
X152883259Y-104996527D01*
X152885254Y-105066368D01*
X152857478Y-105117816D01*
X152767466Y-105217784D01*
X152672821Y-105381715D01*
X152672818Y-105381722D01*
X152644855Y-105467785D01*
X152614326Y-105561744D01*
X152594540Y-105750000D01*
X150365612Y-105750000D01*
X150327179Y-105631716D01*
X150232533Y-105467784D01*
X150105871Y-105327112D01*
X150105870Y-105327111D01*
X149952734Y-105215851D01*
X149952729Y-105215848D01*
X149779807Y-105138857D01*
X149779800Y-105138855D01*
X149697161Y-105121290D01*
X149635679Y-105088098D01*
X149601902Y-105026935D01*
X149606554Y-104957221D01*
X149648158Y-104901088D01*
X149697161Y-104878710D01*
X149703201Y-104877426D01*
X149779803Y-104861144D01*
X149952730Y-104784151D01*
X150105871Y-104672888D01*
X150232533Y-104532216D01*
X150327179Y-104368284D01*
X150385674Y-104188256D01*
X150405460Y-104000000D01*
X150385674Y-103811744D01*
X150327179Y-103631716D01*
X150232533Y-103467784D01*
X150105871Y-103327112D01*
X150105870Y-103327111D01*
X149952734Y-103215851D01*
X149952729Y-103215848D01*
X149779807Y-103138857D01*
X149779802Y-103138855D01*
X149634001Y-103107865D01*
X149594646Y-103099500D01*
X149405354Y-103099500D01*
X149372897Y-103106398D01*
X149220197Y-103138855D01*
X149220192Y-103138857D01*
X149047270Y-103215848D01*
X149047265Y-103215851D01*
X148894129Y-103327111D01*
X148767466Y-103467785D01*
X148672821Y-103631715D01*
X148672818Y-103631722D01*
X148617931Y-103800648D01*
X148578493Y-103858324D01*
X148514135Y-103885522D01*
X148445288Y-103873607D01*
X148393813Y-103826363D01*
X148382069Y-103800648D01*
X148327181Y-103631722D01*
X148327180Y-103631721D01*
X148327179Y-103631716D01*
X148232533Y-103467784D01*
X148105871Y-103327112D01*
X148105870Y-103327111D01*
X147952734Y-103215851D01*
X147952729Y-103215848D01*
X147779807Y-103138857D01*
X147779802Y-103138855D01*
X147634001Y-103107865D01*
X147594646Y-103099500D01*
X147405354Y-103099500D01*
X147372897Y-103106398D01*
X147220197Y-103138855D01*
X147220192Y-103138857D01*
X147047270Y-103215848D01*
X147047265Y-103215851D01*
X146894129Y-103327111D01*
X146767466Y-103467785D01*
X146672821Y-103631715D01*
X146672818Y-103631722D01*
X146637588Y-103740150D01*
X146614326Y-103811744D01*
X146594540Y-104000000D01*
X146614326Y-104188256D01*
X146614327Y-104188259D01*
X146672818Y-104368277D01*
X146672821Y-104368284D01*
X146767467Y-104532216D01*
X146894129Y-104672888D01*
X147047265Y-104784148D01*
X147047270Y-104784151D01*
X147220192Y-104861142D01*
X147220197Y-104861144D01*
X147302839Y-104878710D01*
X147364321Y-104911902D01*
X147398097Y-104973065D01*
X147393445Y-105042780D01*
X147351840Y-105098912D01*
X147302839Y-105121290D01*
X147220197Y-105138855D01*
X147220192Y-105138857D01*
X147047270Y-105215848D01*
X147047265Y-105215851D01*
X146894129Y-105327111D01*
X146767465Y-105467785D01*
X146696332Y-105590993D01*
X146645765Y-105639209D01*
X146577158Y-105652432D01*
X146512293Y-105626464D01*
X146501264Y-105616674D01*
X145438960Y-104554370D01*
X145405475Y-104493047D01*
X145403323Y-104479671D01*
X145385674Y-104311744D01*
X145327179Y-104131716D01*
X145232533Y-103967784D01*
X145105871Y-103827112D01*
X145084719Y-103811744D01*
X144952734Y-103715851D01*
X144952729Y-103715848D01*
X144779807Y-103638857D01*
X144779802Y-103638855D01*
X144625203Y-103605995D01*
X144594646Y-103599500D01*
X144405354Y-103599500D01*
X144374797Y-103605995D01*
X144220197Y-103638855D01*
X144220192Y-103638857D01*
X144047270Y-103715848D01*
X144047265Y-103715851D01*
X143894129Y-103827111D01*
X143767466Y-103967785D01*
X143672821Y-104131715D01*
X143672818Y-104131722D01*
X143644855Y-104217785D01*
X143614326Y-104311744D01*
X143594540Y-104500000D01*
X68900500Y-104500000D01*
X68900500Y-102250000D01*
X75171522Y-102250000D01*
X76649999Y-102250000D01*
X76624979Y-102310402D01*
X76600000Y-102435981D01*
X76600000Y-102564019D01*
X76624979Y-102689598D01*
X76649999Y-102750000D01*
X75171522Y-102750000D01*
X75185704Y-102839544D01*
X75256230Y-103056604D01*
X75359849Y-103259966D01*
X75494004Y-103444614D01*
X75655385Y-103605995D01*
X75840033Y-103740150D01*
X76043395Y-103843769D01*
X76260455Y-103914295D01*
X76485884Y-103950000D01*
X77000000Y-103950000D01*
X77000000Y-103100001D01*
X77060402Y-103125021D01*
X77185981Y-103150000D01*
X77314019Y-103150000D01*
X77439598Y-103125021D01*
X77500000Y-103100001D01*
X77500000Y-103950000D01*
X78014116Y-103950000D01*
X78239544Y-103914295D01*
X78456604Y-103843769D01*
X78659966Y-103740150D01*
X78844614Y-103605995D01*
X79005995Y-103444614D01*
X79140150Y-103259966D01*
X79243769Y-103056604D01*
X79314295Y-102839544D01*
X79328478Y-102750000D01*
X77850001Y-102750000D01*
X77875021Y-102689598D01*
X77900000Y-102564019D01*
X77900000Y-102435981D01*
X77875021Y-102310402D01*
X77850001Y-102250000D01*
X79328478Y-102250000D01*
X87671522Y-102250000D01*
X89149999Y-102250000D01*
X89124979Y-102310402D01*
X89100000Y-102435981D01*
X89100000Y-102564019D01*
X89124979Y-102689598D01*
X89149999Y-102750000D01*
X87671522Y-102750000D01*
X87685704Y-102839544D01*
X87756230Y-103056604D01*
X87859849Y-103259966D01*
X87994004Y-103444614D01*
X88155385Y-103605995D01*
X88340033Y-103740150D01*
X88543395Y-103843769D01*
X88760455Y-103914295D01*
X88985884Y-103950000D01*
X89500000Y-103950000D01*
X89500000Y-103100001D01*
X89560402Y-103125021D01*
X89685981Y-103150000D01*
X89814019Y-103150000D01*
X89939598Y-103125021D01*
X90000000Y-103100001D01*
X90000000Y-103950000D01*
X90514116Y-103950000D01*
X90739544Y-103914295D01*
X90956604Y-103843769D01*
X91159966Y-103740150D01*
X91344614Y-103605995D01*
X91505995Y-103444614D01*
X91640150Y-103259966D01*
X91743769Y-103056604D01*
X91814295Y-102839544D01*
X91828478Y-102750000D01*
X90350001Y-102750000D01*
X90375021Y-102689598D01*
X90400000Y-102564019D01*
X90400000Y-102435981D01*
X90375021Y-102310402D01*
X90350001Y-102250000D01*
X91828478Y-102250000D01*
X101171522Y-102250000D01*
X102649999Y-102250000D01*
X102624979Y-102310402D01*
X102600000Y-102435981D01*
X102600000Y-102564019D01*
X102624979Y-102689598D01*
X102649999Y-102750000D01*
X101171522Y-102750000D01*
X101185704Y-102839544D01*
X101256230Y-103056604D01*
X101359849Y-103259966D01*
X101494004Y-103444614D01*
X101655385Y-103605995D01*
X101840033Y-103740150D01*
X102043395Y-103843769D01*
X102260455Y-103914295D01*
X102485884Y-103950000D01*
X103000000Y-103950000D01*
X103000000Y-103100001D01*
X103060402Y-103125021D01*
X103185981Y-103150000D01*
X103314019Y-103150000D01*
X103439598Y-103125021D01*
X103500000Y-103100001D01*
X103500000Y-103950000D01*
X104014116Y-103950000D01*
X104239544Y-103914295D01*
X104456604Y-103843769D01*
X104659966Y-103740150D01*
X104844614Y-103605995D01*
X105005995Y-103444614D01*
X105140150Y-103259966D01*
X105243769Y-103056604D01*
X105314295Y-102839544D01*
X105328478Y-102750000D01*
X103850001Y-102750000D01*
X103875021Y-102689598D01*
X103900000Y-102564019D01*
X103900000Y-102435981D01*
X103875021Y-102310402D01*
X103850001Y-102250000D01*
X105328478Y-102250000D01*
X113671522Y-102250000D01*
X115149999Y-102250000D01*
X115124979Y-102310402D01*
X115100000Y-102435981D01*
X115100000Y-102564019D01*
X115124979Y-102689598D01*
X115149999Y-102750000D01*
X113671522Y-102750000D01*
X113685704Y-102839544D01*
X113756230Y-103056604D01*
X113859849Y-103259966D01*
X113994004Y-103444614D01*
X114155385Y-103605995D01*
X114340033Y-103740150D01*
X114543395Y-103843769D01*
X114760455Y-103914295D01*
X114985884Y-103950000D01*
X115500000Y-103950000D01*
X115500000Y-103100001D01*
X115560402Y-103125021D01*
X115685981Y-103150000D01*
X115814019Y-103150000D01*
X115939598Y-103125021D01*
X116000000Y-103100001D01*
X116000000Y-103950000D01*
X116514116Y-103950000D01*
X116739544Y-103914295D01*
X116956604Y-103843769D01*
X117159966Y-103740150D01*
X117344614Y-103605995D01*
X117505995Y-103444614D01*
X117640150Y-103259966D01*
X117743769Y-103056604D01*
X117814295Y-102839544D01*
X117828478Y-102750000D01*
X116350001Y-102750000D01*
X116375021Y-102689598D01*
X116400000Y-102564019D01*
X116400000Y-102435981D01*
X116375021Y-102310402D01*
X116350001Y-102250000D01*
X117828478Y-102250000D01*
X117814295Y-102160455D01*
X117743769Y-101943395D01*
X117640150Y-101740033D01*
X117505995Y-101555385D01*
X117344614Y-101394004D01*
X117159966Y-101259849D01*
X116956604Y-101156230D01*
X116739544Y-101085704D01*
X116514116Y-101050000D01*
X116000000Y-101050000D01*
X116000000Y-101899998D01*
X115939598Y-101874979D01*
X115814019Y-101850000D01*
X115685981Y-101850000D01*
X115560402Y-101874979D01*
X115500000Y-101899998D01*
X115500000Y-101050000D01*
X114985884Y-101050000D01*
X114760455Y-101085704D01*
X114543395Y-101156230D01*
X114340033Y-101259849D01*
X114155385Y-101394004D01*
X113994004Y-101555385D01*
X113859849Y-101740033D01*
X113756230Y-101943395D01*
X113685704Y-102160455D01*
X113671522Y-102250000D01*
X105328478Y-102250000D01*
X105314295Y-102160455D01*
X105243769Y-101943395D01*
X105140150Y-101740033D01*
X105005995Y-101555385D01*
X104844614Y-101394004D01*
X104659966Y-101259849D01*
X104456604Y-101156230D01*
X104239544Y-101085704D01*
X104014116Y-101050000D01*
X103500000Y-101050000D01*
X103500000Y-101899998D01*
X103439598Y-101874979D01*
X103314019Y-101850000D01*
X103185981Y-101850000D01*
X103060402Y-101874979D01*
X103000000Y-101899998D01*
X103000000Y-101050000D01*
X102485884Y-101050000D01*
X102260455Y-101085704D01*
X102043395Y-101156230D01*
X101840033Y-101259849D01*
X101655385Y-101394004D01*
X101494004Y-101555385D01*
X101359849Y-101740033D01*
X101256230Y-101943395D01*
X101185704Y-102160455D01*
X101171522Y-102250000D01*
X91828478Y-102250000D01*
X91814295Y-102160455D01*
X91743769Y-101943395D01*
X91640150Y-101740033D01*
X91505995Y-101555385D01*
X91344614Y-101394004D01*
X91159966Y-101259849D01*
X90956604Y-101156230D01*
X90739544Y-101085704D01*
X90514116Y-101050000D01*
X90000000Y-101050000D01*
X90000000Y-101899998D01*
X89939598Y-101874979D01*
X89814019Y-101850000D01*
X89685981Y-101850000D01*
X89560402Y-101874979D01*
X89500000Y-101899998D01*
X89500000Y-101050000D01*
X88985884Y-101050000D01*
X88760455Y-101085704D01*
X88543395Y-101156230D01*
X88340033Y-101259849D01*
X88155385Y-101394004D01*
X87994004Y-101555385D01*
X87859849Y-101740033D01*
X87756230Y-101943395D01*
X87685704Y-102160455D01*
X87671522Y-102250000D01*
X79328478Y-102250000D01*
X79314295Y-102160455D01*
X79243769Y-101943395D01*
X79140150Y-101740033D01*
X79005995Y-101555385D01*
X78844614Y-101394004D01*
X78659966Y-101259849D01*
X78456604Y-101156230D01*
X78239544Y-101085704D01*
X78014116Y-101050000D01*
X77500000Y-101050000D01*
X77500000Y-101899998D01*
X77439598Y-101874979D01*
X77314019Y-101850000D01*
X77185981Y-101850000D01*
X77060402Y-101874979D01*
X77000000Y-101899998D01*
X77000000Y-101050000D01*
X76485884Y-101050000D01*
X76260455Y-101085704D01*
X76043395Y-101156230D01*
X75840033Y-101259849D01*
X75655385Y-101394004D01*
X75494004Y-101555385D01*
X75359849Y-101740033D01*
X75256230Y-101943395D01*
X75185704Y-102160455D01*
X75171522Y-102250000D01*
X68900500Y-102250000D01*
X68900500Y-100912577D01*
X151582270Y-100912577D01*
X151602056Y-101100833D01*
X151602057Y-101100836D01*
X151660548Y-101280854D01*
X151660551Y-101280861D01*
X151732173Y-101404914D01*
X151748646Y-101472814D01*
X151732174Y-101528913D01*
X151672820Y-101631718D01*
X151672818Y-101631722D01*
X151614327Y-101811740D01*
X151614326Y-101811744D01*
X151594540Y-102000000D01*
X151614326Y-102188256D01*
X151614327Y-102188259D01*
X151672818Y-102368277D01*
X151672821Y-102368284D01*
X151767467Y-102532216D01*
X151796103Y-102564019D01*
X151894129Y-102672888D01*
X152047265Y-102784148D01*
X152047270Y-102784151D01*
X152220192Y-102861142D01*
X152220197Y-102861144D01*
X152405354Y-102900500D01*
X152405355Y-102900500D01*
X152594644Y-102900500D01*
X152594646Y-102900500D01*
X152779803Y-102861144D01*
X152952730Y-102784151D01*
X153105871Y-102672888D01*
X153232533Y-102532216D01*
X153327179Y-102368284D01*
X153385674Y-102188256D01*
X153405460Y-102000000D01*
X153385674Y-101811744D01*
X153327179Y-101631716D01*
X153255555Y-101507660D01*
X153239083Y-101439762D01*
X153255555Y-101383665D01*
X153314909Y-101280861D01*
X153373404Y-101100833D01*
X153386180Y-100979265D01*
X153412764Y-100914653D01*
X153454057Y-100885837D01*
X205149500Y-100885837D01*
X205149500Y-101114162D01*
X205185215Y-101339660D01*
X205255770Y-101556803D01*
X205349131Y-101740033D01*
X205359421Y-101760228D01*
X205493621Y-101944937D01*
X205655063Y-102106379D01*
X205839772Y-102240579D01*
X205935884Y-102289550D01*
X206043196Y-102344229D01*
X206043198Y-102344229D01*
X206043201Y-102344231D01*
X206159592Y-102382049D01*
X206260339Y-102414784D01*
X206485838Y-102450500D01*
X206485843Y-102450500D01*
X208014162Y-102450500D01*
X208239660Y-102414784D01*
X208456799Y-102344231D01*
X208660228Y-102240579D01*
X208844937Y-102106379D01*
X209006379Y-101944937D01*
X209140579Y-101760228D01*
X209244231Y-101556799D01*
X209314784Y-101339660D01*
X209327425Y-101259849D01*
X209350500Y-101114162D01*
X209350500Y-100885837D01*
X217649500Y-100885837D01*
X217649500Y-101114162D01*
X217685215Y-101339660D01*
X217755770Y-101556803D01*
X217849131Y-101740033D01*
X217859421Y-101760228D01*
X217993621Y-101944937D01*
X218155063Y-102106379D01*
X218339772Y-102240579D01*
X218435884Y-102289550D01*
X218543196Y-102344229D01*
X218543198Y-102344229D01*
X218543201Y-102344231D01*
X218659592Y-102382049D01*
X218760339Y-102414784D01*
X218985838Y-102450500D01*
X218985843Y-102450500D01*
X220514162Y-102450500D01*
X220739660Y-102414784D01*
X220956799Y-102344231D01*
X221160228Y-102240579D01*
X221344937Y-102106379D01*
X221506379Y-101944937D01*
X221640579Y-101760228D01*
X221744231Y-101556799D01*
X221814784Y-101339660D01*
X221827425Y-101259849D01*
X221850500Y-101114162D01*
X221850500Y-100885837D01*
X221814784Y-100660339D01*
X221744229Y-100443196D01*
X221640578Y-100239771D01*
X221506379Y-100055063D01*
X221344937Y-99893621D01*
X221160228Y-99759421D01*
X220956803Y-99655770D01*
X220739660Y-99585215D01*
X220514162Y-99549500D01*
X220514157Y-99549500D01*
X218985843Y-99549500D01*
X218985838Y-99549500D01*
X218760339Y-99585215D01*
X218543196Y-99655770D01*
X218339771Y-99759421D01*
X218155061Y-99893622D01*
X217993622Y-100055061D01*
X217859421Y-100239771D01*
X217755770Y-100443196D01*
X217685215Y-100660339D01*
X217649500Y-100885837D01*
X209350500Y-100885837D01*
X209314784Y-100660339D01*
X209244229Y-100443196D01*
X209140578Y-100239771D01*
X209006379Y-100055063D01*
X208844937Y-99893621D01*
X208660228Y-99759421D01*
X208456803Y-99655770D01*
X208239660Y-99585215D01*
X208014162Y-99549500D01*
X208014157Y-99549500D01*
X206485843Y-99549500D01*
X206485838Y-99549500D01*
X206260339Y-99585215D01*
X206043196Y-99655770D01*
X205839771Y-99759421D01*
X205655061Y-99893622D01*
X205493622Y-100055061D01*
X205359421Y-100239771D01*
X205255770Y-100443196D01*
X205185215Y-100660339D01*
X205149500Y-100885837D01*
X153454057Y-100885837D01*
X153470062Y-100874668D01*
X153483721Y-100870939D01*
X153491861Y-100869208D01*
X153529803Y-100861144D01*
X153529806Y-100861142D01*
X153529808Y-100861142D01*
X153588058Y-100835206D01*
X153702730Y-100784151D01*
X153855871Y-100672888D01*
X153858788Y-100669647D01*
X153861600Y-100666526D01*
X153921087Y-100629879D01*
X153953748Y-100625500D01*
X166561607Y-100625500D01*
X166622029Y-100613481D01*
X166682452Y-100601463D01*
X166732496Y-100580734D01*
X166796286Y-100554312D01*
X166847509Y-100520084D01*
X166898733Y-100485858D01*
X166985858Y-100398733D01*
X166985859Y-100398731D01*
X166992925Y-100391665D01*
X166992927Y-100391661D01*
X171634588Y-95750000D01*
X205171522Y-95750000D01*
X206649999Y-95750000D01*
X206624979Y-95810402D01*
X206600000Y-95935981D01*
X206600000Y-96064019D01*
X206624979Y-96189598D01*
X206649999Y-96250000D01*
X205171522Y-96250000D01*
X205185704Y-96339544D01*
X205256230Y-96556604D01*
X205359849Y-96759966D01*
X205494004Y-96944614D01*
X205655385Y-97105995D01*
X205840033Y-97240150D01*
X206043395Y-97343769D01*
X206260455Y-97414295D01*
X206485884Y-97450000D01*
X207000000Y-97450000D01*
X207000000Y-96600001D01*
X207060402Y-96625021D01*
X207185981Y-96650000D01*
X207314019Y-96650000D01*
X207439598Y-96625021D01*
X207500000Y-96600001D01*
X207500000Y-97450000D01*
X208014116Y-97450000D01*
X208239544Y-97414295D01*
X208456604Y-97343769D01*
X208659966Y-97240150D01*
X208844614Y-97105995D01*
X209005995Y-96944614D01*
X209140150Y-96759966D01*
X209243769Y-96556604D01*
X209314295Y-96339544D01*
X209328478Y-96250000D01*
X207850001Y-96250000D01*
X207875021Y-96189598D01*
X207900000Y-96064019D01*
X207900000Y-95935981D01*
X207875021Y-95810402D01*
X207850001Y-95750000D01*
X209328478Y-95750000D01*
X217671522Y-95750000D01*
X219149999Y-95750000D01*
X219124979Y-95810402D01*
X219100000Y-95935981D01*
X219100000Y-96064019D01*
X219124979Y-96189598D01*
X219149999Y-96250000D01*
X217671522Y-96250000D01*
X217685704Y-96339544D01*
X217756230Y-96556604D01*
X217859849Y-96759966D01*
X217994004Y-96944614D01*
X218155385Y-97105995D01*
X218340033Y-97240150D01*
X218543395Y-97343769D01*
X218760455Y-97414295D01*
X218985884Y-97450000D01*
X219500000Y-97450000D01*
X219500000Y-96600001D01*
X219560402Y-96625021D01*
X219685981Y-96650000D01*
X219814019Y-96650000D01*
X219939598Y-96625021D01*
X220000000Y-96600001D01*
X220000000Y-97450000D01*
X220514116Y-97450000D01*
X220739544Y-97414295D01*
X220956604Y-97343769D01*
X221159966Y-97240150D01*
X221344614Y-97105995D01*
X221505995Y-96944614D01*
X221640150Y-96759966D01*
X221743769Y-96556604D01*
X221814295Y-96339544D01*
X221828478Y-96250000D01*
X220350001Y-96250000D01*
X220375021Y-96189598D01*
X220400000Y-96064019D01*
X220400000Y-95935981D01*
X220375021Y-95810402D01*
X220350001Y-95750000D01*
X221828478Y-95750000D01*
X221814295Y-95660455D01*
X221743769Y-95443395D01*
X221640150Y-95240033D01*
X221505995Y-95055385D01*
X221344614Y-94894004D01*
X221159966Y-94759849D01*
X220956604Y-94656230D01*
X220739544Y-94585704D01*
X220514116Y-94550000D01*
X220000000Y-94550000D01*
X220000000Y-95399998D01*
X219939598Y-95374979D01*
X219814019Y-95350000D01*
X219685981Y-95350000D01*
X219560402Y-95374979D01*
X219500000Y-95399998D01*
X219500000Y-94550000D01*
X218985884Y-94550000D01*
X218760455Y-94585704D01*
X218543395Y-94656230D01*
X218340033Y-94759849D01*
X218155385Y-94894004D01*
X217994004Y-95055385D01*
X217859849Y-95240033D01*
X217756230Y-95443395D01*
X217685704Y-95660455D01*
X217671522Y-95750000D01*
X209328478Y-95750000D01*
X209314295Y-95660455D01*
X209243769Y-95443395D01*
X209140150Y-95240033D01*
X209005995Y-95055385D01*
X208844614Y-94894004D01*
X208659966Y-94759849D01*
X208456604Y-94656230D01*
X208239544Y-94585704D01*
X208014116Y-94550000D01*
X207500000Y-94550000D01*
X207500000Y-95399998D01*
X207439598Y-95374979D01*
X207314019Y-95350000D01*
X207185981Y-95350000D01*
X207060402Y-95374979D01*
X207000000Y-95399998D01*
X207000000Y-94550000D01*
X206485884Y-94550000D01*
X206260455Y-94585704D01*
X206043395Y-94656230D01*
X205840033Y-94759849D01*
X205655385Y-94894004D01*
X205494004Y-95055385D01*
X205359849Y-95240033D01*
X205256230Y-95443395D01*
X205185704Y-95660455D01*
X205171522Y-95750000D01*
X171634588Y-95750000D01*
X185697771Y-81686819D01*
X185759094Y-81653334D01*
X185785452Y-81650500D01*
X185844644Y-81650500D01*
X185844646Y-81650500D01*
X186029803Y-81611144D01*
X186202730Y-81534151D01*
X186355871Y-81422888D01*
X186482533Y-81282216D01*
X186577179Y-81118284D01*
X186635674Y-80938256D01*
X186655460Y-80750000D01*
X186635674Y-80561744D01*
X186577179Y-80381716D01*
X186482533Y-80217784D01*
X186355871Y-80077112D01*
X186355870Y-80077111D01*
X186202734Y-79965851D01*
X186202729Y-79965848D01*
X186029807Y-79888857D01*
X186029802Y-79888855D01*
X185884001Y-79857865D01*
X185844646Y-79849500D01*
X185655354Y-79849500D01*
X185622897Y-79856398D01*
X185470197Y-79888855D01*
X185470192Y-79888857D01*
X185297270Y-79965848D01*
X185297265Y-79965851D01*
X185144129Y-80077111D01*
X185017466Y-80217785D01*
X184922821Y-80381715D01*
X184922818Y-80381722D01*
X184864327Y-80561740D01*
X184864326Y-80561744D01*
X184856405Y-80637105D01*
X184846678Y-80729651D01*
X184820093Y-80794266D01*
X184811038Y-80804370D01*
X166277229Y-99338181D01*
X166215906Y-99371666D01*
X166189548Y-99374500D01*
X154245831Y-99374500D01*
X154178792Y-99354815D01*
X154133037Y-99302011D01*
X154123093Y-99232853D01*
X154127900Y-99212182D01*
X154128436Y-99210529D01*
X154135674Y-99188256D01*
X154155460Y-99000000D01*
X154135674Y-98811744D01*
X154127899Y-98787815D01*
X154125904Y-98717974D01*
X154161984Y-98658141D01*
X154224685Y-98627313D01*
X154245830Y-98625497D01*
X156811610Y-98625497D01*
X156872032Y-98613478D01*
X156932455Y-98601460D01*
X156982499Y-98580731D01*
X157046289Y-98554309D01*
X157097512Y-98520081D01*
X157148736Y-98485855D01*
X157235861Y-98398730D01*
X157240181Y-98394410D01*
X157240191Y-98394399D01*
X175502096Y-80132493D01*
X175539331Y-80106901D01*
X175702730Y-80034151D01*
X175855871Y-79922888D01*
X175982533Y-79782216D01*
X176077179Y-79618284D01*
X176135674Y-79438256D01*
X176155460Y-79250000D01*
X176135674Y-79061744D01*
X176077179Y-78881716D01*
X176058448Y-78849273D01*
X176041976Y-78781377D01*
X176058449Y-78725276D01*
X176144449Y-78576320D01*
X176202944Y-78396292D01*
X176222730Y-78208036D01*
X176202944Y-78019780D01*
X176144449Y-77839752D01*
X176049803Y-77675820D01*
X176029101Y-77652828D01*
X175998871Y-77589836D01*
X176007496Y-77520501D01*
X176013864Y-77507856D01*
X176083465Y-77387304D01*
X176141960Y-77207276D01*
X176161746Y-77019020D01*
X176141960Y-76830764D01*
X176083465Y-76650736D01*
X176044558Y-76583347D01*
X176028086Y-76515450D01*
X176044557Y-76459354D01*
X176089832Y-76380937D01*
X176148327Y-76200909D01*
X176168113Y-76012653D01*
X176148327Y-75824397D01*
X176089832Y-75644369D01*
X176039602Y-75557368D01*
X176023129Y-75489467D01*
X176039601Y-75433369D01*
X176077179Y-75368284D01*
X176135674Y-75188256D01*
X176155460Y-75000000D01*
X176135674Y-74811744D01*
X176077179Y-74631716D01*
X175982533Y-74467784D01*
X175855871Y-74327112D01*
X175855870Y-74327111D01*
X175702734Y-74215851D01*
X175702729Y-74215848D01*
X175529807Y-74138857D01*
X175529802Y-74138855D01*
X175384001Y-74107865D01*
X175344646Y-74099500D01*
X175155354Y-74099500D01*
X175122897Y-74106398D01*
X174970197Y-74138855D01*
X174970192Y-74138857D01*
X174797270Y-74215848D01*
X174797265Y-74215851D01*
X174644129Y-74327111D01*
X174517466Y-74467785D01*
X174422821Y-74631715D01*
X174422818Y-74631722D01*
X174364327Y-74811740D01*
X174364326Y-74811744D01*
X174356405Y-74887105D01*
X174346678Y-74979651D01*
X174320093Y-75044266D01*
X174311038Y-75054370D01*
X155039738Y-94325672D01*
X154978415Y-94359157D01*
X154952057Y-94361991D01*
X153958253Y-94361991D01*
X153891214Y-94342306D01*
X153866105Y-94320965D01*
X153860378Y-94314605D01*
X153860374Y-94314601D01*
X153707239Y-94203342D01*
X153707234Y-94203339D01*
X153534312Y-94126348D01*
X153534307Y-94126346D01*
X153388506Y-94095356D01*
X153349151Y-94086991D01*
X153159859Y-94086991D01*
X153127402Y-94093889D01*
X152974702Y-94126346D01*
X152974697Y-94126348D01*
X152801775Y-94203339D01*
X152801770Y-94203342D01*
X152648634Y-94314602D01*
X152521971Y-94455276D01*
X152427326Y-94619206D01*
X152427323Y-94619213D01*
X152415296Y-94656230D01*
X152368831Y-94799235D01*
X152349045Y-94987491D01*
X152368831Y-95175747D01*
X152368832Y-95175750D01*
X152427323Y-95355768D01*
X152427326Y-95355775D01*
X152458955Y-95410558D01*
X152475428Y-95478459D01*
X152458956Y-95534557D01*
X152410167Y-95619062D01*
X152351674Y-95799087D01*
X152351673Y-95799091D01*
X152331887Y-95987347D01*
X152351673Y-96175603D01*
X152351674Y-96175606D01*
X152410165Y-96355624D01*
X152410168Y-96355631D01*
X152460397Y-96442630D01*
X152476870Y-96510530D01*
X152460398Y-96566629D01*
X152422820Y-96631716D01*
X152364327Y-96811740D01*
X152364326Y-96811744D01*
X152344540Y-97000000D01*
X152364326Y-97188256D01*
X152364327Y-97188259D01*
X152422818Y-97368277D01*
X152422821Y-97368284D01*
X152449385Y-97414295D01*
X152463070Y-97437997D01*
X152479543Y-97505897D01*
X152463071Y-97561996D01*
X152422820Y-97631713D01*
X152364327Y-97811737D01*
X152364326Y-97811741D01*
X152344540Y-97999997D01*
X152364326Y-98188253D01*
X152364327Y-98188256D01*
X152422821Y-98368282D01*
X152463071Y-98437997D01*
X152479544Y-98505897D01*
X152463073Y-98561995D01*
X152422819Y-98631719D01*
X152372101Y-98787815D01*
X152364326Y-98811744D01*
X152344540Y-99000000D01*
X152364326Y-99188256D01*
X152364327Y-99188259D01*
X152422818Y-99368277D01*
X152422820Y-99368281D01*
X152422821Y-99368284D01*
X152424774Y-99371666D01*
X152463072Y-99438001D01*
X152479543Y-99505901D01*
X152463072Y-99561999D01*
X152422820Y-99631718D01*
X152422818Y-99631722D01*
X152364327Y-99811740D01*
X152364326Y-99811744D01*
X152356170Y-99889340D01*
X152351549Y-99933309D01*
X152324964Y-99997924D01*
X152267666Y-100037908D01*
X152254011Y-100041637D01*
X152207924Y-100051433D01*
X152207922Y-100051434D01*
X152035000Y-100128425D01*
X152034995Y-100128428D01*
X151881859Y-100239688D01*
X151755196Y-100380362D01*
X151660551Y-100544292D01*
X151660548Y-100544299D01*
X151618767Y-100672889D01*
X151602056Y-100724321D01*
X151582270Y-100912577D01*
X68900500Y-100912577D01*
X68900500Y-94385837D01*
X88149500Y-94385837D01*
X88149500Y-94614162D01*
X88185215Y-94839660D01*
X88255770Y-95056803D01*
X88316377Y-95175750D01*
X88359421Y-95260228D01*
X88493621Y-95444937D01*
X88655063Y-95606379D01*
X88839772Y-95740579D01*
X88935884Y-95789550D01*
X89043196Y-95844229D01*
X89043198Y-95844229D01*
X89043201Y-95844231D01*
X89159592Y-95882049D01*
X89260339Y-95914784D01*
X89485838Y-95950500D01*
X89485843Y-95950500D01*
X91014162Y-95950500D01*
X91239660Y-95914784D01*
X91456799Y-95844231D01*
X91660228Y-95740579D01*
X91844937Y-95606379D01*
X92006379Y-95444937D01*
X92140579Y-95260228D01*
X92244231Y-95056799D01*
X92314784Y-94839660D01*
X92327425Y-94759849D01*
X92350500Y-94614162D01*
X92350500Y-94385837D01*
X100649500Y-94385837D01*
X100649500Y-94614162D01*
X100685215Y-94839660D01*
X100755770Y-95056803D01*
X100816377Y-95175750D01*
X100859421Y-95260228D01*
X100993621Y-95444937D01*
X101155063Y-95606379D01*
X101339772Y-95740579D01*
X101435884Y-95789550D01*
X101543196Y-95844229D01*
X101543198Y-95844229D01*
X101543201Y-95844231D01*
X101659592Y-95882049D01*
X101760339Y-95914784D01*
X101985838Y-95950500D01*
X101985843Y-95950500D01*
X103514162Y-95950500D01*
X103739660Y-95914784D01*
X103956799Y-95844231D01*
X104160228Y-95740579D01*
X104344937Y-95606379D01*
X104506379Y-95444937D01*
X104640579Y-95260228D01*
X104744231Y-95056799D01*
X104814784Y-94839660D01*
X104827425Y-94759849D01*
X104850500Y-94614162D01*
X104850500Y-94385837D01*
X104814784Y-94160339D01*
X104744229Y-93943196D01*
X104640578Y-93739771D01*
X104506379Y-93555063D01*
X104344937Y-93393621D01*
X104160228Y-93259421D01*
X103956803Y-93155770D01*
X103739660Y-93085215D01*
X103514162Y-93049500D01*
X103514157Y-93049500D01*
X101985843Y-93049500D01*
X101985838Y-93049500D01*
X101760339Y-93085215D01*
X101543196Y-93155770D01*
X101339771Y-93259421D01*
X101155061Y-93393622D01*
X100993622Y-93555061D01*
X100859421Y-93739771D01*
X100755770Y-93943196D01*
X100685215Y-94160339D01*
X100649500Y-94385837D01*
X92350500Y-94385837D01*
X92314784Y-94160339D01*
X92244229Y-93943196D01*
X92140578Y-93739771D01*
X92006379Y-93555063D01*
X91844937Y-93393621D01*
X91660228Y-93259421D01*
X91456803Y-93155770D01*
X91239660Y-93085215D01*
X91014162Y-93049500D01*
X91014157Y-93049500D01*
X89485843Y-93049500D01*
X89485838Y-93049500D01*
X89260339Y-93085215D01*
X89043196Y-93155770D01*
X88839771Y-93259421D01*
X88655061Y-93393622D01*
X88493622Y-93555061D01*
X88359421Y-93739771D01*
X88255770Y-93943196D01*
X88185215Y-94160339D01*
X88149500Y-94385837D01*
X68900500Y-94385837D01*
X68900500Y-92500000D01*
X137594540Y-92500000D01*
X137614326Y-92688256D01*
X137614327Y-92688259D01*
X137672818Y-92868277D01*
X137672821Y-92868284D01*
X137767467Y-93032216D01*
X137783030Y-93049500D01*
X137894129Y-93172888D01*
X138047265Y-93284148D01*
X138047270Y-93284151D01*
X138220192Y-93361142D01*
X138220197Y-93361144D01*
X138405354Y-93400500D01*
X138405355Y-93400500D01*
X138594644Y-93400500D01*
X138594646Y-93400500D01*
X138779803Y-93361144D01*
X138952730Y-93284151D01*
X139105871Y-93172888D01*
X139232533Y-93032216D01*
X139327179Y-92868284D01*
X139385674Y-92688256D01*
X139405460Y-92500000D01*
X139385674Y-92311744D01*
X139327179Y-92131716D01*
X139232533Y-91967784D01*
X139105871Y-91827112D01*
X139105870Y-91827111D01*
X138952734Y-91715851D01*
X138952729Y-91715848D01*
X138779807Y-91638857D01*
X138779802Y-91638855D01*
X138634001Y-91607865D01*
X138594646Y-91599500D01*
X138405354Y-91599500D01*
X138372897Y-91606398D01*
X138220197Y-91638855D01*
X138220192Y-91638857D01*
X138047270Y-91715848D01*
X138047265Y-91715851D01*
X137894129Y-91827111D01*
X137767466Y-91967785D01*
X137672821Y-92131715D01*
X137672818Y-92131722D01*
X137614327Y-92311740D01*
X137614326Y-92311744D01*
X137594540Y-92500000D01*
X68900500Y-92500000D01*
X68900500Y-89250000D01*
X88171522Y-89250000D01*
X89649999Y-89250000D01*
X89624979Y-89310402D01*
X89600000Y-89435981D01*
X89600000Y-89564019D01*
X89624979Y-89689598D01*
X89649999Y-89750000D01*
X88171522Y-89750000D01*
X88185704Y-89839544D01*
X88256230Y-90056604D01*
X88359849Y-90259966D01*
X88494004Y-90444614D01*
X88655385Y-90605995D01*
X88840033Y-90740150D01*
X89043395Y-90843769D01*
X89260455Y-90914295D01*
X89485884Y-90950000D01*
X90000000Y-90950000D01*
X90000000Y-90100001D01*
X90060402Y-90125021D01*
X90185981Y-90150000D01*
X90314019Y-90150000D01*
X90439598Y-90125021D01*
X90500000Y-90100001D01*
X90500000Y-90950000D01*
X91014116Y-90950000D01*
X91239544Y-90914295D01*
X91456604Y-90843769D01*
X91659966Y-90740150D01*
X91844614Y-90605995D01*
X92005995Y-90444614D01*
X92140150Y-90259966D01*
X92243769Y-90056604D01*
X92314295Y-89839544D01*
X92328478Y-89750000D01*
X90850001Y-89750000D01*
X90875021Y-89689598D01*
X90900000Y-89564019D01*
X90900000Y-89435981D01*
X90875021Y-89310402D01*
X90850001Y-89250000D01*
X92328478Y-89250000D01*
X100671522Y-89250000D01*
X102149999Y-89250000D01*
X102124979Y-89310402D01*
X102100000Y-89435981D01*
X102100000Y-89564019D01*
X102124979Y-89689598D01*
X102149999Y-89750000D01*
X100671522Y-89750000D01*
X100685704Y-89839544D01*
X100756230Y-90056604D01*
X100859849Y-90259966D01*
X100994004Y-90444614D01*
X101155385Y-90605995D01*
X101340033Y-90740150D01*
X101543395Y-90843769D01*
X101760455Y-90914295D01*
X101985884Y-90950000D01*
X102500000Y-90950000D01*
X102500000Y-90100001D01*
X102560402Y-90125021D01*
X102685981Y-90150000D01*
X102814019Y-90150000D01*
X102939598Y-90125021D01*
X103000000Y-90100001D01*
X103000000Y-90950000D01*
X103514116Y-90950000D01*
X103739544Y-90914295D01*
X103956604Y-90843769D01*
X104159966Y-90740150D01*
X104344614Y-90605995D01*
X104505995Y-90444614D01*
X104640150Y-90259966D01*
X104743769Y-90056604D01*
X104814295Y-89839544D01*
X104828478Y-89750000D01*
X103350001Y-89750000D01*
X103375021Y-89689598D01*
X103400000Y-89564019D01*
X103400000Y-89435981D01*
X103375021Y-89310402D01*
X103350001Y-89250000D01*
X104828478Y-89250000D01*
X104814295Y-89160455D01*
X104743769Y-88943395D01*
X104640150Y-88740033D01*
X104505995Y-88555385D01*
X104344614Y-88394004D01*
X104159966Y-88259849D01*
X103956604Y-88156230D01*
X103739544Y-88085704D01*
X103514116Y-88050000D01*
X103000000Y-88050000D01*
X103000000Y-88899998D01*
X102939598Y-88874979D01*
X102814019Y-88850000D01*
X102685981Y-88850000D01*
X102560402Y-88874979D01*
X102500000Y-88899998D01*
X102500000Y-88050000D01*
X101985884Y-88050000D01*
X101760455Y-88085704D01*
X101543395Y-88156230D01*
X101340033Y-88259849D01*
X101155385Y-88394004D01*
X100994004Y-88555385D01*
X100859849Y-88740033D01*
X100756230Y-88943395D01*
X100685704Y-89160455D01*
X100671522Y-89250000D01*
X92328478Y-89250000D01*
X92314295Y-89160455D01*
X92243769Y-88943395D01*
X92140150Y-88740033D01*
X92005995Y-88555385D01*
X91844614Y-88394004D01*
X91659966Y-88259849D01*
X91456604Y-88156230D01*
X91239544Y-88085704D01*
X91014116Y-88050000D01*
X90500000Y-88050000D01*
X90500000Y-88899998D01*
X90439598Y-88874979D01*
X90314019Y-88850000D01*
X90185981Y-88850000D01*
X90060402Y-88874979D01*
X90000000Y-88899998D01*
X90000000Y-88050000D01*
X89485884Y-88050000D01*
X89260455Y-88085704D01*
X89043395Y-88156230D01*
X88840033Y-88259849D01*
X88655385Y-88394004D01*
X88494004Y-88555385D01*
X88359849Y-88740033D01*
X88256230Y-88943395D01*
X88185704Y-89160455D01*
X88171522Y-89250000D01*
X68900500Y-89250000D01*
X68900500Y-86077135D01*
X143349500Y-86077135D01*
X143349500Y-87872870D01*
X143349501Y-87872876D01*
X143355908Y-87932483D01*
X143406202Y-88067328D01*
X143406206Y-88067335D01*
X143492452Y-88182544D01*
X143492455Y-88182547D01*
X143607664Y-88268793D01*
X143607671Y-88268797D01*
X143742517Y-88319091D01*
X143742516Y-88319091D01*
X143749444Y-88319835D01*
X143802127Y-88325500D01*
X145597872Y-88325499D01*
X145657483Y-88319091D01*
X145792331Y-88268796D01*
X145907546Y-88182546D01*
X145993796Y-88067331D01*
X146043002Y-87935401D01*
X146084872Y-87879468D01*
X146150337Y-87855050D01*
X146218610Y-87869901D01*
X146246865Y-87891053D01*
X146368917Y-88013105D01*
X146562421Y-88148600D01*
X146776507Y-88248429D01*
X146776516Y-88248433D01*
X146990000Y-88305634D01*
X146990000Y-87408012D01*
X147047007Y-87440925D01*
X147174174Y-87475000D01*
X147305826Y-87475000D01*
X147432993Y-87440925D01*
X147490000Y-87408012D01*
X147490000Y-88305633D01*
X147703483Y-88248433D01*
X147703492Y-88248429D01*
X147917578Y-88148600D01*
X148111082Y-88013105D01*
X148278105Y-87846082D01*
X148408119Y-87660405D01*
X148462696Y-87616781D01*
X148532195Y-87609588D01*
X148594549Y-87641110D01*
X148611269Y-87660405D01*
X148741505Y-87846401D01*
X148908599Y-88013495D01*
X149005384Y-88081265D01*
X149102165Y-88149032D01*
X149102167Y-88149033D01*
X149102170Y-88149035D01*
X149316337Y-88248903D01*
X149316343Y-88248904D01*
X149316344Y-88248905D01*
X149371285Y-88263626D01*
X149544592Y-88310063D01*
X149721034Y-88325500D01*
X149779999Y-88330659D01*
X149780000Y-88330659D01*
X149780001Y-88330659D01*
X149838966Y-88325500D01*
X150015408Y-88310063D01*
X150243663Y-88248903D01*
X150457830Y-88149035D01*
X150651401Y-88013495D01*
X150818495Y-87846401D01*
X150948425Y-87660842D01*
X151003002Y-87617217D01*
X151072500Y-87610023D01*
X151134855Y-87641546D01*
X151151575Y-87660842D01*
X151281500Y-87846395D01*
X151281505Y-87846401D01*
X151448599Y-88013495D01*
X151545384Y-88081265D01*
X151642165Y-88149032D01*
X151642167Y-88149033D01*
X151642170Y-88149035D01*
X151856337Y-88248903D01*
X151856343Y-88248904D01*
X151856344Y-88248905D01*
X151911285Y-88263626D01*
X152084592Y-88310063D01*
X152261034Y-88325500D01*
X152319999Y-88330659D01*
X152320000Y-88330659D01*
X152320001Y-88330659D01*
X152378966Y-88325500D01*
X152555408Y-88310063D01*
X152783663Y-88248903D01*
X152997830Y-88149035D01*
X153191401Y-88013495D01*
X153358495Y-87846401D01*
X153494035Y-87652830D01*
X153593903Y-87438663D01*
X153655063Y-87210408D01*
X153675659Y-86975000D01*
X153655063Y-86739592D01*
X153593903Y-86511337D01*
X153494035Y-86297171D01*
X153488731Y-86289595D01*
X153358494Y-86103597D01*
X153191402Y-85936506D01*
X153191395Y-85936501D01*
X152997834Y-85800967D01*
X152997830Y-85800965D01*
X152961766Y-85784148D01*
X152783663Y-85701097D01*
X152783659Y-85701096D01*
X152783655Y-85701094D01*
X152555413Y-85639938D01*
X152555403Y-85639936D01*
X152320001Y-85619341D01*
X152319999Y-85619341D01*
X152084596Y-85639936D01*
X152084586Y-85639938D01*
X151856344Y-85701094D01*
X151856335Y-85701098D01*
X151642171Y-85800964D01*
X151642169Y-85800965D01*
X151448597Y-85936505D01*
X151281505Y-86103597D01*
X151151575Y-86289158D01*
X151096998Y-86332783D01*
X151027500Y-86339977D01*
X150965145Y-86308454D01*
X150948425Y-86289158D01*
X150818494Y-86103597D01*
X150651402Y-85936506D01*
X150651395Y-85936501D01*
X150457834Y-85800967D01*
X150457830Y-85800965D01*
X150421766Y-85784148D01*
X150243663Y-85701097D01*
X150243659Y-85701096D01*
X150243655Y-85701094D01*
X150015413Y-85639938D01*
X150015403Y-85639936D01*
X149780001Y-85619341D01*
X149779999Y-85619341D01*
X149544596Y-85639936D01*
X149544586Y-85639938D01*
X149316344Y-85701094D01*
X149316335Y-85701098D01*
X149102171Y-85800964D01*
X149102169Y-85800965D01*
X148908597Y-85936505D01*
X148741508Y-86103594D01*
X148611269Y-86289595D01*
X148556692Y-86333219D01*
X148487193Y-86340412D01*
X148424839Y-86308890D01*
X148408119Y-86289594D01*
X148278113Y-86103926D01*
X148278108Y-86103920D01*
X148111082Y-85936894D01*
X147917578Y-85801399D01*
X147703492Y-85701570D01*
X147703486Y-85701567D01*
X147490000Y-85644364D01*
X147490000Y-86541988D01*
X147432993Y-86509075D01*
X147305826Y-86475000D01*
X147174174Y-86475000D01*
X147047007Y-86509075D01*
X146990000Y-86541988D01*
X146990000Y-85644364D01*
X146989999Y-85644364D01*
X146776513Y-85701567D01*
X146776507Y-85701570D01*
X146562422Y-85801399D01*
X146562420Y-85801400D01*
X146368926Y-85936886D01*
X146246865Y-86058947D01*
X146185542Y-86092431D01*
X146115850Y-86087447D01*
X146059917Y-86045575D01*
X146043002Y-86014598D01*
X145993797Y-85882671D01*
X145993793Y-85882664D01*
X145907547Y-85767455D01*
X145907544Y-85767452D01*
X145792335Y-85681206D01*
X145792328Y-85681202D01*
X145657482Y-85630908D01*
X145657483Y-85630908D01*
X145597883Y-85624501D01*
X145597881Y-85624500D01*
X145597873Y-85624500D01*
X145597864Y-85624500D01*
X143802129Y-85624500D01*
X143802123Y-85624501D01*
X143742516Y-85630908D01*
X143607671Y-85681202D01*
X143607664Y-85681206D01*
X143492455Y-85767452D01*
X143492452Y-85767455D01*
X143406206Y-85882664D01*
X143406202Y-85882671D01*
X143355908Y-86017517D01*
X143349501Y-86077116D01*
X143349500Y-86077135D01*
X68900500Y-86077135D01*
X68900500Y-73250000D01*
X144344540Y-73250000D01*
X144364326Y-73438256D01*
X144364327Y-73438259D01*
X144422818Y-73618277D01*
X144422821Y-73618284D01*
X144517467Y-73782216D01*
X144644129Y-73922888D01*
X144797265Y-74034148D01*
X144797270Y-74034151D01*
X144970192Y-74111142D01*
X144970197Y-74111144D01*
X145155354Y-74150500D01*
X145155355Y-74150500D01*
X145344644Y-74150500D01*
X145344646Y-74150500D01*
X145529803Y-74111144D01*
X145702730Y-74034151D01*
X145855871Y-73922888D01*
X145982533Y-73782216D01*
X146077179Y-73618284D01*
X146135674Y-73438256D01*
X146155460Y-73250000D01*
X146135674Y-73061744D01*
X146077179Y-72881716D01*
X145982533Y-72717784D01*
X145855871Y-72577112D01*
X145855870Y-72577111D01*
X145702734Y-72465851D01*
X145702729Y-72465848D01*
X145529807Y-72388857D01*
X145529802Y-72388855D01*
X145384001Y-72357865D01*
X145344646Y-72349500D01*
X145155354Y-72349500D01*
X145122897Y-72356398D01*
X144970197Y-72388855D01*
X144970192Y-72388857D01*
X144797270Y-72465848D01*
X144797265Y-72465851D01*
X144644129Y-72577111D01*
X144517466Y-72717785D01*
X144422821Y-72881715D01*
X144422818Y-72881722D01*
X144394855Y-72967785D01*
X144364326Y-73061744D01*
X144344540Y-73250000D01*
X68900500Y-73250000D01*
X68900500Y-70000000D01*
X126094540Y-70000000D01*
X126114326Y-70188256D01*
X126114327Y-70188259D01*
X126172818Y-70368277D01*
X126172821Y-70368284D01*
X126267467Y-70532216D01*
X126394129Y-70672888D01*
X126547265Y-70784148D01*
X126547270Y-70784151D01*
X126720192Y-70861142D01*
X126720197Y-70861144D01*
X126905354Y-70900500D01*
X126905355Y-70900500D01*
X127094644Y-70900500D01*
X127094646Y-70900500D01*
X127279803Y-70861144D01*
X127452730Y-70784151D01*
X127605871Y-70672888D01*
X127732533Y-70532216D01*
X127827179Y-70368284D01*
X127885674Y-70188256D01*
X127905460Y-70000000D01*
X183094540Y-70000000D01*
X183114326Y-70188256D01*
X183114327Y-70188259D01*
X183172818Y-70368277D01*
X183172821Y-70368284D01*
X183267467Y-70532216D01*
X183394129Y-70672888D01*
X183547265Y-70784148D01*
X183547270Y-70784151D01*
X183720192Y-70861142D01*
X183720197Y-70861144D01*
X183905354Y-70900500D01*
X183905355Y-70900500D01*
X184094644Y-70900500D01*
X184094646Y-70900500D01*
X184279803Y-70861144D01*
X184452730Y-70784151D01*
X184605871Y-70672888D01*
X184732533Y-70532216D01*
X184827179Y-70368284D01*
X184885674Y-70188256D01*
X184905460Y-70000000D01*
X184885674Y-69811744D01*
X184827179Y-69631716D01*
X184732533Y-69467784D01*
X184605871Y-69327112D01*
X184544077Y-69282216D01*
X184452734Y-69215851D01*
X184452729Y-69215848D01*
X184279807Y-69138857D01*
X184279802Y-69138855D01*
X184134001Y-69107865D01*
X184094646Y-69099500D01*
X183905354Y-69099500D01*
X183872897Y-69106398D01*
X183720197Y-69138855D01*
X183720192Y-69138857D01*
X183547270Y-69215848D01*
X183547265Y-69215851D01*
X183394129Y-69327111D01*
X183267466Y-69467785D01*
X183172821Y-69631715D01*
X183172818Y-69631722D01*
X183114327Y-69811740D01*
X183114326Y-69811744D01*
X183094540Y-70000000D01*
X127905460Y-70000000D01*
X127885674Y-69811744D01*
X127827179Y-69631716D01*
X127732533Y-69467784D01*
X127605871Y-69327112D01*
X127544077Y-69282216D01*
X127452734Y-69215851D01*
X127452729Y-69215848D01*
X127279807Y-69138857D01*
X127279802Y-69138855D01*
X127134001Y-69107865D01*
X127094646Y-69099500D01*
X126905354Y-69099500D01*
X126872897Y-69106398D01*
X126720197Y-69138855D01*
X126720192Y-69138857D01*
X126547270Y-69215848D01*
X126547265Y-69215851D01*
X126394129Y-69327111D01*
X126267466Y-69467785D01*
X126172821Y-69631715D01*
X126172818Y-69631722D01*
X126114327Y-69811740D01*
X126114326Y-69811744D01*
X126094540Y-70000000D01*
X68900500Y-70000000D01*
X68900500Y-68750000D01*
X151344540Y-68750000D01*
X151364326Y-68938256D01*
X151364327Y-68938259D01*
X151422818Y-69118277D01*
X151422821Y-69118284D01*
X151517467Y-69282216D01*
X151557891Y-69327111D01*
X151644129Y-69422888D01*
X151797265Y-69534148D01*
X151797270Y-69534151D01*
X151970192Y-69611142D01*
X151970197Y-69611144D01*
X152155354Y-69650500D01*
X152155355Y-69650500D01*
X152344644Y-69650500D01*
X152344646Y-69650500D01*
X152529803Y-69611144D01*
X152702730Y-69534151D01*
X152855871Y-69422888D01*
X152982533Y-69282216D01*
X153077179Y-69118284D01*
X153135674Y-68938256D01*
X153155460Y-68750000D01*
X153135674Y-68561744D01*
X153077179Y-68381716D01*
X152982533Y-68217784D01*
X152855871Y-68077112D01*
X152855870Y-68077111D01*
X152702734Y-67965851D01*
X152702729Y-67965848D01*
X152529807Y-67888857D01*
X152529802Y-67888855D01*
X152384001Y-67857865D01*
X152344646Y-67849500D01*
X152155354Y-67849500D01*
X152122897Y-67856398D01*
X151970197Y-67888855D01*
X151970192Y-67888857D01*
X151797270Y-67965848D01*
X151797265Y-67965851D01*
X151644129Y-68077111D01*
X151517466Y-68217785D01*
X151422821Y-68381715D01*
X151422818Y-68381722D01*
X151364327Y-68561740D01*
X151364326Y-68561744D01*
X151344540Y-68750000D01*
X68900500Y-68750000D01*
X68900500Y-66500000D01*
X142094540Y-66500000D01*
X142114326Y-66688256D01*
X142114327Y-66688259D01*
X142172818Y-66868277D01*
X142172821Y-66868284D01*
X142267467Y-67032216D01*
X142394129Y-67172888D01*
X142547265Y-67284148D01*
X142547270Y-67284151D01*
X142720192Y-67361142D01*
X142720197Y-67361144D01*
X142905354Y-67400500D01*
X142905355Y-67400500D01*
X143094644Y-67400500D01*
X143094646Y-67400500D01*
X143279803Y-67361144D01*
X143452730Y-67284151D01*
X143605871Y-67172888D01*
X143732533Y-67032216D01*
X143827179Y-66868284D01*
X143885674Y-66688256D01*
X143905460Y-66500000D01*
X153344540Y-66500000D01*
X153364326Y-66688256D01*
X153364327Y-66688259D01*
X153422818Y-66868277D01*
X153422821Y-66868284D01*
X153517467Y-67032216D01*
X153644129Y-67172888D01*
X153797265Y-67284148D01*
X153797270Y-67284151D01*
X153970192Y-67361142D01*
X153970197Y-67361144D01*
X154155354Y-67400500D01*
X154155355Y-67400500D01*
X154344644Y-67400500D01*
X154344646Y-67400500D01*
X154529803Y-67361144D01*
X154702730Y-67284151D01*
X154855871Y-67172888D01*
X154982533Y-67032216D01*
X155077179Y-66868284D01*
X155135674Y-66688256D01*
X155155460Y-66500000D01*
X155135674Y-66311744D01*
X155077179Y-66131716D01*
X154982533Y-65967784D01*
X154855871Y-65827112D01*
X154855870Y-65827111D01*
X154702734Y-65715851D01*
X154702729Y-65715848D01*
X154529807Y-65638857D01*
X154529802Y-65638855D01*
X154384001Y-65607865D01*
X154344646Y-65599500D01*
X154155354Y-65599500D01*
X154122897Y-65606398D01*
X153970197Y-65638855D01*
X153970192Y-65638857D01*
X153797270Y-65715848D01*
X153797265Y-65715851D01*
X153644129Y-65827111D01*
X153517466Y-65967785D01*
X153422821Y-66131715D01*
X153422818Y-66131722D01*
X153364327Y-66311740D01*
X153364326Y-66311744D01*
X153344540Y-66500000D01*
X143905460Y-66500000D01*
X143885674Y-66311744D01*
X143827179Y-66131716D01*
X143732533Y-65967784D01*
X143605871Y-65827112D01*
X143605870Y-65827111D01*
X143452734Y-65715851D01*
X143452729Y-65715848D01*
X143279807Y-65638857D01*
X143279802Y-65638855D01*
X143134001Y-65607865D01*
X143094646Y-65599500D01*
X142905354Y-65599500D01*
X142872897Y-65606398D01*
X142720197Y-65638855D01*
X142720192Y-65638857D01*
X142547270Y-65715848D01*
X142547265Y-65715851D01*
X142394129Y-65827111D01*
X142267466Y-65967785D01*
X142172821Y-66131715D01*
X142172818Y-66131722D01*
X142114327Y-66311740D01*
X142114326Y-66311744D01*
X142094540Y-66500000D01*
X68900500Y-66500000D01*
X68900500Y-63912399D01*
X146024500Y-63912399D01*
X146024500Y-64037601D01*
X146056905Y-64158536D01*
X146119505Y-64266964D01*
X146208036Y-64355495D01*
X146316464Y-64418095D01*
X146437399Y-64450500D01*
X146437401Y-64450500D01*
X146562599Y-64450500D01*
X146562601Y-64450500D01*
X146683536Y-64418095D01*
X146791964Y-64355495D01*
X146880495Y-64266964D01*
X146943095Y-64158536D01*
X146975500Y-64037601D01*
X146975500Y-63912399D01*
X150024500Y-63912399D01*
X150024500Y-64037601D01*
X150056905Y-64158536D01*
X150119505Y-64266964D01*
X150208036Y-64355495D01*
X150316464Y-64418095D01*
X150437399Y-64450500D01*
X150437401Y-64450500D01*
X150562599Y-64450500D01*
X150562601Y-64450500D01*
X150683536Y-64418095D01*
X150791964Y-64355495D01*
X150880495Y-64266964D01*
X150943095Y-64158536D01*
X150975500Y-64037601D01*
X150975500Y-63912399D01*
X150943095Y-63791464D01*
X150880495Y-63683036D01*
X150791964Y-63594505D01*
X150683536Y-63531905D01*
X150683537Y-63531905D01*
X150643224Y-63521103D01*
X150562601Y-63499500D01*
X150437399Y-63499500D01*
X150356775Y-63521103D01*
X150316463Y-63531905D01*
X150208037Y-63594504D01*
X150208034Y-63594506D01*
X150119506Y-63683034D01*
X150119504Y-63683037D01*
X150056905Y-63791463D01*
X150056905Y-63791464D01*
X150024500Y-63912399D01*
X146975500Y-63912399D01*
X146943095Y-63791464D01*
X146880495Y-63683036D01*
X146791964Y-63594505D01*
X146683536Y-63531905D01*
X146683537Y-63531905D01*
X146643224Y-63521103D01*
X146562601Y-63499500D01*
X146437399Y-63499500D01*
X146356775Y-63521103D01*
X146316463Y-63531905D01*
X146208037Y-63594504D01*
X146208034Y-63594506D01*
X146119506Y-63683034D01*
X146119504Y-63683037D01*
X146056905Y-63791463D01*
X146056905Y-63791464D01*
X146024500Y-63912399D01*
X68900500Y-63912399D01*
X68900500Y-62504051D01*
X68900763Y-62495972D01*
X68917931Y-62234048D01*
X68920045Y-62217996D01*
X68970455Y-61964569D01*
X68974646Y-61948926D01*
X69057705Y-61704242D01*
X69063905Y-61689276D01*
X69178188Y-61457533D01*
X69186295Y-61443493D01*
X69329839Y-61228663D01*
X69339704Y-61215804D01*
X69341302Y-61213982D01*
X145249500Y-61213982D01*
X145249500Y-62436018D01*
X145278497Y-62544237D01*
X145334515Y-62641263D01*
X145413737Y-62720485D01*
X145510763Y-62776503D01*
X145618982Y-62805500D01*
X145618984Y-62805500D01*
X145731016Y-62805500D01*
X145731018Y-62805500D01*
X145839237Y-62776503D01*
X145936263Y-62720485D01*
X146015485Y-62641263D01*
X146071503Y-62544237D01*
X146100500Y-62436018D01*
X146100500Y-61213982D01*
X150899500Y-61213982D01*
X150899500Y-62436018D01*
X150928497Y-62544237D01*
X150984515Y-62641263D01*
X151063737Y-62720485D01*
X151160763Y-62776503D01*
X151268982Y-62805500D01*
X151268984Y-62805500D01*
X151381016Y-62805500D01*
X151381018Y-62805500D01*
X151489237Y-62776503D01*
X151586263Y-62720485D01*
X151665485Y-62641263D01*
X151721503Y-62544237D01*
X151750500Y-62436018D01*
X151750500Y-61213982D01*
X151721503Y-61105763D01*
X151665485Y-61008737D01*
X151586263Y-60929515D01*
X151489237Y-60873497D01*
X151381018Y-60844500D01*
X151268982Y-60844500D01*
X151160763Y-60873497D01*
X151160760Y-60873498D01*
X151063740Y-60929513D01*
X151063734Y-60929517D01*
X150984517Y-61008734D01*
X150984513Y-61008740D01*
X150928498Y-61105760D01*
X150928497Y-61105763D01*
X150899500Y-61213982D01*
X146100500Y-61213982D01*
X146071503Y-61105763D01*
X146015485Y-61008737D01*
X145936263Y-60929515D01*
X145839237Y-60873497D01*
X145731018Y-60844500D01*
X145618982Y-60844500D01*
X145510763Y-60873497D01*
X145510760Y-60873498D01*
X145413740Y-60929513D01*
X145413734Y-60929517D01*
X145334517Y-61008734D01*
X145334513Y-61008740D01*
X145278498Y-61105760D01*
X145278497Y-61105763D01*
X145249500Y-61213982D01*
X69341302Y-61213982D01*
X69510075Y-61021533D01*
X69521533Y-61010075D01*
X69715804Y-60839704D01*
X69728658Y-60829842D01*
X69943493Y-60686295D01*
X69957533Y-60678188D01*
X70189276Y-60563905D01*
X70204242Y-60557705D01*
X70448926Y-60474646D01*
X70464569Y-60470455D01*
X70717996Y-60420045D01*
X70734048Y-60417931D01*
X70995971Y-60400764D01*
X71004052Y-60400500D01*
X71057583Y-60400500D01*
X199876000Y-60400500D01*
X199943039Y-60420185D01*
G37*
%TD.AperFunction*%
%TD*%
M02*
