%TF.GenerationSoftware,KiCad,Pcbnew,8.0.2*%
%TF.CreationDate,2024-06-07T13:42:10-07:00*%
%TF.ProjectId,STM_RF_PCB,53544d5f-5246-45f5-9043-422e6b696361,rev?*%
%TF.SameCoordinates,Original*%
%TF.FileFunction,Soldermask,Bot*%
%TF.FilePolarity,Negative*%
%FSLAX46Y46*%
G04 Gerber Fmt 4.6, Leading zero omitted, Abs format (unit mm)*
G04 Created by KiCad (PCBNEW 8.0.2) date 2024-06-07 13:42:10*
%MOMM*%
%LPD*%
G01*
G04 APERTURE LIST*
%ADD10C,3.000000*%
%ADD11O,3.200000X1.900000*%
%ADD12R,1.700000X1.700000*%
%ADD13O,1.700000X1.700000*%
%ADD14O,0.750000X2.150000*%
%ADD15C,0.550000*%
%ADD16C,2.100000*%
%ADD17C,2.200000*%
G04 APERTURE END LIST*
D10*
%TO.C,GND*%
X78000000Y-137000000D03*
%TD*%
%TO.C,3v3*%
X73250000Y-137000000D03*
%TD*%
D11*
%TO.C,SW5*%
X189250000Y-109000000D03*
X201750000Y-109000000D03*
X189250000Y-114000000D03*
X201750000Y-114000000D03*
%TD*%
D12*
%TO.C,J3*%
X184425000Y-144275000D03*
D13*
X184425000Y-141735000D03*
X186965000Y-144275000D03*
X186965000Y-141735000D03*
X189505000Y-144275000D03*
X189505000Y-141735000D03*
X192045000Y-144275000D03*
X192045000Y-141735000D03*
X194585000Y-144275000D03*
X194585000Y-141735000D03*
%TD*%
D11*
%TO.C,SW3*%
X90250000Y-115500000D03*
X102750000Y-115500000D03*
X90250000Y-120500000D03*
X102750000Y-120500000D03*
%TD*%
D14*
%TO.C,J2*%
X151325000Y-61825000D03*
D15*
X150500000Y-63975000D03*
X146500000Y-63975000D03*
D14*
X145675000Y-61825000D03*
%TD*%
D11*
%TO.C,SW8*%
X154250000Y-132500000D03*
X166750000Y-132500000D03*
X154250000Y-137500000D03*
X166750000Y-137500000D03*
%TD*%
%TO.C,SW1*%
X90250000Y-89500000D03*
X102750000Y-89500000D03*
X90250000Y-94500000D03*
X102750000Y-94500000D03*
%TD*%
%TO.C,SW6*%
X207250000Y-96000000D03*
X219750000Y-96000000D03*
X207250000Y-101000000D03*
X219750000Y-101000000D03*
%TD*%
%TO.C,SW4*%
X103250000Y-102500000D03*
X115750000Y-102500000D03*
X103250000Y-107500000D03*
X115750000Y-107500000D03*
%TD*%
%TO.C,SW2*%
X77250000Y-102500000D03*
X89750000Y-102500000D03*
X77250000Y-107500000D03*
X89750000Y-107500000D03*
%TD*%
D16*
%TO.C,J1*%
X204500000Y-68000000D03*
D17*
X201960000Y-65460000D03*
X201960000Y-70540000D03*
X207040000Y-65460000D03*
X207040000Y-70540000D03*
%TD*%
D12*
%TO.C,J4*%
X144700000Y-86975000D03*
D13*
X147240000Y-86975000D03*
X149780000Y-86975000D03*
X152320000Y-86975000D03*
%TD*%
D11*
%TO.C,SW7*%
X130250000Y-132500000D03*
X142750000Y-132500000D03*
X130250000Y-137500000D03*
X142750000Y-137500000D03*
%TD*%
M02*
