%TF.GenerationSoftware,KiCad,Pcbnew,8.0.2*%
%TF.CreationDate,2024-06-08T21:37:47-07:00*%
%TF.ProjectId,STM_RF_PCB,53544d5f-5246-45f5-9043-422e6b696361,rev?*%
%TF.SameCoordinates,Original*%
%TF.FileFunction,Legend,Bot*%
%TF.FilePolarity,Positive*%
%FSLAX46Y46*%
G04 Gerber Fmt 4.6, Leading zero omitted, Abs format (unit mm)*
G04 Created by KiCad (PCBNEW 8.0.2) date 2024-06-08 21:37:47*
%MOMM*%
%LPD*%
G01*
G04 APERTURE LIST*
%ADD10C,0.160000*%
G04 APERTURE END LIST*
D10*
X123180451Y-137714873D02*
X123180451Y-134714873D01*
X123180451Y-134714873D02*
X122037594Y-134714873D01*
X122037594Y-134714873D02*
X121751879Y-134857730D01*
X121751879Y-134857730D02*
X121609022Y-135000587D01*
X121609022Y-135000587D02*
X121466165Y-135286301D01*
X121466165Y-135286301D02*
X121466165Y-135714873D01*
X121466165Y-135714873D02*
X121609022Y-136000587D01*
X121609022Y-136000587D02*
X121751879Y-136143444D01*
X121751879Y-136143444D02*
X122037594Y-136286301D01*
X122037594Y-136286301D02*
X123180451Y-136286301D01*
X120180451Y-137714873D02*
X120180451Y-135714873D01*
X120180451Y-136286301D02*
X120037594Y-136000587D01*
X120037594Y-136000587D02*
X119894737Y-135857730D01*
X119894737Y-135857730D02*
X119609022Y-135714873D01*
X119609022Y-135714873D02*
X119323308Y-135714873D01*
X117037594Y-137714873D02*
X117037594Y-136143444D01*
X117037594Y-136143444D02*
X117180451Y-135857730D01*
X117180451Y-135857730D02*
X117466165Y-135714873D01*
X117466165Y-135714873D02*
X118037594Y-135714873D01*
X118037594Y-135714873D02*
X118323308Y-135857730D01*
X117037594Y-137572016D02*
X117323308Y-137714873D01*
X117323308Y-137714873D02*
X118037594Y-137714873D01*
X118037594Y-137714873D02*
X118323308Y-137572016D01*
X118323308Y-137572016D02*
X118466165Y-137286301D01*
X118466165Y-137286301D02*
X118466165Y-137000587D01*
X118466165Y-137000587D02*
X118323308Y-136714873D01*
X118323308Y-136714873D02*
X118037594Y-136572016D01*
X118037594Y-136572016D02*
X117323308Y-136572016D01*
X117323308Y-136572016D02*
X117037594Y-136429158D01*
X115751879Y-137572016D02*
X115466165Y-137714873D01*
X115466165Y-137714873D02*
X114894736Y-137714873D01*
X114894736Y-137714873D02*
X114609022Y-137572016D01*
X114609022Y-137572016D02*
X114466165Y-137286301D01*
X114466165Y-137286301D02*
X114466165Y-137143444D01*
X114466165Y-137143444D02*
X114609022Y-136857730D01*
X114609022Y-136857730D02*
X114894736Y-136714873D01*
X114894736Y-136714873D02*
X115323308Y-136714873D01*
X115323308Y-136714873D02*
X115609022Y-136572016D01*
X115609022Y-136572016D02*
X115751879Y-136286301D01*
X115751879Y-136286301D02*
X115751879Y-136143444D01*
X115751879Y-136143444D02*
X115609022Y-135857730D01*
X115609022Y-135857730D02*
X115323308Y-135714873D01*
X115323308Y-135714873D02*
X114894736Y-135714873D01*
X114894736Y-135714873D02*
X114609022Y-135857730D01*
X111894737Y-137714873D02*
X111894737Y-136143444D01*
X111894737Y-136143444D02*
X112037594Y-135857730D01*
X112037594Y-135857730D02*
X112323308Y-135714873D01*
X112323308Y-135714873D02*
X112894737Y-135714873D01*
X112894737Y-135714873D02*
X113180451Y-135857730D01*
X111894737Y-137572016D02*
X112180451Y-137714873D01*
X112180451Y-137714873D02*
X112894737Y-137714873D01*
X112894737Y-137714873D02*
X113180451Y-137572016D01*
X113180451Y-137572016D02*
X113323308Y-137286301D01*
X113323308Y-137286301D02*
X113323308Y-137000587D01*
X113323308Y-137000587D02*
X113180451Y-136714873D01*
X113180451Y-136714873D02*
X112894737Y-136572016D01*
X112894737Y-136572016D02*
X112180451Y-136572016D01*
X112180451Y-136572016D02*
X111894737Y-136429158D01*
X110466165Y-135714873D02*
X110466165Y-137714873D01*
X110466165Y-136000587D02*
X110323308Y-135857730D01*
X110323308Y-135857730D02*
X110037593Y-135714873D01*
X110037593Y-135714873D02*
X109609022Y-135714873D01*
X109609022Y-135714873D02*
X109323308Y-135857730D01*
X109323308Y-135857730D02*
X109180451Y-136143444D01*
X109180451Y-136143444D02*
X109180451Y-137714873D01*
X106466165Y-137714873D02*
X106466165Y-136143444D01*
X106466165Y-136143444D02*
X106609022Y-135857730D01*
X106609022Y-135857730D02*
X106894736Y-135714873D01*
X106894736Y-135714873D02*
X107466165Y-135714873D01*
X107466165Y-135714873D02*
X107751879Y-135857730D01*
X106466165Y-137572016D02*
X106751879Y-137714873D01*
X106751879Y-137714873D02*
X107466165Y-137714873D01*
X107466165Y-137714873D02*
X107751879Y-137572016D01*
X107751879Y-137572016D02*
X107894736Y-137286301D01*
X107894736Y-137286301D02*
X107894736Y-137000587D01*
X107894736Y-137000587D02*
X107751879Y-136714873D01*
X107751879Y-136714873D02*
X107466165Y-136572016D01*
X107466165Y-136572016D02*
X106751879Y-136572016D01*
X106751879Y-136572016D02*
X106466165Y-136429158D01*
X101180450Y-134857730D02*
X101466165Y-134714873D01*
X101466165Y-134714873D02*
X101894736Y-134714873D01*
X101894736Y-134714873D02*
X102323307Y-134857730D01*
X102323307Y-134857730D02*
X102609022Y-135143444D01*
X102609022Y-135143444D02*
X102751879Y-135429158D01*
X102751879Y-135429158D02*
X102894736Y-136000587D01*
X102894736Y-136000587D02*
X102894736Y-136429158D01*
X102894736Y-136429158D02*
X102751879Y-137000587D01*
X102751879Y-137000587D02*
X102609022Y-137286301D01*
X102609022Y-137286301D02*
X102323307Y-137572016D01*
X102323307Y-137572016D02*
X101894736Y-137714873D01*
X101894736Y-137714873D02*
X101609022Y-137714873D01*
X101609022Y-137714873D02*
X101180450Y-137572016D01*
X101180450Y-137572016D02*
X101037593Y-137429158D01*
X101037593Y-137429158D02*
X101037593Y-136429158D01*
X101037593Y-136429158D02*
X101609022Y-136429158D01*
X98466165Y-137714873D02*
X98466165Y-136143444D01*
X98466165Y-136143444D02*
X98609022Y-135857730D01*
X98609022Y-135857730D02*
X98894736Y-135714873D01*
X98894736Y-135714873D02*
X99466165Y-135714873D01*
X99466165Y-135714873D02*
X99751879Y-135857730D01*
X98466165Y-137572016D02*
X98751879Y-137714873D01*
X98751879Y-137714873D02*
X99466165Y-137714873D01*
X99466165Y-137714873D02*
X99751879Y-137572016D01*
X99751879Y-137572016D02*
X99894736Y-137286301D01*
X99894736Y-137286301D02*
X99894736Y-137000587D01*
X99894736Y-137000587D02*
X99751879Y-136714873D01*
X99751879Y-136714873D02*
X99466165Y-136572016D01*
X99466165Y-136572016D02*
X98751879Y-136572016D01*
X98751879Y-136572016D02*
X98466165Y-136429158D01*
X97037593Y-135714873D02*
X97037593Y-137714873D01*
X97037593Y-136000587D02*
X96894736Y-135857730D01*
X96894736Y-135857730D02*
X96609021Y-135714873D01*
X96609021Y-135714873D02*
X96180450Y-135714873D01*
X96180450Y-135714873D02*
X95894736Y-135857730D01*
X95894736Y-135857730D02*
X95751879Y-136143444D01*
X95751879Y-136143444D02*
X95751879Y-137714873D01*
X93180450Y-137572016D02*
X93466164Y-137714873D01*
X93466164Y-137714873D02*
X94037593Y-137714873D01*
X94037593Y-137714873D02*
X94323307Y-137572016D01*
X94323307Y-137572016D02*
X94466164Y-137286301D01*
X94466164Y-137286301D02*
X94466164Y-136143444D01*
X94466164Y-136143444D02*
X94323307Y-135857730D01*
X94323307Y-135857730D02*
X94037593Y-135714873D01*
X94037593Y-135714873D02*
X93466164Y-135714873D01*
X93466164Y-135714873D02*
X93180450Y-135857730D01*
X93180450Y-135857730D02*
X93037593Y-136143444D01*
X93037593Y-136143444D02*
X93037593Y-136429158D01*
X93037593Y-136429158D02*
X94466164Y-136714873D01*
X91894735Y-137572016D02*
X91609021Y-137714873D01*
X91609021Y-137714873D02*
X91037592Y-137714873D01*
X91037592Y-137714873D02*
X90751878Y-137572016D01*
X90751878Y-137572016D02*
X90609021Y-137286301D01*
X90609021Y-137286301D02*
X90609021Y-137143444D01*
X90609021Y-137143444D02*
X90751878Y-136857730D01*
X90751878Y-136857730D02*
X91037592Y-136714873D01*
X91037592Y-136714873D02*
X91466164Y-136714873D01*
X91466164Y-136714873D02*
X91751878Y-136572016D01*
X91751878Y-136572016D02*
X91894735Y-136286301D01*
X91894735Y-136286301D02*
X91894735Y-136143444D01*
X91894735Y-136143444D02*
X91751878Y-135857730D01*
X91751878Y-135857730D02*
X91466164Y-135714873D01*
X91466164Y-135714873D02*
X91037592Y-135714873D01*
X91037592Y-135714873D02*
X90751878Y-135857730D01*
X89323307Y-137714873D02*
X89323307Y-134714873D01*
X88037593Y-137714873D02*
X88037593Y-136143444D01*
X88037593Y-136143444D02*
X88180450Y-135857730D01*
X88180450Y-135857730D02*
X88466164Y-135714873D01*
X88466164Y-135714873D02*
X88894735Y-135714873D01*
X88894735Y-135714873D02*
X89180450Y-135857730D01*
X89180450Y-135857730D02*
X89323307Y-136000587D01*
X123180451Y-142544705D02*
X123180451Y-139544705D01*
X123180451Y-139544705D02*
X122037594Y-139544705D01*
X122037594Y-139544705D02*
X121751879Y-139687562D01*
X121751879Y-139687562D02*
X121609022Y-139830419D01*
X121609022Y-139830419D02*
X121466165Y-140116133D01*
X121466165Y-140116133D02*
X121466165Y-140544705D01*
X121466165Y-140544705D02*
X121609022Y-140830419D01*
X121609022Y-140830419D02*
X121751879Y-140973276D01*
X121751879Y-140973276D02*
X122037594Y-141116133D01*
X122037594Y-141116133D02*
X123180451Y-141116133D01*
X119037594Y-142401848D02*
X119323308Y-142544705D01*
X119323308Y-142544705D02*
X119894737Y-142544705D01*
X119894737Y-142544705D02*
X120180451Y-142401848D01*
X120180451Y-142401848D02*
X120323308Y-142116133D01*
X120323308Y-142116133D02*
X120323308Y-140973276D01*
X120323308Y-140973276D02*
X120180451Y-140687562D01*
X120180451Y-140687562D02*
X119894737Y-140544705D01*
X119894737Y-140544705D02*
X119323308Y-140544705D01*
X119323308Y-140544705D02*
X119037594Y-140687562D01*
X119037594Y-140687562D02*
X118894737Y-140973276D01*
X118894737Y-140973276D02*
X118894737Y-141258990D01*
X118894737Y-141258990D02*
X120323308Y-141544705D01*
X118037593Y-140544705D02*
X116894736Y-140544705D01*
X117609022Y-139544705D02*
X117609022Y-142116133D01*
X117609022Y-142116133D02*
X117466165Y-142401848D01*
X117466165Y-142401848D02*
X117180450Y-142544705D01*
X117180450Y-142544705D02*
X116894736Y-142544705D01*
X114609022Y-142544705D02*
X114609022Y-140973276D01*
X114609022Y-140973276D02*
X114751879Y-140687562D01*
X114751879Y-140687562D02*
X115037593Y-140544705D01*
X115037593Y-140544705D02*
X115609022Y-140544705D01*
X115609022Y-140544705D02*
X115894736Y-140687562D01*
X114609022Y-142401848D02*
X114894736Y-142544705D01*
X114894736Y-142544705D02*
X115609022Y-142544705D01*
X115609022Y-142544705D02*
X115894736Y-142401848D01*
X115894736Y-142401848D02*
X116037593Y-142116133D01*
X116037593Y-142116133D02*
X116037593Y-141830419D01*
X116037593Y-141830419D02*
X115894736Y-141544705D01*
X115894736Y-141544705D02*
X115609022Y-141401848D01*
X115609022Y-141401848D02*
X114894736Y-141401848D01*
X114894736Y-141401848D02*
X114609022Y-141258990D01*
X113180450Y-142544705D02*
X113180450Y-140544705D01*
X113180450Y-141116133D02*
X113037593Y-140830419D01*
X113037593Y-140830419D02*
X112894736Y-140687562D01*
X112894736Y-140687562D02*
X112609021Y-140544705D01*
X112609021Y-140544705D02*
X112323307Y-140544705D01*
X109180450Y-141687562D02*
X107751879Y-141687562D01*
X109466164Y-142544705D02*
X108466164Y-139544705D01*
X108466164Y-139544705D02*
X107466164Y-142544705D01*
X105180450Y-142401848D02*
X105466164Y-142544705D01*
X105466164Y-142544705D02*
X106037592Y-142544705D01*
X106037592Y-142544705D02*
X106323307Y-142401848D01*
X106323307Y-142401848D02*
X106466164Y-142258990D01*
X106466164Y-142258990D02*
X106609021Y-141973276D01*
X106609021Y-141973276D02*
X106609021Y-141116133D01*
X106609021Y-141116133D02*
X106466164Y-140830419D01*
X106466164Y-140830419D02*
X106323307Y-140687562D01*
X106323307Y-140687562D02*
X106037592Y-140544705D01*
X106037592Y-140544705D02*
X105466164Y-140544705D01*
X105466164Y-140544705D02*
X105180450Y-140687562D01*
X103894735Y-142544705D02*
X103894735Y-140544705D01*
X103894735Y-139544705D02*
X104037592Y-139687562D01*
X104037592Y-139687562D02*
X103894735Y-139830419D01*
X103894735Y-139830419D02*
X103751878Y-139687562D01*
X103751878Y-139687562D02*
X103894735Y-139544705D01*
X103894735Y-139544705D02*
X103894735Y-139830419D01*
X102466164Y-142544705D02*
X102466164Y-140544705D01*
X102466164Y-140830419D02*
X102323307Y-140687562D01*
X102323307Y-140687562D02*
X102037592Y-140544705D01*
X102037592Y-140544705D02*
X101609021Y-140544705D01*
X101609021Y-140544705D02*
X101323307Y-140687562D01*
X101323307Y-140687562D02*
X101180450Y-140973276D01*
X101180450Y-140973276D02*
X101180450Y-142544705D01*
X101180450Y-140973276D02*
X101037592Y-140687562D01*
X101037592Y-140687562D02*
X100751878Y-140544705D01*
X100751878Y-140544705D02*
X100323307Y-140544705D01*
X100323307Y-140544705D02*
X100037592Y-140687562D01*
X100037592Y-140687562D02*
X99894735Y-140973276D01*
X99894735Y-140973276D02*
X99894735Y-142544705D01*
X98037592Y-142544705D02*
X98323307Y-142401848D01*
X98323307Y-142401848D02*
X98466164Y-142258990D01*
X98466164Y-142258990D02*
X98609021Y-141973276D01*
X98609021Y-141973276D02*
X98609021Y-141116133D01*
X98609021Y-141116133D02*
X98466164Y-140830419D01*
X98466164Y-140830419D02*
X98323307Y-140687562D01*
X98323307Y-140687562D02*
X98037592Y-140544705D01*
X98037592Y-140544705D02*
X97609021Y-140544705D01*
X97609021Y-140544705D02*
X97323307Y-140687562D01*
X97323307Y-140687562D02*
X97180450Y-140830419D01*
X97180450Y-140830419D02*
X97037592Y-141116133D01*
X97037592Y-141116133D02*
X97037592Y-141973276D01*
X97037592Y-141973276D02*
X97180450Y-142258990D01*
X97180450Y-142258990D02*
X97323307Y-142401848D01*
X97323307Y-142401848D02*
X97609021Y-142544705D01*
X97609021Y-142544705D02*
X98037592Y-142544705D01*
X96037592Y-140544705D02*
X95323306Y-142544705D01*
X95323306Y-142544705D02*
X94609021Y-140544705D01*
X93466164Y-142544705D02*
X93466164Y-140544705D01*
X93466164Y-139544705D02*
X93609021Y-139687562D01*
X93609021Y-139687562D02*
X93466164Y-139830419D01*
X93466164Y-139830419D02*
X93323307Y-139687562D01*
X93323307Y-139687562D02*
X93466164Y-139544705D01*
X93466164Y-139544705D02*
X93466164Y-139830419D01*
X90751879Y-142401848D02*
X91037593Y-142544705D01*
X91037593Y-142544705D02*
X91609021Y-142544705D01*
X91609021Y-142544705D02*
X91894736Y-142401848D01*
X91894736Y-142401848D02*
X92037593Y-142258990D01*
X92037593Y-142258990D02*
X92180450Y-141973276D01*
X92180450Y-141973276D02*
X92180450Y-141116133D01*
X92180450Y-141116133D02*
X92037593Y-140830419D01*
X92037593Y-140830419D02*
X91894736Y-140687562D01*
X91894736Y-140687562D02*
X91609021Y-140544705D01*
X91609021Y-140544705D02*
X91037593Y-140544705D01*
X91037593Y-140544705D02*
X90751879Y-140687562D01*
X123180451Y-144374537D02*
X123180451Y-146803108D01*
X123180451Y-146803108D02*
X123037594Y-147088822D01*
X123037594Y-147088822D02*
X122894737Y-147231680D01*
X122894737Y-147231680D02*
X122609022Y-147374537D01*
X122609022Y-147374537D02*
X122037594Y-147374537D01*
X122037594Y-147374537D02*
X121751879Y-147231680D01*
X121751879Y-147231680D02*
X121609022Y-147088822D01*
X121609022Y-147088822D02*
X121466165Y-146803108D01*
X121466165Y-146803108D02*
X121466165Y-144374537D01*
X120037594Y-145374537D02*
X120037594Y-147374537D01*
X120037594Y-145660251D02*
X119894737Y-145517394D01*
X119894737Y-145517394D02*
X119609022Y-145374537D01*
X119609022Y-145374537D02*
X119180451Y-145374537D01*
X119180451Y-145374537D02*
X118894737Y-145517394D01*
X118894737Y-145517394D02*
X118751880Y-145803108D01*
X118751880Y-145803108D02*
X118751880Y-147374537D01*
X117323308Y-147374537D02*
X117323308Y-145374537D01*
X117323308Y-144374537D02*
X117466165Y-144517394D01*
X117466165Y-144517394D02*
X117323308Y-144660251D01*
X117323308Y-144660251D02*
X117180451Y-144517394D01*
X117180451Y-144517394D02*
X117323308Y-144374537D01*
X117323308Y-144374537D02*
X117323308Y-144660251D01*
X116180451Y-145374537D02*
X115466165Y-147374537D01*
X115466165Y-147374537D02*
X114751880Y-145374537D01*
X112466166Y-147231680D02*
X112751880Y-147374537D01*
X112751880Y-147374537D02*
X113323309Y-147374537D01*
X113323309Y-147374537D02*
X113609023Y-147231680D01*
X113609023Y-147231680D02*
X113751880Y-146945965D01*
X113751880Y-146945965D02*
X113751880Y-145803108D01*
X113751880Y-145803108D02*
X113609023Y-145517394D01*
X113609023Y-145517394D02*
X113323309Y-145374537D01*
X113323309Y-145374537D02*
X112751880Y-145374537D01*
X112751880Y-145374537D02*
X112466166Y-145517394D01*
X112466166Y-145517394D02*
X112323309Y-145803108D01*
X112323309Y-145803108D02*
X112323309Y-146088822D01*
X112323309Y-146088822D02*
X113751880Y-146374537D01*
X111037594Y-147374537D02*
X111037594Y-145374537D01*
X111037594Y-145945965D02*
X110894737Y-145660251D01*
X110894737Y-145660251D02*
X110751880Y-145517394D01*
X110751880Y-145517394D02*
X110466165Y-145374537D01*
X110466165Y-145374537D02*
X110180451Y-145374537D01*
X109323308Y-147231680D02*
X109037594Y-147374537D01*
X109037594Y-147374537D02*
X108466165Y-147374537D01*
X108466165Y-147374537D02*
X108180451Y-147231680D01*
X108180451Y-147231680D02*
X108037594Y-146945965D01*
X108037594Y-146945965D02*
X108037594Y-146803108D01*
X108037594Y-146803108D02*
X108180451Y-146517394D01*
X108180451Y-146517394D02*
X108466165Y-146374537D01*
X108466165Y-146374537D02*
X108894737Y-146374537D01*
X108894737Y-146374537D02*
X109180451Y-146231680D01*
X109180451Y-146231680D02*
X109323308Y-145945965D01*
X109323308Y-145945965D02*
X109323308Y-145803108D01*
X109323308Y-145803108D02*
X109180451Y-145517394D01*
X109180451Y-145517394D02*
X108894737Y-145374537D01*
X108894737Y-145374537D02*
X108466165Y-145374537D01*
X108466165Y-145374537D02*
X108180451Y-145517394D01*
X106751880Y-147374537D02*
X106751880Y-145374537D01*
X106751880Y-144374537D02*
X106894737Y-144517394D01*
X106894737Y-144517394D02*
X106751880Y-144660251D01*
X106751880Y-144660251D02*
X106609023Y-144517394D01*
X106609023Y-144517394D02*
X106751880Y-144374537D01*
X106751880Y-144374537D02*
X106751880Y-144660251D01*
X105751880Y-145374537D02*
X104609023Y-145374537D01*
X105323309Y-144374537D02*
X105323309Y-146945965D01*
X105323309Y-146945965D02*
X105180452Y-147231680D01*
X105180452Y-147231680D02*
X104894737Y-147374537D01*
X104894737Y-147374537D02*
X104609023Y-147374537D01*
X103894737Y-145374537D02*
X103180451Y-147374537D01*
X102466166Y-145374537D02*
X103180451Y-147374537D01*
X103180451Y-147374537D02*
X103466166Y-148088822D01*
X103466166Y-148088822D02*
X103609023Y-148231680D01*
X103609023Y-148231680D02*
X103894737Y-148374537D01*
X98609023Y-147374537D02*
X98894738Y-147231680D01*
X98894738Y-147231680D02*
X99037595Y-147088822D01*
X99037595Y-147088822D02*
X99180452Y-146803108D01*
X99180452Y-146803108D02*
X99180452Y-145945965D01*
X99180452Y-145945965D02*
X99037595Y-145660251D01*
X99037595Y-145660251D02*
X98894738Y-145517394D01*
X98894738Y-145517394D02*
X98609023Y-145374537D01*
X98609023Y-145374537D02*
X98180452Y-145374537D01*
X98180452Y-145374537D02*
X97894738Y-145517394D01*
X97894738Y-145517394D02*
X97751881Y-145660251D01*
X97751881Y-145660251D02*
X97609023Y-145945965D01*
X97609023Y-145945965D02*
X97609023Y-146803108D01*
X97609023Y-146803108D02*
X97751881Y-147088822D01*
X97751881Y-147088822D02*
X97894738Y-147231680D01*
X97894738Y-147231680D02*
X98180452Y-147374537D01*
X98180452Y-147374537D02*
X98609023Y-147374537D01*
X96751880Y-145374537D02*
X95609023Y-145374537D01*
X96323309Y-147374537D02*
X96323309Y-144803108D01*
X96323309Y-144803108D02*
X96180452Y-144517394D01*
X96180452Y-144517394D02*
X95894737Y-144374537D01*
X95894737Y-144374537D02*
X95609023Y-144374537D01*
X90609023Y-147088822D02*
X90751880Y-147231680D01*
X90751880Y-147231680D02*
X91180452Y-147374537D01*
X91180452Y-147374537D02*
X91466166Y-147374537D01*
X91466166Y-147374537D02*
X91894737Y-147231680D01*
X91894737Y-147231680D02*
X92180452Y-146945965D01*
X92180452Y-146945965D02*
X92323309Y-146660251D01*
X92323309Y-146660251D02*
X92466166Y-146088822D01*
X92466166Y-146088822D02*
X92466166Y-145660251D01*
X92466166Y-145660251D02*
X92323309Y-145088822D01*
X92323309Y-145088822D02*
X92180452Y-144803108D01*
X92180452Y-144803108D02*
X91894737Y-144517394D01*
X91894737Y-144517394D02*
X91466166Y-144374537D01*
X91466166Y-144374537D02*
X91180452Y-144374537D01*
X91180452Y-144374537D02*
X90751880Y-144517394D01*
X90751880Y-144517394D02*
X90609023Y-144660251D01*
X89323309Y-147374537D02*
X89323309Y-145374537D01*
X89323309Y-144374537D02*
X89466166Y-144517394D01*
X89466166Y-144517394D02*
X89323309Y-144660251D01*
X89323309Y-144660251D02*
X89180452Y-144517394D01*
X89180452Y-144517394D02*
X89323309Y-144374537D01*
X89323309Y-144374537D02*
X89323309Y-144660251D01*
X87894738Y-145374537D02*
X87894738Y-147374537D01*
X87894738Y-145660251D02*
X87751881Y-145517394D01*
X87751881Y-145517394D02*
X87466166Y-145374537D01*
X87466166Y-145374537D02*
X87037595Y-145374537D01*
X87037595Y-145374537D02*
X86751881Y-145517394D01*
X86751881Y-145517394D02*
X86609024Y-145803108D01*
X86609024Y-145803108D02*
X86609024Y-147374537D01*
X83894738Y-147231680D02*
X84180452Y-147374537D01*
X84180452Y-147374537D02*
X84751880Y-147374537D01*
X84751880Y-147374537D02*
X85037595Y-147231680D01*
X85037595Y-147231680D02*
X85180452Y-147088822D01*
X85180452Y-147088822D02*
X85323309Y-146803108D01*
X85323309Y-146803108D02*
X85323309Y-145945965D01*
X85323309Y-145945965D02*
X85180452Y-145660251D01*
X85180452Y-145660251D02*
X85037595Y-145517394D01*
X85037595Y-145517394D02*
X84751880Y-145374537D01*
X84751880Y-145374537D02*
X84180452Y-145374537D01*
X84180452Y-145374537D02*
X83894738Y-145517394D01*
X82609023Y-147374537D02*
X82609023Y-145374537D01*
X82609023Y-144374537D02*
X82751880Y-144517394D01*
X82751880Y-144517394D02*
X82609023Y-144660251D01*
X82609023Y-144660251D02*
X82466166Y-144517394D01*
X82466166Y-144517394D02*
X82609023Y-144374537D01*
X82609023Y-144374537D02*
X82609023Y-144660251D01*
X81180452Y-145374537D02*
X81180452Y-147374537D01*
X81180452Y-145660251D02*
X81037595Y-145517394D01*
X81037595Y-145517394D02*
X80751880Y-145374537D01*
X80751880Y-145374537D02*
X80323309Y-145374537D01*
X80323309Y-145374537D02*
X80037595Y-145517394D01*
X80037595Y-145517394D02*
X79894738Y-145803108D01*
X79894738Y-145803108D02*
X79894738Y-147374537D01*
X78466166Y-145374537D02*
X78466166Y-147374537D01*
X78466166Y-145660251D02*
X78323309Y-145517394D01*
X78323309Y-145517394D02*
X78037594Y-145374537D01*
X78037594Y-145374537D02*
X77609023Y-145374537D01*
X77609023Y-145374537D02*
X77323309Y-145517394D01*
X77323309Y-145517394D02*
X77180452Y-145803108D01*
X77180452Y-145803108D02*
X77180452Y-147374537D01*
X74466166Y-147374537D02*
X74466166Y-145803108D01*
X74466166Y-145803108D02*
X74609023Y-145517394D01*
X74609023Y-145517394D02*
X74894737Y-145374537D01*
X74894737Y-145374537D02*
X75466166Y-145374537D01*
X75466166Y-145374537D02*
X75751880Y-145517394D01*
X74466166Y-147231680D02*
X74751880Y-147374537D01*
X74751880Y-147374537D02*
X75466166Y-147374537D01*
X75466166Y-147374537D02*
X75751880Y-147231680D01*
X75751880Y-147231680D02*
X75894737Y-146945965D01*
X75894737Y-146945965D02*
X75894737Y-146660251D01*
X75894737Y-146660251D02*
X75751880Y-146374537D01*
X75751880Y-146374537D02*
X75466166Y-146231680D01*
X75466166Y-146231680D02*
X74751880Y-146231680D01*
X74751880Y-146231680D02*
X74466166Y-146088822D01*
X73466165Y-145374537D02*
X72323308Y-145374537D01*
X73037594Y-144374537D02*
X73037594Y-146945965D01*
X73037594Y-146945965D02*
X72894737Y-147231680D01*
X72894737Y-147231680D02*
X72609022Y-147374537D01*
X72609022Y-147374537D02*
X72323308Y-147374537D01*
X71323308Y-147374537D02*
X71323308Y-145374537D01*
X71323308Y-144374537D02*
X71466165Y-144517394D01*
X71466165Y-144517394D02*
X71323308Y-144660251D01*
X71323308Y-144660251D02*
X71180451Y-144517394D01*
X71180451Y-144517394D02*
X71323308Y-144374537D01*
X71323308Y-144374537D02*
X71323308Y-144660251D01*
X225513784Y-148901680D02*
X225228070Y-148996918D01*
X225228070Y-148996918D02*
X224751879Y-148996918D01*
X224751879Y-148996918D02*
X224561403Y-148901680D01*
X224561403Y-148901680D02*
X224466165Y-148806441D01*
X224466165Y-148806441D02*
X224370927Y-148615965D01*
X224370927Y-148615965D02*
X224370927Y-148425489D01*
X224370927Y-148425489D02*
X224466165Y-148235013D01*
X224466165Y-148235013D02*
X224561403Y-148139775D01*
X224561403Y-148139775D02*
X224751879Y-148044537D01*
X224751879Y-148044537D02*
X225132832Y-147949299D01*
X225132832Y-147949299D02*
X225323308Y-147854060D01*
X225323308Y-147854060D02*
X225418546Y-147758822D01*
X225418546Y-147758822D02*
X225513784Y-147568346D01*
X225513784Y-147568346D02*
X225513784Y-147377870D01*
X225513784Y-147377870D02*
X225418546Y-147187394D01*
X225418546Y-147187394D02*
X225323308Y-147092156D01*
X225323308Y-147092156D02*
X225132832Y-146996918D01*
X225132832Y-146996918D02*
X224656641Y-146996918D01*
X224656641Y-146996918D02*
X224370927Y-147092156D01*
X222656641Y-148996918D02*
X222656641Y-147949299D01*
X222656641Y-147949299D02*
X222751879Y-147758822D01*
X222751879Y-147758822D02*
X222942355Y-147663584D01*
X222942355Y-147663584D02*
X223323308Y-147663584D01*
X223323308Y-147663584D02*
X223513784Y-147758822D01*
X222656641Y-148901680D02*
X222847117Y-148996918D01*
X222847117Y-148996918D02*
X223323308Y-148996918D01*
X223323308Y-148996918D02*
X223513784Y-148901680D01*
X223513784Y-148901680D02*
X223609022Y-148711203D01*
X223609022Y-148711203D02*
X223609022Y-148520727D01*
X223609022Y-148520727D02*
X223513784Y-148330251D01*
X223513784Y-148330251D02*
X223323308Y-148235013D01*
X223323308Y-148235013D02*
X222847117Y-148235013D01*
X222847117Y-148235013D02*
X222656641Y-148139775D01*
X221704260Y-147663584D02*
X221704260Y-148996918D01*
X221704260Y-147854060D02*
X221609022Y-147758822D01*
X221609022Y-147758822D02*
X221418546Y-147663584D01*
X221418546Y-147663584D02*
X221132831Y-147663584D01*
X221132831Y-147663584D02*
X220942355Y-147758822D01*
X220942355Y-147758822D02*
X220847117Y-147949299D01*
X220847117Y-147949299D02*
X220847117Y-148996918D01*
X217799497Y-146996918D02*
X217799497Y-148425489D01*
X217799497Y-148425489D02*
X217894736Y-148711203D01*
X217894736Y-148711203D02*
X218085212Y-148901680D01*
X218085212Y-148901680D02*
X218370926Y-148996918D01*
X218370926Y-148996918D02*
X218561402Y-148996918D01*
X216561402Y-148996918D02*
X216751878Y-148901680D01*
X216751878Y-148901680D02*
X216847116Y-148806441D01*
X216847116Y-148806441D02*
X216942354Y-148615965D01*
X216942354Y-148615965D02*
X216942354Y-148044537D01*
X216942354Y-148044537D02*
X216847116Y-147854060D01*
X216847116Y-147854060D02*
X216751878Y-147758822D01*
X216751878Y-147758822D02*
X216561402Y-147663584D01*
X216561402Y-147663584D02*
X216275687Y-147663584D01*
X216275687Y-147663584D02*
X216085211Y-147758822D01*
X216085211Y-147758822D02*
X215989973Y-147854060D01*
X215989973Y-147854060D02*
X215894735Y-148044537D01*
X215894735Y-148044537D02*
X215894735Y-148615965D01*
X215894735Y-148615965D02*
X215989973Y-148806441D01*
X215989973Y-148806441D02*
X216085211Y-148901680D01*
X216085211Y-148901680D02*
X216275687Y-148996918D01*
X216275687Y-148996918D02*
X216561402Y-148996918D01*
X215132830Y-148901680D02*
X214942354Y-148996918D01*
X214942354Y-148996918D02*
X214561402Y-148996918D01*
X214561402Y-148996918D02*
X214370925Y-148901680D01*
X214370925Y-148901680D02*
X214275687Y-148711203D01*
X214275687Y-148711203D02*
X214275687Y-148615965D01*
X214275687Y-148615965D02*
X214370925Y-148425489D01*
X214370925Y-148425489D02*
X214561402Y-148330251D01*
X214561402Y-148330251D02*
X214847116Y-148330251D01*
X214847116Y-148330251D02*
X215037592Y-148235013D01*
X215037592Y-148235013D02*
X215132830Y-148044537D01*
X215132830Y-148044537D02*
X215132830Y-147949299D01*
X215132830Y-147949299D02*
X215037592Y-147758822D01*
X215037592Y-147758822D02*
X214847116Y-147663584D01*
X214847116Y-147663584D02*
X214561402Y-147663584D01*
X214561402Y-147663584D02*
X214370925Y-147758822D01*
X212656639Y-148901680D02*
X212847115Y-148996918D01*
X212847115Y-148996918D02*
X213228068Y-148996918D01*
X213228068Y-148996918D02*
X213418544Y-148901680D01*
X213418544Y-148901680D02*
X213513782Y-148711203D01*
X213513782Y-148711203D02*
X213513782Y-147949299D01*
X213513782Y-147949299D02*
X213418544Y-147758822D01*
X213418544Y-147758822D02*
X213228068Y-147663584D01*
X213228068Y-147663584D02*
X212847115Y-147663584D01*
X212847115Y-147663584D02*
X212656639Y-147758822D01*
X212656639Y-147758822D02*
X212561401Y-147949299D01*
X212561401Y-147949299D02*
X212561401Y-148139775D01*
X212561401Y-148139775D02*
X213513782Y-148330251D01*
X210275686Y-147187394D02*
X210180448Y-147092156D01*
X210180448Y-147092156D02*
X209989972Y-146996918D01*
X209989972Y-146996918D02*
X209513781Y-146996918D01*
X209513781Y-146996918D02*
X209323305Y-147092156D01*
X209323305Y-147092156D02*
X209228067Y-147187394D01*
X209228067Y-147187394D02*
X209132829Y-147377870D01*
X209132829Y-147377870D02*
X209132829Y-147568346D01*
X209132829Y-147568346D02*
X209228067Y-147854060D01*
X209228067Y-147854060D02*
X210370924Y-148996918D01*
X210370924Y-148996918D02*
X209132829Y-148996918D01*
X207894734Y-146996918D02*
X207704257Y-146996918D01*
X207704257Y-146996918D02*
X207513781Y-147092156D01*
X207513781Y-147092156D02*
X207418543Y-147187394D01*
X207418543Y-147187394D02*
X207323305Y-147377870D01*
X207323305Y-147377870D02*
X207228067Y-147758822D01*
X207228067Y-147758822D02*
X207228067Y-148235013D01*
X207228067Y-148235013D02*
X207323305Y-148615965D01*
X207323305Y-148615965D02*
X207418543Y-148806441D01*
X207418543Y-148806441D02*
X207513781Y-148901680D01*
X207513781Y-148901680D02*
X207704257Y-148996918D01*
X207704257Y-148996918D02*
X207894734Y-148996918D01*
X207894734Y-148996918D02*
X208085210Y-148901680D01*
X208085210Y-148901680D02*
X208180448Y-148806441D01*
X208180448Y-148806441D02*
X208275686Y-148615965D01*
X208275686Y-148615965D02*
X208370924Y-148235013D01*
X208370924Y-148235013D02*
X208370924Y-147758822D01*
X208370924Y-147758822D02*
X208275686Y-147377870D01*
X208275686Y-147377870D02*
X208180448Y-147187394D01*
X208180448Y-147187394D02*
X208085210Y-147092156D01*
X208085210Y-147092156D02*
X207894734Y-146996918D01*
X206466162Y-147187394D02*
X206370924Y-147092156D01*
X206370924Y-147092156D02*
X206180448Y-146996918D01*
X206180448Y-146996918D02*
X205704257Y-146996918D01*
X205704257Y-146996918D02*
X205513781Y-147092156D01*
X205513781Y-147092156D02*
X205418543Y-147187394D01*
X205418543Y-147187394D02*
X205323305Y-147377870D01*
X205323305Y-147377870D02*
X205323305Y-147568346D01*
X205323305Y-147568346D02*
X205418543Y-147854060D01*
X205418543Y-147854060D02*
X206561400Y-148996918D01*
X206561400Y-148996918D02*
X205323305Y-148996918D01*
X203609019Y-147663584D02*
X203609019Y-148996918D01*
X204085210Y-146901680D02*
X204561400Y-148330251D01*
X204561400Y-148330251D02*
X203323305Y-148330251D01*
M02*
